M48
;Layer_Color=9474304
;FILE_FORMAT=2:5
INCH
;TYPE=PLATED
T01F00S00C0.01181
T02F00S00C0.01968
T04F00S00C0.02559
T05F00S00C0.03500
T06F00S00C0.03622
T07F00S00C0.04000
T08F00S00C0.04016
T09F00S00C0.04331
T10F00S00C0.06200
T11F00S00C0.06299
T12F00S00C0.09055
T13F00S00C0.10630
%
T01
X0150543Y0092043
X0139248Y0154248
X0133500Y0154000
X0158000Y0120500
X0184000Y0120000
X0183953Y0116047
X0188000Y0118000
X0190500Y0115000
X0191551Y0105551
X0171024Y0106508
X0179618Y0129882
X0222000Y0142000
X0223417Y0143917
X0480500Y0128500
X0497500Y0148000
X0499500Y0150000
X0512126Y0121738
X0518669Y0058331
X0522500Y0060000
X0364500Y0174000
X0361500Y0172500
X0358500Y0172000
X0355784Y0172283
X0353500Y0171000
X0351000
X0347909Y0170909
X0339000Y0171000
X0336098Y0170902
X0318382Y0172118
X0320350Y0174150
X0322319Y0176319
X0464000Y0306500
X0174500Y0171500
X0171500Y0172500
X0168500
X0165500Y0171500
X0156965Y0170965
X0478941Y0333059
X0481264Y0333000
X0487101Y0337899
X0485500Y0339500
X0485899Y0326601
X0487500Y0325000
X0494000Y0328000
X0495715Y0326416
X0495252Y0320108
X0496853Y0318508
X0501224Y0324276
Y0329000
Y0331362
Y0336087
Y0338449
X0512543Y0339630
Y0334906
Y0332543
Y0327819
X0512543Y0325457
X0496000Y0384500
T02
X0113240Y0056260
X0114000Y0063500
X0109000Y0070000
X0115000Y0076500
X0125000Y0093000
X0142000Y0110000
Y0116000
X0156000Y0105000
X0154874Y0078374
X0150543Y0079043
X0142000Y0073500
X0138500Y0067000
X0136500Y0060000
X0145500Y0064000
X0135732Y0044768
X0124500Y0154000
X0119563Y0155500
X0113657
X0107752Y0155500
X0093972Y0155500
X0153027
X0163500Y0155500
X0182555Y0155500
X0188461
X0194366
X0205000Y0155000
X0223894Y0155500
X0253421Y0155500
X0259327Y0155500
X0265232
X0271138
X0277043
X0282949
X0288854
X0294760Y0155500
X0300665Y0155500
X0268000Y0107000
X0260000
X0260500Y0060500
X0268000
X0223000
Y0055000
Y0066500
Y0072500
Y0078000
X0206500Y0078500
Y0072641
X0206500Y0066500
Y0060500
X0208156Y0044687
X0198969Y0088968
X0186500Y0099500
X0187623Y0135316
X0169047Y0131953
X0203500Y0129000
Y0122500
X0167866Y0081134
X0159205Y0080795
X0332500Y0095500
X0340500
X0396500Y0100500
Y0083500
X0421000Y0095500
X0409500Y0110000
X0408000Y0125500
X0401000Y0149000
Y0153000
X0395500
Y0149000
X0390000
Y0153000
X0376000Y0155000
X0359720Y0155500
X0334130Y0155500
X0463418Y0137500
X0461500Y0088500
Y0083000
X0468500
Y0088500
X0449500Y0089500
X0443725Y0089500
X0441500Y0070000
X0446000
X0462500Y0065000
X0454500Y0037500
Y0033000
Y0028500
X0449000
Y0033000
Y0037500
X0443500
Y0033000
Y0028500
X0514500Y0029000
Y0033500
Y0038000
X0520000
Y0033500
Y0029000
X0525500
Y0033500
Y0038000
X0543000Y0059000
Y0072000
X0501000Y0072500
X0501500Y0057000
X0512000Y0117000
X0518000Y0124500
X0535918Y0125000
X0528000Y0110500
X0508500Y0141000
X0484418Y0138500
X0483500Y0126500
X0517418Y0162500
X0516000Y0285000
Y0289000
X0510500
Y0285000
X0501000
Y0289000
X0524500
Y0285000
X0444874Y0258170
X0451823Y0250823
X0445000Y0231266
X0451949Y0223920
X0445000Y0203000
X0451949Y0195653
X0406000Y0203500
X0400169Y0219391
X0402669Y0225391
X0400169Y0230891
X0394169Y0233891
X0388169Y0231391
X0385669Y0225391
X0388169Y0219391
X0394169Y0216891
X0384327Y0201327
X0376453Y0184043
X0362673Y0184043
X0355500Y0186000
X0338000Y0203500
X0329000Y0204500
X0311500
X0294000
X0276000
X0270500
X0264500
X0258500Y0212000
X0252500Y0218500
X0232752Y0184043
X0226847
X0220941
X0215035Y0184043
X0209130Y0184043
X0181500Y0203500
X0175000Y0202500
X0168500
X0162500
X0156000Y0203500
X0138000
X0120500Y0204000
X0108500Y0204500
X0095000
X0096831Y0219391
X0094331Y0225391
X0096831Y0231391
X0102831Y0233891
X0108831Y0230891
X0111331Y0225391
X0108831Y0219391
X0102831Y0216891
X0102831Y0350748
X0096831Y0353248
X0094331Y0359248
X0096831Y0365248
X0102831Y0367748
X0108831Y0364748
X0111331Y0359248
X0108831Y0353248
X0388169
X0394169Y0350748
X0400169Y0353248
X0402669Y0359248
X0400169Y0364748
X0394169Y0367748
X0388169Y0365248
X0385669Y0359248
X0483500Y0366500
X0489000
Y0386000
X0483000
X0530500Y0384500
X0522500Y0359000
X0525102Y0342000
Y0337276
Y0330189
Y0323102
X0502559Y0319559
X0492500Y0322500
X0497500Y0338500
T04
X0510244Y0048500
X0533000
T05
X0050000Y0092500
X0045000Y0097500
X0055000
X0065000
X0070000Y0092500
X0060000
X0080000Y0092500
X0090000Y0092500
X0085000Y0097500
X0075000
T06
X0250354Y0078669
X0260197
X0268071
X0277913
X0277913Y0088984
X0268071
X0260197
X0250354
X0322721Y0076866
X0332563Y0076866
X0340437
X0350279Y0076866
T07
X0040750Y0049500
X0040750Y0057500
X0094250Y0057500
Y0049500
T08
X0040500Y0217500
X0050500
Y0227500
X0040500
Y0237500
X0050500
Y0247500
X0040500
Y0257500
X0050500
Y0267500
X0040500
Y0277500
X0050500
Y0287500
X0040500
Y0297500
X0050500
Y0307500
X0040500
Y0317500
X0050500
Y0327500
X0040500
Y0337500
X0050500
Y0347500
X0040500
Y0357500
X0050500
Y0367500
X0040500
Y0377500
X0050500
T09
X0152512Y0043193
X0184008Y0043193
T10
X0036500Y0079500
X0098500
T11
X0383000Y0046500
X0403000
X0423000
T12
X0238268Y0068000
Y0090362
X0290000
Y0068000
X0310634Y0066197
X0362366
T13
X0394169Y0225391
X0102831
X0102831Y0359248
X0394169Y0359248
M30
