G04*
G04 #@! TF.GenerationSoftware,Altium Limited,Altium Designer,26.9.1 (10)*
G04*
G04 Layer_Color=8421504*
G04 Board_Origin=0|0*
%FSLAX25Y25*%
%MOIN*%
G70*
G04*
G04 #@! TF.SameCoordinates,34FFB5F4-1985-4E75-BAE6-BDD6E17969F8*
G04*
G04*
G04 #@! TF.FilePolarity,Positive*
G04*
G01*
G75*
%ADD19R,0.05512X0.04724*%
%ADD20R,0.04134X0.02362*%
%ADD21R,0.01575X0.01575*%
%ADD22R,0.01181X0.04528*%
%ADD23R,0.01181X0.03150*%
%ADD24O,0.02362X0.05512*%
%ADD25R,0.03347X0.03543*%
G04:AMPARAMS|DCode=26|XSize=41.34mil|YSize=17.72mil|CornerRadius=1.95mil|HoleSize=0mil|Usage=FLASHONLY|Rotation=270.000|XOffset=0mil|YOffset=0mil|HoleType=Round|Shape=RoundedRectangle|*
%AMROUNDEDRECTD26*
21,1,0.04134,0.01382,0,0,270.0*
21,1,0.03744,0.01772,0,0,270.0*
1,1,0.00390,-0.00691,-0.01872*
1,1,0.00390,-0.00691,0.01872*
1,1,0.00390,0.00691,0.01872*
1,1,0.00390,0.00691,-0.01872*
%
%ADD26ROUNDEDRECTD26*%
%ADD27R,0.04724X0.05512*%
%ADD28R,0.03543X0.03347*%
%ADD29R,0.01200X0.07900*%
%ADD30R,0.03937X0.03740*%
%ADD31R,0.03740X0.03937*%
%ADD32R,0.03937X0.08661*%
%ADD33R,0.02362X0.04528*%
%ADD34R,0.06457X0.06457*%
G04:AMPARAMS|DCode=35|XSize=10.63mil|YSize=33.86mil|CornerRadius=1.33mil|HoleSize=0mil|Usage=FLASHONLY|Rotation=180.000|XOffset=0mil|YOffset=0mil|HoleType=Round|Shape=RoundedRectangle|*
%AMROUNDEDRECTD35*
21,1,0.01063,0.03120,0,0,180.0*
21,1,0.00797,0.03386,0,0,180.0*
1,1,0.00266,-0.00399,0.01560*
1,1,0.00266,0.00399,0.01560*
1,1,0.00266,0.00399,-0.01560*
1,1,0.00266,-0.00399,-0.01560*
%
%ADD35ROUNDEDRECTD35*%
G04:AMPARAMS|DCode=36|XSize=33.86mil|YSize=10.63mil|CornerRadius=1.33mil|HoleSize=0mil|Usage=FLASHONLY|Rotation=180.000|XOffset=0mil|YOffset=0mil|HoleType=Round|Shape=RoundedRectangle|*
%AMROUNDEDRECTD36*
21,1,0.03386,0.00797,0,0,180.0*
21,1,0.03120,0.01063,0,0,180.0*
1,1,0.00266,-0.01560,0.00399*
1,1,0.00266,0.01560,0.00399*
1,1,0.00266,0.01560,-0.00399*
1,1,0.00266,-0.01560,-0.00399*
%
%ADD36ROUNDEDRECTD36*%
%ADD37R,0.14173X0.14173*%
%ADD38R,0.03150X0.01181*%
G04:AMPARAMS|DCode=39|XSize=45.83mil|YSize=13.22mil|CornerRadius=6.61mil|HoleSize=0mil|Usage=FLASHONLY|Rotation=180.000|XOffset=0mil|YOffset=0mil|HoleType=Round|Shape=RoundedRectangle|*
%AMROUNDEDRECTD39*
21,1,0.04583,0.00000,0,0,180.0*
21,1,0.03260,0.01322,0,0,180.0*
1,1,0.01322,-0.01630,0.00000*
1,1,0.01322,0.01630,0.00000*
1,1,0.01322,0.01630,0.00000*
1,1,0.01322,-0.01630,0.00000*
%
%ADD39ROUNDEDRECTD39*%
%ADD40R,0.02362X0.03543*%
%ADD41R,0.04724X0.07087*%
%ADD42R,0.06299X0.05906*%
%ADD43R,0.04724X0.08661*%
%ADD44R,0.02756X0.06299*%
%ADD45R,0.03740X0.02362*%
%ADD46R,0.01575X0.01575*%
%ADD47R,0.10394X0.04331*%
%ADD48R,0.26772X0.28347*%
%ADD49R,0.04583X0.01322*%
%ADD50R,0.03543X0.03543*%
%ADD51R,0.03543X0.02362*%
G36*
X521075Y322650D02*
X518516D01*
Y323555D01*
X521075D01*
Y322650D01*
D02*
G37*
G36*
X509067Y321468D02*
X506902D01*
Y322374D01*
X509067D01*
X509067Y321468D01*
D02*
G37*
G36*
X521075Y320287D02*
X518516D01*
X518516Y321193D01*
X521075D01*
Y320287D01*
D02*
G37*
G36*
X509067Y319106D02*
X506902D01*
Y320012D01*
X509067D01*
X509067Y319106D01*
D02*
G37*
G36*
X521075Y317925D02*
X518516D01*
Y318831D01*
X521075D01*
Y317925D01*
D02*
G37*
G36*
X509067Y316744D02*
X506902Y316744D01*
Y317650D01*
X509067D01*
Y316744D01*
D02*
G37*
G36*
X521075Y315563D02*
X518516D01*
Y316469D01*
X521075D01*
Y315563D01*
D02*
G37*
G36*
X520287Y313653D02*
Y312472D01*
X517531D01*
X517531Y313653D01*
X520287Y313653D01*
D02*
G37*
G36*
X509067Y324736D02*
Y323831D01*
X506902D01*
Y324736D01*
X509067Y324736D01*
D02*
G37*
G36*
Y327098D02*
X509067Y326193D01*
X506902D01*
Y327098D01*
X509067D01*
D02*
G37*
G36*
Y329461D02*
Y328555D01*
X506902D01*
Y329461D01*
X509067D01*
D02*
G37*
G36*
Y331823D02*
Y330917D01*
X506902D01*
Y331823D01*
X509067Y331823D01*
D02*
G37*
G36*
X521075Y325917D02*
Y325012D01*
X518516D01*
X518516Y325917D01*
X521075D01*
D02*
G37*
G36*
Y328279D02*
Y327374D01*
X518516D01*
X518516Y328279D01*
X521075D01*
D02*
G37*
G36*
Y330642D02*
Y329736D01*
X518516D01*
Y330642D01*
X521075D01*
D02*
G37*
G36*
Y333004D02*
Y332098D01*
X518516D01*
X518516Y333004D01*
X521075D01*
D02*
G37*
G36*
X509067Y334185D02*
Y333279D01*
X506902D01*
Y334185D01*
X509067D01*
D02*
G37*
G36*
X509067Y336547D02*
Y335642D01*
X506902Y335642D01*
Y336547D01*
X509067D01*
D02*
G37*
G36*
Y338910D02*
Y338004D01*
X506902D01*
Y338910D01*
X509067D01*
D02*
G37*
G36*
X509067Y341272D02*
X509067Y340366D01*
X506902D01*
Y341272D01*
X509067D01*
D02*
G37*
G36*
X509067Y343634D02*
Y342728D01*
X506902Y342728D01*
Y343634D01*
X509067D01*
D02*
G37*
G36*
X521075Y335366D02*
Y334461D01*
X518516D01*
X518516Y335366D01*
X521075D01*
D02*
G37*
G36*
Y337728D02*
Y336823D01*
X518516D01*
Y337728D01*
X521075D01*
D02*
G37*
G36*
Y340091D02*
Y339185D01*
X518516D01*
Y340090D01*
X521075Y340091D01*
D02*
G37*
G36*
Y342453D02*
Y341547D01*
X518516D01*
X518516Y342453D01*
X521075D01*
D02*
G37*
G36*
X520287Y353811D02*
X517531D01*
Y354992D01*
X520287D01*
Y353811D01*
D02*
G37*
G36*
X521075Y350996D02*
X518516D01*
Y351902D01*
X521075D01*
Y350996D01*
D02*
G37*
G36*
X509067Y349815D02*
X506902D01*
Y350721D01*
X509067Y350721D01*
Y349815D01*
D02*
G37*
G36*
X521075Y348634D02*
X518516D01*
Y349539D01*
X521075D01*
Y348634D01*
D02*
G37*
G36*
X509067Y347453D02*
X506902D01*
Y348358D01*
X509067D01*
X509067Y347453D01*
D02*
G37*
G36*
X521075Y346272D02*
X518516D01*
Y347177D01*
X521075Y347177D01*
Y346272D01*
D02*
G37*
G36*
X509067Y345091D02*
X506902D01*
Y345996D01*
X509067D01*
X509067Y345091D01*
D02*
G37*
G36*
X521075Y343910D02*
X518516D01*
Y344815D01*
X521075D01*
Y343910D01*
D02*
G37*
D19*
X444000Y52500D02*
D03*
Y45807D02*
D03*
Y77153D02*
D03*
Y83846D02*
D03*
X414500Y114807D02*
D03*
X502000Y371847D02*
D03*
X483077Y372366D02*
D03*
X466784Y45807D02*
D03*
X394000Y88653D02*
D03*
X414500Y121500D02*
D03*
X394000Y95346D02*
D03*
X483077Y379059D02*
D03*
X466784Y52500D02*
D03*
X502000Y365154D02*
D03*
D20*
X119488Y56260D02*
D03*
Y63740D02*
D03*
X130512Y56260D02*
D03*
X130512Y63740D02*
D03*
Y60000D02*
D03*
X119488D02*
D03*
X131012Y72760D02*
D03*
X119988D02*
D03*
Y80240D02*
D03*
X131012D02*
D03*
X119988Y76500D02*
D03*
X131012Y76500D02*
D03*
D21*
X529758Y72500D02*
D03*
X534089D02*
D03*
X509665Y60000D02*
D03*
X506335Y72500D02*
D03*
X505335Y60000D02*
D03*
X510665Y72500D02*
D03*
D22*
X522606Y52732D02*
D03*
X518669Y52732D02*
D03*
X514732Y52732D02*
D03*
X516701Y52732D02*
D03*
X520638Y52732D02*
D03*
X524575Y52732D02*
D03*
X526543D02*
D03*
X528512D02*
D03*
D23*
X503537Y117248D02*
D03*
X505505D02*
D03*
X491725Y117248D02*
D03*
X493694D02*
D03*
X495662Y117248D02*
D03*
X497631D02*
D03*
X499600Y117248D02*
D03*
X501568D02*
D03*
X505505Y136933D02*
D03*
X503537D02*
D03*
X501568D02*
D03*
X499600D02*
D03*
X497631D02*
D03*
X495662D02*
D03*
X493694D02*
D03*
X491725D02*
D03*
D24*
X458240Y69055D02*
D03*
X450760Y69055D02*
D03*
X458240Y60000D02*
D03*
X450760D02*
D03*
X454500D02*
D03*
D25*
X407949Y85000D02*
D03*
X191551Y110500D02*
D03*
X526102Y384500D02*
D03*
X536746Y66500D02*
D03*
X504001Y66500D02*
D03*
X528166Y115091D02*
D03*
X125000Y88000D02*
D03*
X216551Y60500D02*
D03*
Y66500D02*
D03*
Y72641D02*
D03*
Y78500D02*
D03*
X216602Y54500D02*
D03*
X451949Y200234D02*
D03*
Y228500D02*
D03*
X451823Y255403D02*
D03*
X460051Y96500D02*
D03*
X520000Y384500D02*
D03*
X458051Y200234D02*
D03*
X522064Y115091D02*
D03*
X414051Y85000D02*
D03*
X453949Y96500D02*
D03*
X530644Y66500D02*
D03*
X510103Y66500D02*
D03*
X458051Y228500D02*
D03*
X457925Y255403D02*
D03*
X185449Y110500D02*
D03*
X210449Y60500D02*
D03*
X210500Y54500D02*
D03*
X131102Y88000D02*
D03*
X210449Y66500D02*
D03*
Y78500D02*
D03*
Y72641D02*
D03*
D26*
X409441Y95264D02*
D03*
Y105500D02*
D03*
X412000D02*
D03*
X414559Y95264D02*
D03*
X406882D02*
D03*
X412000D02*
D03*
X414559Y105500D02*
D03*
X406882D02*
D03*
D27*
X154847Y110000D02*
D03*
X148153D02*
D03*
X493347Y30000D02*
D03*
X197846Y129000D02*
D03*
X471769Y140591D02*
D03*
X510120Y294500D02*
D03*
X516153Y294500D02*
D03*
X486654Y30000D02*
D03*
X529462Y127591D02*
D03*
X191154Y129000D02*
D03*
X478462Y140591D02*
D03*
X522847Y294500D02*
D03*
X503427Y294500D02*
D03*
X522769Y127591D02*
D03*
D28*
X26000Y57449D02*
D03*
Y63551D02*
D03*
X445000Y207182D02*
D03*
Y235449D02*
D03*
X444874Y262352D02*
D03*
X534000Y300949D02*
D03*
X514500Y157051D02*
D03*
X521000D02*
D03*
X109000Y63551D02*
D03*
X534000Y307051D02*
D03*
X444874Y268454D02*
D03*
X445000Y241551D02*
D03*
Y213285D02*
D03*
X514500Y150949D02*
D03*
X521000D02*
D03*
X109000Y57449D02*
D03*
D29*
X127437Y163856D02*
D03*
X149091D02*
D03*
X129405D02*
D03*
X143185D02*
D03*
X137279D02*
D03*
X201256Y192399D02*
D03*
X174681Y163856D02*
D03*
X178618D02*
D03*
X180587D02*
D03*
X361689D02*
D03*
X357752D02*
D03*
X320350D02*
D03*
X310508D02*
D03*
X176650D02*
D03*
X387280D02*
D03*
X389248Y163856D02*
D03*
X391216D02*
D03*
X393185Y163856D02*
D03*
X395153D02*
D03*
X397122D02*
D03*
X399091D02*
D03*
X401059D02*
D03*
X403028D02*
D03*
X404996D02*
D03*
X384327Y192399D02*
D03*
X204209Y163856D02*
D03*
X355784Y163856D02*
D03*
X93972D02*
D03*
X107752Y163856D02*
D03*
X113657Y163856D02*
D03*
X119563D02*
D03*
X125469D02*
D03*
X153027D02*
D03*
X164839D02*
D03*
X182555D02*
D03*
X188461D02*
D03*
X194366D02*
D03*
X206177D02*
D03*
X223894D02*
D03*
X253421Y163856D02*
D03*
X259327Y163856D02*
D03*
X265232D02*
D03*
X271138D02*
D03*
X277043D02*
D03*
X282949D02*
D03*
X288854D02*
D03*
X294760Y163856D02*
D03*
X300665Y163856D02*
D03*
X334130Y163856D02*
D03*
X359720Y163856D02*
D03*
X377437Y163856D02*
D03*
X94957Y192399D02*
D03*
X108736D02*
D03*
X120547Y192399D02*
D03*
X138264Y192399D02*
D03*
X155980D02*
D03*
X181571D02*
D03*
X209130D02*
D03*
X215035Y192399D02*
D03*
X220941Y192399D02*
D03*
X226847D02*
D03*
X232752D02*
D03*
X252437Y192399D02*
D03*
X258343Y192399D02*
D03*
X264248D02*
D03*
X270153D02*
D03*
X276059D02*
D03*
X293776Y192399D02*
D03*
X311492Y192399D02*
D03*
X329209D02*
D03*
X339051D02*
D03*
X350862Y192399D02*
D03*
X362673Y192399D02*
D03*
X376453Y192399D02*
D03*
X405980Y192399D02*
D03*
X353815Y163856D02*
D03*
X338067D02*
D03*
X322319D02*
D03*
X312476D02*
D03*
X318382D02*
D03*
X314445D02*
D03*
X202240Y163856D02*
D03*
X200272D02*
D03*
X351846Y163856D02*
D03*
X199287Y192399D02*
D03*
X196335Y163856D02*
D03*
X363657D02*
D03*
X316413D02*
D03*
X346925Y192399D02*
D03*
X360705D02*
D03*
X324287Y163856D02*
D03*
X354799Y192399D02*
D03*
X358736D02*
D03*
X352831D02*
D03*
X366610D02*
D03*
X342988D02*
D03*
X364642D02*
D03*
X341020D02*
D03*
X330193Y163856D02*
D03*
X348894Y192399D02*
D03*
X372516D02*
D03*
X404012D02*
D03*
X402043Y192399D02*
D03*
X400075D02*
D03*
X398106D02*
D03*
X396138D02*
D03*
X394169D02*
D03*
X392201D02*
D03*
X390232Y192399D02*
D03*
X388264D02*
D03*
X386295Y192399D02*
D03*
X382358D02*
D03*
X380390D02*
D03*
X378421D02*
D03*
X374484Y192399D02*
D03*
X370547Y192399D02*
D03*
X368579D02*
D03*
X356768D02*
D03*
X344957D02*
D03*
X337083D02*
D03*
X335114Y192399D02*
D03*
X333146D02*
D03*
X331177Y192399D02*
D03*
X327240D02*
D03*
X325272D02*
D03*
X323303D02*
D03*
X321335D02*
D03*
X319366D02*
D03*
X317398D02*
D03*
X315429D02*
D03*
X313461D02*
D03*
X309524Y192399D02*
D03*
X307555Y192399D02*
D03*
X305587D02*
D03*
X303618D02*
D03*
X301650D02*
D03*
X299681D02*
D03*
X297713Y192399D02*
D03*
X295744D02*
D03*
X291807D02*
D03*
X289839Y192399D02*
D03*
X287870D02*
D03*
X285902D02*
D03*
X283933D02*
D03*
X281965D02*
D03*
X279996Y192399D02*
D03*
X278028D02*
D03*
X274091Y192399D02*
D03*
X272122D02*
D03*
X268185D02*
D03*
X266216D02*
D03*
X262280D02*
D03*
X260311D02*
D03*
X256374Y192399D02*
D03*
X254405D02*
D03*
X250468Y192399D02*
D03*
X248500D02*
D03*
X246532D02*
D03*
X236689D02*
D03*
X234720D02*
D03*
X230784D02*
D03*
X228815D02*
D03*
X224878D02*
D03*
X222909D02*
D03*
X218972D02*
D03*
X217004Y192399D02*
D03*
X213067Y192399D02*
D03*
X211098D02*
D03*
X207161D02*
D03*
X205193D02*
D03*
X203224Y192399D02*
D03*
X197319Y192399D02*
D03*
X195350D02*
D03*
X193382D02*
D03*
X191413D02*
D03*
X189445D02*
D03*
X187476Y192399D02*
D03*
X185508D02*
D03*
X183539Y192399D02*
D03*
X179602D02*
D03*
X177634D02*
D03*
X175665D02*
D03*
X173697D02*
D03*
X171728D02*
D03*
X169760D02*
D03*
X167791D02*
D03*
X165823D02*
D03*
X163854Y192399D02*
D03*
X161886D02*
D03*
X159917D02*
D03*
X157949D02*
D03*
X154012Y192399D02*
D03*
X152043D02*
D03*
X150075D02*
D03*
X148106D02*
D03*
X146138Y192399D02*
D03*
X144169Y192399D02*
D03*
X142201D02*
D03*
X140232D02*
D03*
X136295D02*
D03*
X134327Y192399D02*
D03*
X132358Y192399D02*
D03*
X130390D02*
D03*
X128421D02*
D03*
X126453D02*
D03*
X124484D02*
D03*
X122516Y192399D02*
D03*
X118579D02*
D03*
X116610Y192399D02*
D03*
X114642D02*
D03*
X112673D02*
D03*
X110705D02*
D03*
X106768Y192399D02*
D03*
X104799D02*
D03*
X102831Y192399D02*
D03*
X100862D02*
D03*
X98894D02*
D03*
X96925D02*
D03*
X92988Y192399D02*
D03*
X385311Y163856D02*
D03*
X383343D02*
D03*
X381374D02*
D03*
X379405D02*
D03*
X375468D02*
D03*
X373500D02*
D03*
X371532D02*
D03*
X369563D02*
D03*
X349878D02*
D03*
X345941D02*
D03*
X343972D02*
D03*
X342004D02*
D03*
X340035D02*
D03*
X328224D02*
D03*
X326256D02*
D03*
X308539D02*
D03*
X306571D02*
D03*
X304602D02*
D03*
X302634D02*
D03*
X298697D02*
D03*
X296728Y163856D02*
D03*
X292791D02*
D03*
X290823Y163856D02*
D03*
X286886D02*
D03*
X284917D02*
D03*
X280980D02*
D03*
X279012D02*
D03*
X275075D02*
D03*
X273106D02*
D03*
X269169D02*
D03*
X267201D02*
D03*
X263264D02*
D03*
X261295D02*
D03*
X257358D02*
D03*
X255390Y163856D02*
D03*
X251453Y163856D02*
D03*
X249484D02*
D03*
X247516D02*
D03*
X235705D02*
D03*
X233736D02*
D03*
X231768D02*
D03*
X229799D02*
D03*
X227831D02*
D03*
X225862D02*
D03*
X221925D02*
D03*
X219957D02*
D03*
X217988D02*
D03*
X216020D02*
D03*
X214051D02*
D03*
X212083D02*
D03*
X198303D02*
D03*
X192398D02*
D03*
X190429D02*
D03*
X186492D02*
D03*
X184524D02*
D03*
X172713D02*
D03*
X170744D02*
D03*
X168776D02*
D03*
X166807D02*
D03*
X162870D02*
D03*
X160902Y163856D02*
D03*
X158933D02*
D03*
X156965Y163856D02*
D03*
X154996D02*
D03*
X151059D02*
D03*
X147122Y163856D02*
D03*
X145153Y163856D02*
D03*
X141217D02*
D03*
X139248D02*
D03*
X135311D02*
D03*
X133343D02*
D03*
X131374D02*
D03*
X123500D02*
D03*
X121531D02*
D03*
X117595D02*
D03*
X115626D02*
D03*
X111689D02*
D03*
X109721D02*
D03*
X105783Y163856D02*
D03*
X103815Y163856D02*
D03*
X101847D02*
D03*
X99878D02*
D03*
X97909D02*
D03*
X95941D02*
D03*
X245547D02*
D03*
X244563Y192399D02*
D03*
X92004Y163856D02*
D03*
X91020Y192399D02*
D03*
X365626Y163856D02*
D03*
X367595D02*
D03*
X332161D02*
D03*
X336098Y163856D02*
D03*
X347909Y163856D02*
D03*
X208146D02*
D03*
X210114D02*
D03*
D30*
X493953Y36500D02*
D03*
X197000Y122000D02*
D03*
X149500Y116000D02*
D03*
X509726Y306500D02*
D03*
Y300821D02*
D03*
X516547Y306500D02*
D03*
X516547Y300821D02*
D03*
X488047Y36500D02*
D03*
X472615Y134090D02*
D03*
X528568Y121591D02*
D03*
X191095Y122000D02*
D03*
X478521Y134090D02*
D03*
X522453Y306500D02*
D03*
Y300821D02*
D03*
X155405Y116000D02*
D03*
X503821Y300821D02*
D03*
Y306500D02*
D03*
X522662Y121590D02*
D03*
D31*
X408500Y114547D02*
D03*
X489500Y373547D02*
D03*
X495000D02*
D03*
X450500Y82953D02*
D03*
Y46547D02*
D03*
X400500Y89047D02*
D03*
X408500Y120453D02*
D03*
X450500Y77047D02*
D03*
X400500Y94953D02*
D03*
X489500Y379453D02*
D03*
X495000D02*
D03*
X450500Y52453D02*
D03*
D32*
X493976Y44480D02*
D03*
X476024D02*
D03*
D33*
X531071Y52732D02*
D03*
X512173D02*
D03*
X509024Y52732D02*
D03*
X534221Y52732D02*
D03*
D34*
X172000Y119000D02*
D03*
D35*
X169047Y126618D02*
D03*
X171016Y111382D02*
D03*
X172984Y126618D02*
D03*
X176921D02*
D03*
Y111382D02*
D03*
X174953D02*
D03*
X172984D02*
D03*
X169047D02*
D03*
X167079D02*
D03*
Y126618D02*
D03*
X171016D02*
D03*
X174953D02*
D03*
D36*
X179618Y116047D02*
D03*
Y121953D02*
D03*
X164382Y116047D02*
D03*
X179618Y118016D02*
D03*
X164382Y114079D02*
D03*
Y118016D02*
D03*
Y119984D02*
D03*
Y121953D02*
D03*
Y123921D02*
D03*
X179618D02*
D03*
Y119984D02*
D03*
Y114079D02*
D03*
D37*
X498615Y127091D02*
D03*
D38*
X508458Y133980D02*
D03*
Y120201D02*
D03*
X488773Y128075D02*
D03*
X508458Y126106D02*
D03*
X488773Y133980D02*
D03*
X508458Y124138D02*
D03*
Y122169D02*
D03*
Y128075D02*
D03*
Y130043D02*
D03*
X488773Y132012D02*
D03*
Y130043D02*
D03*
X488773Y126106D02*
D03*
X488773Y124138D02*
D03*
Y122169D02*
D03*
Y120201D02*
D03*
X508458Y132012D02*
D03*
D39*
X509532Y381500D02*
D03*
X503468Y378941D02*
D03*
X509532Y384059D02*
D03*
X503468D02*
D03*
D40*
X441047Y96250D02*
D03*
X446953D02*
D03*
D41*
X141488Y81382D02*
D03*
D42*
X198969Y82366D02*
D03*
D43*
X202512Y44768D02*
D03*
X141488D02*
D03*
D44*
X159205Y86500D02*
D03*
X167866D02*
D03*
X176528D02*
D03*
X180858Y86500D02*
D03*
X146213D02*
D03*
X163535D02*
D03*
X172197D02*
D03*
X154874D02*
D03*
X150543Y86500D02*
D03*
D45*
X450248Y205993D02*
D03*
X450374Y234260D02*
D03*
X449874Y260903D02*
D03*
X459126Y264643D02*
D03*
X449874Y268383D02*
D03*
X459500Y209734D02*
D03*
X450248Y213474D02*
D03*
X450374Y241740D02*
D03*
X459626Y238000D02*
D03*
D46*
X260000Y102165D02*
D03*
X268000D02*
D03*
X260000Y97835D02*
D03*
X268000Y97835D02*
D03*
D47*
X522500Y365846D02*
D03*
X522500Y377500D02*
D03*
D48*
X485000Y69677D02*
D03*
D49*
X509532Y378941D02*
D03*
D50*
X509500Y373331D02*
D03*
Y364669D02*
D03*
D51*
X464374Y264856D02*
D03*
X465500Y203781D02*
D03*
Y209686D02*
D03*
X514500Y145453D02*
D03*
Y139547D02*
D03*
X521000Y145453D02*
D03*
Y139547D02*
D03*
X464500Y238000D02*
D03*
Y232095D02*
D03*
X464374Y258950D02*
D03*
M02*
