G04*
G04 #@! TF.GenerationSoftware,Altium Limited,Altium Designer,26.9.1 (10)*
G04*
G04 Layer_Color=32896*
G04 Board_Origin=0|0*
%FSLAX25Y25*%
%MOIN*%
G70*
G04*
G04 #@! TF.SameCoordinates,34FFB5F4-1985-4E75-BAE6-BDD6E17969F8*
G04*
G04*
G04 #@! TF.FilePolarity,Positive*
G04*
G01*
G75*
%ADD13C,0.02000*%
%ADD18C,0.01000*%
D13*
X110200Y92500D02*
G03*
X110200Y92500I-1500J0D01*
G01*
X430850Y192399D02*
G03*
X430850Y192399I-1500J0D01*
G01*
D18*
X151532Y188408D02*
X155468D01*
Y190376D01*
X154812Y191032D01*
X153500D01*
X152844Y190376D01*
Y188408D01*
Y189720D02*
X151532Y191032D01*
Y194968D02*
Y192344D01*
X154156Y194968D01*
X154812D01*
X155468Y194312D01*
Y193000D01*
X154812Y192344D01*
X151532Y196280D02*
Y197592D01*
Y196936D01*
X155468D01*
X154812Y196280D01*
X158532Y187752D02*
X162468D01*
Y189720D01*
X161812Y190376D01*
X160500D01*
X159844Y189720D01*
Y187752D01*
Y189064D02*
X158532Y190376D01*
Y194312D02*
Y191688D01*
X161156Y194312D01*
X161812D01*
X162468Y193656D01*
Y192344D01*
X161812Y191688D01*
Y195624D02*
X162468Y196280D01*
Y197592D01*
X161812Y198248D01*
X159188D01*
X158532Y197592D01*
Y196280D01*
X159188Y195624D01*
X161812D01*
X166032Y187580D02*
X169968D01*
Y189548D01*
X169312Y190204D01*
X168000D01*
X167344Y189548D01*
Y187580D01*
Y188892D02*
X166032Y190204D01*
Y191516D02*
Y192828D01*
Y192172D01*
X169968D01*
X169312Y191516D01*
X166688Y194796D02*
X166032Y195452D01*
Y196764D01*
X166688Y197420D01*
X169312D01*
X169968Y196764D01*
Y195452D01*
X169312Y194796D01*
X168656D01*
X168000Y195452D01*
Y197420D01*
X173532Y188080D02*
X177468D01*
Y190048D01*
X176812Y190704D01*
X175500D01*
X174844Y190048D01*
Y188080D01*
Y189392D02*
X173532Y190704D01*
Y192016D02*
Y193328D01*
Y192672D01*
X177468D01*
X176812Y192016D01*
Y195296D02*
X177468Y195952D01*
Y197264D01*
X176812Y197920D01*
X176156D01*
X175500Y197264D01*
X174844Y197920D01*
X174188D01*
X173532Y197264D01*
Y195952D01*
X174188Y195296D01*
X174844D01*
X175500Y195952D01*
X176156Y195296D01*
X176812D01*
X175500Y195952D02*
Y197264D01*
X180532Y188236D02*
X184468D01*
Y190204D01*
X183812Y190860D01*
X182500D01*
X181844Y190204D01*
Y188236D01*
Y189548D02*
X180532Y190860D01*
Y192172D02*
Y193484D01*
Y192828D01*
X184468D01*
X183812Y192172D01*
X180532Y195452D02*
Y196764D01*
Y196108D01*
X184468D01*
X183812Y195452D01*
X271532Y73420D02*
X275468D01*
Y71452D01*
X274812Y70796D01*
X272188D01*
X271532Y71452D01*
Y73420D01*
X275468Y69484D02*
Y68172D01*
Y68828D01*
X271532D01*
X272188Y69484D01*
Y66204D02*
X271532Y65548D01*
Y64236D01*
X272188Y63580D01*
X274812D01*
X275468Y64236D01*
Y65548D01*
X274812Y66204D01*
X272188D01*
X253032Y70780D02*
X256968D01*
Y68812D01*
X256312Y68156D01*
X253688D01*
X253032Y68812D01*
Y70780D01*
X256312Y66844D02*
X256968Y66188D01*
Y64876D01*
X256312Y64220D01*
X253688D01*
X253032Y64876D01*
Y66188D01*
X253688Y66844D01*
X254344D01*
X255000Y66188D01*
Y64220D01*
X339032Y105280D02*
X342968D01*
Y103312D01*
X342312Y102656D01*
X339688D01*
X339032Y103312D01*
Y105280D01*
X339688Y101344D02*
X339032Y100688D01*
Y99376D01*
X339688Y98720D01*
X340344D01*
X341000Y99376D01*
X341656Y98720D01*
X342312D01*
X342968Y99376D01*
Y100688D01*
X342312Y101344D01*
X341656D01*
X341000Y100688D01*
X340344Y101344D01*
X339688D01*
X341000Y100688D02*
Y99376D01*
X330532Y104780D02*
X334468D01*
Y102812D01*
X333812Y102156D01*
X331188D01*
X330532Y102812D01*
Y104780D01*
Y100844D02*
Y98220D01*
X331188D01*
X333812Y100844D01*
X334468D01*
X179688Y113156D02*
X179032Y113812D01*
Y115124D01*
X179688Y115780D01*
X182312D01*
X182968Y115124D01*
Y113812D01*
X182312Y113156D01*
X182968Y109876D02*
X179032D01*
X181000Y111844D01*
Y109220D01*
X173188Y113156D02*
X172532Y113812D01*
Y115124D01*
X173188Y115780D01*
X175812D01*
X176468Y115124D01*
Y113812D01*
X175812Y113156D01*
X173188Y111844D02*
X172532Y111188D01*
Y109876D01*
X173188Y109220D01*
X173844D01*
X174500Y109876D01*
Y110532D01*
Y109876D01*
X175156Y109220D01*
X175812D01*
X176468Y109876D01*
Y111188D01*
X175812Y111844D01*
X166188Y113656D02*
X165532Y114312D01*
Y115624D01*
X166188Y116280D01*
X168812D01*
X169468Y115624D01*
Y114312D01*
X168812Y113656D01*
X169468Y109720D02*
Y112344D01*
X166844Y109720D01*
X166188D01*
X165532Y110376D01*
Y111688D01*
X166188Y112344D01*
X159188Y113000D02*
X158532Y113656D01*
Y114968D01*
X159188Y115624D01*
X161812D01*
X162468Y114968D01*
Y113656D01*
X161812Y113000D01*
X162468Y111688D02*
Y110376D01*
Y111032D01*
X158532D01*
X159188Y111688D01*
M02*
