G04*
G04 #@! TF.GenerationSoftware,Altium Limited,Altium Designer,26.9.1 (10)*
G04*
G04 Layer_Color=128*
G04 Board_Origin=0|0*
%FSLAX25Y25*%
%MOIN*%
G70*
G04*
G04 #@! TF.SameCoordinates,34FFB5F4-1985-4E75-BAE6-BDD6E17969F8*
G04*
G04*
G04 #@! TF.FilePolarity,Positive*
G04*
G01*
G75*
%ADD19R,0.05512X0.04724*%
%ADD28R,0.03543X0.03347*%
%ADD31R,0.03740X0.03937*%
%ADD46R,0.01575X0.01575*%
D19*
X161000Y100347D02*
D03*
X161000Y93654D02*
D03*
D28*
X155500Y183051D02*
D03*
X161000D02*
D03*
X166500D02*
D03*
X172000D02*
D03*
X177500D02*
D03*
X166500Y176949D02*
D03*
X177500D02*
D03*
X155500D02*
D03*
X161000D02*
D03*
X172000D02*
D03*
D31*
X167500Y99453D02*
D03*
X173000Y99453D02*
D03*
X178500D02*
D03*
X173000Y93547D02*
D03*
X178500D02*
D03*
X167500D02*
D03*
D46*
X340500Y86335D02*
D03*
Y90665D02*
D03*
X332500Y86835D02*
D03*
Y91165D02*
D03*
X260500Y64335D02*
D03*
X260500Y68665D02*
D03*
X268000Y64169D02*
D03*
Y68500D02*
D03*
M02*
