G04*
G04 #@! TF.GenerationSoftware,Altium Limited,Altium Designer,26.9.1 (10)*
G04*
G04 Layer_Physical_Order=2*
G04 Layer_Color=36540*
G04 Board_Origin=0|0*
%FSLAX25Y25*%
%MOIN*%
G70*
G04*
G04 #@! TF.SameCoordinates,34FFB5F4-1985-4E75-BAE6-BDD6E17969F8*
G04*
G04*
G04 #@! TF.FilePolarity,Positive*
G04*
G01*
G75*
%ADD56C,0.09449*%
%ADD58C,0.06000*%
%ADD62C,0.06181*%
%ADD63R,0.06181X0.06181*%
%ADD64C,0.13583*%
%ADD65C,0.05591*%
%ADD66C,0.23622*%
%ADD67C,0.15748*%
%ADD68C,0.06299*%
%ADD69C,0.04300*%
%ADD70C,0.06300*%
%ADD71O,0.03937X0.08268*%
%ADD72O,0.03937X0.07087*%
%ADD73C,0.02559*%
G04:AMPARAMS|DCode=74|XSize=55.91mil|YSize=55.91mil|CornerRadius=13.98mil|HoleSize=0mil|Usage=FLASHONLY|Rotation=0.000|XOffset=0mil|YOffset=0mil|HoleType=Round|Shape=RoundedRectangle|*
%AMROUNDEDRECTD74*
21,1,0.05591,0.02795,0,0,0.0*
21,1,0.02795,0.05591,0,0,0.0*
1,1,0.02795,0.01398,-0.01398*
1,1,0.02795,-0.01398,-0.01398*
1,1,0.02795,-0.01398,0.01398*
1,1,0.02795,0.01398,0.01398*
%
%ADD74ROUNDEDRECTD74*%
%ADD75C,0.03150*%
%ADD81C,0.01772*%
G36*
X546000Y23500D02*
X19500D01*
Y402500D01*
X546000D01*
Y23500D01*
D02*
G37*
%LPC*%
G36*
X489411Y388067D02*
X488589D01*
X487829Y387752D01*
X487248Y387171D01*
X486933Y386411D01*
Y385589D01*
X487248Y384829D01*
X487829Y384248D01*
X488589Y383933D01*
X489411D01*
X490171Y384248D01*
X490752Y384829D01*
X491067Y385589D01*
Y386411D01*
X490752Y387171D01*
X490171Y387752D01*
X489411Y388067D01*
D02*
G37*
G36*
X483411D02*
X482589D01*
X481829Y387752D01*
X481248Y387171D01*
X480933Y386411D01*
Y385589D01*
X481248Y384829D01*
X481829Y384248D01*
X482589Y383933D01*
X483411D01*
X484171Y384248D01*
X484752Y384829D01*
X485067Y385589D01*
Y386411D01*
X484752Y387171D01*
X484171Y387752D01*
X483411Y388067D01*
D02*
G37*
G36*
X496274Y385878D02*
X495726D01*
X495219Y385668D01*
X494832Y385280D01*
X494622Y384774D01*
Y384226D01*
X494832Y383719D01*
X495219Y383332D01*
X495726Y383122D01*
X496274D01*
X496781Y383332D01*
X497168Y383719D01*
X497378Y384226D01*
Y384774D01*
X497168Y385280D01*
X496781Y385668D01*
X496274Y385878D01*
D02*
G37*
G36*
X50972Y381083D02*
X50028D01*
X49117Y380838D01*
X48300Y380367D01*
X47633Y379700D01*
X47161Y378883D01*
X46917Y377972D01*
Y377028D01*
X47161Y376117D01*
X47633Y375300D01*
X48300Y374633D01*
X49117Y374162D01*
X50028Y373917D01*
X50972D01*
X51883Y374162D01*
X52700Y374633D01*
X53367Y375300D01*
X53838Y376117D01*
X54083Y377028D01*
Y377972D01*
X53838Y378883D01*
X53367Y379700D01*
X52700Y380367D01*
X51883Y380838D01*
X50972Y381083D01*
D02*
G37*
G36*
Y371083D02*
X50028D01*
X49117Y370838D01*
X48300Y370367D01*
X47633Y369700D01*
X47161Y368883D01*
X46917Y367972D01*
Y367028D01*
X47161Y366117D01*
X47633Y365300D01*
X48300Y364633D01*
X49117Y364161D01*
X50028Y363917D01*
X50972D01*
X51883Y364161D01*
X52700Y364633D01*
X53367Y365300D01*
X53838Y366117D01*
X54083Y367028D01*
Y367972D01*
X53838Y368883D01*
X53367Y369700D01*
X52700Y370367D01*
X51883Y370838D01*
X50972Y371083D01*
D02*
G37*
G36*
X522911Y361067D02*
X522089D01*
X521329Y360752D01*
X520748Y360171D01*
X520433Y359411D01*
Y358589D01*
X520748Y357829D01*
X521329Y357248D01*
X522089Y356933D01*
X522911D01*
X523671Y357248D01*
X524252Y357829D01*
X524567Y358589D01*
Y359411D01*
X524252Y360171D01*
X523671Y360752D01*
X522911Y361067D01*
D02*
G37*
G36*
X50972Y361083D02*
X50028D01*
X49117Y360839D01*
X48300Y360367D01*
X47633Y359700D01*
X47161Y358883D01*
X46917Y357972D01*
Y357028D01*
X47161Y356117D01*
X47633Y355300D01*
X48300Y354633D01*
X49117Y354162D01*
X50028Y353917D01*
X50972D01*
X51883Y354162D01*
X52700Y354633D01*
X53367Y355300D01*
X53838Y356117D01*
X54083Y357028D01*
Y357972D01*
X53838Y358883D01*
X53367Y359700D01*
X52700Y360367D01*
X51883Y360839D01*
X50972Y361083D01*
D02*
G37*
G36*
X512817Y341008D02*
X512269D01*
X511763Y340798D01*
X511375Y340410D01*
X511165Y339904D01*
Y339356D01*
X511375Y338849D01*
X511763Y338462D01*
X512269Y338252D01*
X512817D01*
X513324Y338462D01*
X513712Y338849D01*
X513921Y339356D01*
Y339904D01*
X513712Y340410D01*
X513324Y340798D01*
X512817Y341008D01*
D02*
G37*
G36*
X485774Y340878D02*
X485226D01*
X484719Y340668D01*
X484332Y340281D01*
X484122Y339774D01*
Y339226D01*
X484332Y338720D01*
X484719Y338332D01*
X485226Y338122D01*
X485723D01*
Y337625D01*
X485933Y337119D01*
X486320Y336731D01*
X486827Y336521D01*
X487375D01*
X487881Y336731D01*
X488269Y337119D01*
X488479Y337625D01*
Y338173D01*
X488269Y338680D01*
X487881Y339067D01*
X487375Y339277D01*
X486878D01*
Y339774D01*
X486668Y340281D01*
X486281Y340668D01*
X485774Y340878D01*
D02*
G37*
G36*
X501499Y339827D02*
X500950D01*
X500444Y339617D01*
X500056Y339229D01*
X499847Y338723D01*
Y338175D01*
X500056Y337668D01*
X500130Y337594D01*
X500432Y337268D01*
X500130Y336941D01*
X500056Y336867D01*
X499847Y336361D01*
Y335812D01*
X500056Y335306D01*
X500444Y334918D01*
X500950Y334709D01*
X501499D01*
X502005Y334918D01*
X502393Y335306D01*
X502602Y335812D01*
Y336361D01*
X502393Y336867D01*
X502319Y336941D01*
X502017Y337268D01*
X502319Y337594D01*
X502393Y337668D01*
X502602Y338175D01*
Y338723D01*
X502393Y339229D01*
X502005Y339617D01*
X501499Y339827D01*
D02*
G37*
G36*
X50972Y341083D02*
X50028D01*
X49117Y340839D01*
X48300Y340367D01*
X47633Y339700D01*
X47161Y338883D01*
X46917Y337972D01*
Y337028D01*
X47161Y336117D01*
X47633Y335300D01*
X48300Y334633D01*
X49117Y334161D01*
X50028Y333917D01*
X50972D01*
X51883Y334161D01*
X52700Y334633D01*
X53367Y335300D01*
X53838Y336117D01*
X54083Y337028D01*
Y337972D01*
X53838Y338883D01*
X53367Y339700D01*
X52700Y340367D01*
X51883Y340839D01*
X50972Y341083D01*
D02*
G37*
G36*
X40972D02*
X40028D01*
X39117Y340839D01*
X38300Y340367D01*
X37633Y339700D01*
X37161Y338883D01*
X36917Y337972D01*
Y337028D01*
X37161Y336117D01*
X37633Y335300D01*
X38300Y334633D01*
X39117Y334161D01*
X40028Y333917D01*
X40972D01*
X41883Y334161D01*
X42700Y334633D01*
X43367Y335300D01*
X43839Y336117D01*
X44083Y337028D01*
Y337972D01*
X43839Y338883D01*
X43367Y339700D01*
X42700Y340367D01*
X41883Y340839D01*
X40972Y341083D01*
D02*
G37*
G36*
X479216Y334436D02*
X478667D01*
X478161Y334227D01*
X477773Y333839D01*
X477564Y333332D01*
Y332784D01*
X477773Y332278D01*
X478161Y331890D01*
X478667Y331680D01*
X479216D01*
X479722Y331890D01*
X479729Y331897D01*
X480427Y331888D01*
X480483Y331832D01*
X480990Y331622D01*
X481538D01*
X482044Y331832D01*
X482432Y332220D01*
X482642Y332726D01*
Y333274D01*
X482432Y333781D01*
X482044Y334168D01*
X481538Y334378D01*
X480990D01*
X480483Y334168D01*
X480476Y334161D01*
X479778Y334170D01*
X479722Y334227D01*
X479216Y334436D01*
D02*
G37*
G36*
X512817Y336283D02*
X512269D01*
X511763Y336074D01*
X511375Y335686D01*
X511165Y335180D01*
Y334631D01*
X511375Y334125D01*
X511449Y334051D01*
X511751Y333724D01*
X511449Y333398D01*
X511375Y333324D01*
X511165Y332817D01*
Y332269D01*
X511375Y331763D01*
X511763Y331375D01*
X512269Y331165D01*
X512817D01*
X513324Y331375D01*
X513712Y331763D01*
X513921Y332269D01*
Y332817D01*
X513712Y333324D01*
X513638Y333398D01*
X513336Y333724D01*
X513638Y334051D01*
X513712Y334125D01*
X513921Y334631D01*
Y335180D01*
X513712Y335686D01*
X513324Y336074D01*
X512817Y336283D01*
D02*
G37*
G36*
X501499Y332740D02*
X500950D01*
X500444Y332530D01*
X500056Y332143D01*
X499847Y331636D01*
Y331088D01*
X500056Y330582D01*
X500130Y330508D01*
X500432Y330181D01*
X500130Y329854D01*
X500056Y329781D01*
X499847Y329274D01*
Y328726D01*
X500056Y328219D01*
X500444Y327832D01*
X500950Y327622D01*
X501499D01*
X502005Y327832D01*
X502393Y328219D01*
X502602Y328726D01*
Y329274D01*
X502393Y329781D01*
X502319Y329854D01*
X502017Y330181D01*
X502319Y330508D01*
X502393Y330582D01*
X502602Y331088D01*
Y331636D01*
X502393Y332143D01*
X502005Y332530D01*
X501499Y332740D01*
D02*
G37*
G36*
X494274Y329378D02*
X493726D01*
X493219Y329168D01*
X492832Y328781D01*
X492622Y328274D01*
Y327726D01*
X492832Y327220D01*
X493219Y326832D01*
X493726Y326622D01*
X494274D01*
X494337Y326580D01*
Y326142D01*
X494547Y325636D01*
X494935Y325248D01*
X495441Y325038D01*
X495989D01*
X496496Y325248D01*
X496883Y325636D01*
X497093Y326142D01*
Y326690D01*
X496883Y327197D01*
X496496Y327584D01*
X495989Y327794D01*
X495441D01*
X495378Y327836D01*
Y328274D01*
X495168Y328781D01*
X494781Y329168D01*
X494274Y329378D01*
D02*
G37*
G36*
X512817Y329197D02*
X512269D01*
X511763Y328987D01*
X511375Y328599D01*
X511165Y328093D01*
Y327545D01*
X511375Y327038D01*
X511449Y326964D01*
X511751Y326638D01*
X511449Y326311D01*
X511375Y326237D01*
X511165Y325731D01*
Y325183D01*
X511375Y324676D01*
X511763Y324289D01*
X512269Y324079D01*
X512817D01*
X513324Y324289D01*
X513712Y324676D01*
X513921Y325183D01*
Y325731D01*
X513712Y326237D01*
X513638Y326311D01*
X513336Y326638D01*
X513638Y326964D01*
X513712Y327038D01*
X513921Y327545D01*
Y328093D01*
X513712Y328599D01*
X513324Y328987D01*
X512817Y329197D01*
D02*
G37*
G36*
X50972Y331083D02*
X50028D01*
X49117Y330838D01*
X48300Y330367D01*
X47633Y329700D01*
X47161Y328883D01*
X46917Y327972D01*
Y327028D01*
X47161Y326117D01*
X47633Y325300D01*
X48300Y324633D01*
X49117Y324162D01*
X50028Y323917D01*
X50972D01*
X51883Y324162D01*
X52700Y324633D01*
X53367Y325300D01*
X53838Y326117D01*
X54083Y327028D01*
Y327972D01*
X53838Y328883D01*
X53367Y329700D01*
X52700Y330367D01*
X51883Y330838D01*
X50972Y331083D01*
D02*
G37*
G36*
X40972D02*
X40028D01*
X39117Y330838D01*
X38300Y330367D01*
X37633Y329700D01*
X37161Y328883D01*
X36917Y327972D01*
Y327028D01*
X37161Y326117D01*
X37633Y325300D01*
X38300Y324633D01*
X39117Y324162D01*
X40028Y323917D01*
X40972D01*
X41883Y324162D01*
X42700Y324633D01*
X43367Y325300D01*
X43839Y326117D01*
X44083Y327028D01*
Y327972D01*
X43839Y328883D01*
X43367Y329700D01*
X42700Y330367D01*
X41883Y330838D01*
X40972Y331083D01*
D02*
G37*
G36*
X486173Y327979D02*
X485625D01*
X485119Y327769D01*
X484731Y327381D01*
X484521Y326875D01*
Y326327D01*
X484731Y325820D01*
X485119Y325433D01*
X485625Y325223D01*
X486122D01*
Y324726D01*
X486332Y324219D01*
X486719Y323832D01*
X487226Y323622D01*
X487774D01*
X488281Y323832D01*
X488668Y324219D01*
X488878Y324726D01*
Y325274D01*
X488668Y325781D01*
X488281Y326168D01*
X487774Y326378D01*
X487277D01*
Y326875D01*
X487067Y327381D01*
X486680Y327769D01*
X486173Y327979D01*
D02*
G37*
G36*
X501499Y325654D02*
X500950D01*
X500444Y325444D01*
X500056Y325056D01*
X499847Y324550D01*
Y324002D01*
X500056Y323495D01*
X500444Y323107D01*
X500950Y322898D01*
X501499D01*
X502005Y323107D01*
X502393Y323495D01*
X502602Y324002D01*
Y324550D01*
X502393Y325056D01*
X502005Y325444D01*
X501499Y325654D01*
D02*
G37*
G36*
X495527Y321486D02*
X494978D01*
X494472Y321276D01*
X494084Y320889D01*
X493874Y320382D01*
Y319834D01*
X494084Y319328D01*
X494472Y318940D01*
X494978Y318730D01*
X495475D01*
Y318233D01*
X495685Y317727D01*
X496073Y317339D01*
X496579Y317130D01*
X497127D01*
X497634Y317339D01*
X498021Y317727D01*
X498231Y318233D01*
Y318782D01*
X498021Y319288D01*
X497634Y319676D01*
X497127Y319886D01*
X496630D01*
Y320382D01*
X496421Y320889D01*
X496033Y321276D01*
X495527Y321486D01*
D02*
G37*
G36*
X50972Y321083D02*
X50028D01*
X49117Y320838D01*
X48300Y320367D01*
X47633Y319700D01*
X47161Y318883D01*
X46917Y317972D01*
Y317028D01*
X47161Y316117D01*
X47633Y315300D01*
X48300Y314633D01*
X49117Y314161D01*
X50028Y313917D01*
X50972D01*
X51883Y314161D01*
X52700Y314633D01*
X53367Y315300D01*
X53838Y316117D01*
X54083Y317028D01*
Y317972D01*
X53838Y318883D01*
X53367Y319700D01*
X52700Y320367D01*
X51883Y320838D01*
X50972Y321083D01*
D02*
G37*
G36*
X40972D02*
X40028D01*
X39117Y320838D01*
X38300Y320367D01*
X37633Y319700D01*
X37161Y318883D01*
X36917Y317972D01*
Y317028D01*
X37161Y316117D01*
X37633Y315300D01*
X38300Y314633D01*
X39117Y314161D01*
X40028Y313917D01*
X40972D01*
X41883Y314161D01*
X42700Y314633D01*
X43367Y315300D01*
X43839Y316117D01*
X44083Y317028D01*
Y317972D01*
X43839Y318883D01*
X43367Y319700D01*
X42700Y320367D01*
X41883Y320838D01*
X40972Y321083D01*
D02*
G37*
G36*
X464274Y307878D02*
X463726D01*
X463219Y307668D01*
X462832Y307280D01*
X462622Y306774D01*
Y306226D01*
X462832Y305719D01*
X463219Y305332D01*
X463726Y305122D01*
X464274D01*
X464781Y305332D01*
X465168Y305719D01*
X465378Y306226D01*
Y306774D01*
X465168Y307280D01*
X464781Y307668D01*
X464274Y307878D01*
D02*
G37*
G36*
X50972Y311083D02*
X50028D01*
X49117Y310839D01*
X48300Y310367D01*
X47633Y309700D01*
X47161Y308883D01*
X46917Y307972D01*
Y307028D01*
X47161Y306117D01*
X47633Y305300D01*
X48300Y304633D01*
X49117Y304162D01*
X50028Y303917D01*
X50972D01*
X51883Y304162D01*
X52700Y304633D01*
X53367Y305300D01*
X53838Y306117D01*
X54083Y307028D01*
Y307972D01*
X53838Y308883D01*
X53367Y309700D01*
X52700Y310367D01*
X51883Y310839D01*
X50972Y311083D01*
D02*
G37*
G36*
X40972D02*
X40028D01*
X39117Y310839D01*
X38300Y310367D01*
X37633Y309700D01*
X37161Y308883D01*
X36917Y307972D01*
Y307028D01*
X37161Y306117D01*
X37633Y305300D01*
X38300Y304633D01*
X39117Y304162D01*
X40028Y303917D01*
X40972D01*
X41883Y304162D01*
X42700Y304633D01*
X43367Y305300D01*
X43839Y306117D01*
X44083Y307028D01*
Y307972D01*
X43839Y308883D01*
X43367Y309700D01*
X42700Y310367D01*
X41883Y310839D01*
X40972Y311083D01*
D02*
G37*
G36*
X50972Y301083D02*
X50028D01*
X49117Y300838D01*
X48300Y300367D01*
X47633Y299700D01*
X47161Y298883D01*
X46917Y297972D01*
Y297028D01*
X47161Y296117D01*
X47633Y295300D01*
X48300Y294633D01*
X49117Y294162D01*
X50028Y293917D01*
X50972D01*
X51883Y294162D01*
X52700Y294633D01*
X53367Y295300D01*
X53838Y296117D01*
X54083Y297028D01*
Y297972D01*
X53838Y298883D01*
X53367Y299700D01*
X52700Y300367D01*
X51883Y300838D01*
X50972Y301083D01*
D02*
G37*
G36*
X40972D02*
X40028D01*
X39117Y300838D01*
X38300Y300367D01*
X37633Y299700D01*
X37161Y298883D01*
X36917Y297972D01*
Y297028D01*
X37161Y296117D01*
X37633Y295300D01*
X38300Y294633D01*
X39117Y294162D01*
X40028Y293917D01*
X40972D01*
X41883Y294162D01*
X42700Y294633D01*
X43367Y295300D01*
X43839Y296117D01*
X44083Y297028D01*
Y297972D01*
X43839Y298883D01*
X43367Y299700D01*
X42700Y300367D01*
X41883Y300838D01*
X40972Y301083D01*
D02*
G37*
G36*
X50972Y291083D02*
X50028D01*
X49117Y290839D01*
X48300Y290367D01*
X47633Y289700D01*
X47161Y288883D01*
X46917Y287972D01*
Y287028D01*
X47161Y286117D01*
X47633Y285300D01*
X48300Y284633D01*
X49117Y284161D01*
X50028Y283917D01*
X50972D01*
X51883Y284161D01*
X52700Y284633D01*
X53367Y285300D01*
X53838Y286117D01*
X54083Y287028D01*
Y287972D01*
X53838Y288883D01*
X53367Y289700D01*
X52700Y290367D01*
X51883Y290839D01*
X50972Y291083D01*
D02*
G37*
G36*
X40972D02*
X40028D01*
X39117Y290839D01*
X38300Y290367D01*
X37633Y289700D01*
X37161Y288883D01*
X36917Y287972D01*
Y287028D01*
X37161Y286117D01*
X37633Y285300D01*
X38300Y284633D01*
X39117Y284161D01*
X40028Y283917D01*
X40972D01*
X41883Y284161D01*
X42700Y284633D01*
X43367Y285300D01*
X43839Y286117D01*
X44083Y287028D01*
Y287972D01*
X43839Y288883D01*
X43367Y289700D01*
X42700Y290367D01*
X41883Y290839D01*
X40972Y291083D01*
D02*
G37*
G36*
X524911Y291067D02*
X524089D01*
X523329Y290752D01*
X522748Y290171D01*
X522433Y289411D01*
Y288589D01*
X522748Y287829D01*
X523297Y287280D01*
X523314Y287000D01*
X523297Y286720D01*
X522748Y286171D01*
X522433Y285411D01*
Y284589D01*
X522748Y283829D01*
X523329Y283248D01*
X524089Y282933D01*
X524911D01*
X525671Y283248D01*
X526252Y283829D01*
X526567Y284589D01*
Y285411D01*
X526252Y286171D01*
X525703Y286720D01*
X525686Y287000D01*
X525703Y287280D01*
X526252Y287829D01*
X526567Y288589D01*
Y289411D01*
X526252Y290171D01*
X525671Y290752D01*
X524911Y291067D01*
D02*
G37*
G36*
X501411D02*
X500589D01*
X499829Y290752D01*
X499248Y290171D01*
X498933Y289411D01*
Y288589D01*
X499248Y287829D01*
X499797Y287280D01*
X499814Y287000D01*
X499797Y286720D01*
X499248Y286171D01*
X498933Y285411D01*
Y284589D01*
X499248Y283829D01*
X499829Y283248D01*
X500589Y282933D01*
X501411D01*
X502171Y283248D01*
X502752Y283829D01*
X503067Y284589D01*
Y285411D01*
X502752Y286171D01*
X502203Y286720D01*
X502186Y287000D01*
X502203Y287280D01*
X502752Y287829D01*
X503067Y288589D01*
Y289411D01*
X502752Y290171D01*
X502171Y290752D01*
X501411Y291067D01*
D02*
G37*
G36*
X50972Y281083D02*
X50028D01*
X49117Y280838D01*
X48300Y280367D01*
X47633Y279700D01*
X47161Y278883D01*
X46917Y277972D01*
Y277028D01*
X47161Y276117D01*
X47633Y275300D01*
X48300Y274633D01*
X49117Y274162D01*
X50028Y273917D01*
X50972D01*
X51883Y274162D01*
X52700Y274633D01*
X53367Y275300D01*
X53838Y276117D01*
X54083Y277028D01*
Y277972D01*
X53838Y278883D01*
X53367Y279700D01*
X52700Y280367D01*
X51883Y280838D01*
X50972Y281083D01*
D02*
G37*
G36*
X40972D02*
X40028D01*
X39117Y280838D01*
X38300Y280367D01*
X37633Y279700D01*
X37161Y278883D01*
X36917Y277972D01*
Y277028D01*
X37161Y276117D01*
X37633Y275300D01*
X38300Y274633D01*
X39117Y274162D01*
X40028Y273917D01*
X40972D01*
X41883Y274162D01*
X42700Y274633D01*
X43367Y275300D01*
X43839Y276117D01*
X44083Y277028D01*
Y277972D01*
X43839Y278883D01*
X43367Y279700D01*
X42700Y280367D01*
X41883Y280838D01*
X40972Y281083D01*
D02*
G37*
G36*
X50972Y271083D02*
X50028D01*
X49117Y270838D01*
X48300Y270367D01*
X47633Y269700D01*
X47161Y268883D01*
X46917Y267972D01*
Y267028D01*
X47161Y266117D01*
X47633Y265300D01*
X48300Y264633D01*
X49117Y264161D01*
X50028Y263917D01*
X50972D01*
X51883Y264161D01*
X52700Y264633D01*
X53367Y265300D01*
X53838Y266117D01*
X54083Y267028D01*
Y267972D01*
X53838Y268883D01*
X53367Y269700D01*
X52700Y270367D01*
X51883Y270838D01*
X50972Y271083D01*
D02*
G37*
G36*
X40972D02*
X40028D01*
X39117Y270838D01*
X38300Y270367D01*
X37633Y269700D01*
X37161Y268883D01*
X36917Y267972D01*
Y267028D01*
X37161Y266117D01*
X37633Y265300D01*
X38300Y264633D01*
X39117Y264161D01*
X40028Y263917D01*
X40972D01*
X41883Y264161D01*
X42700Y264633D01*
X43367Y265300D01*
X43839Y266117D01*
X44083Y267028D01*
Y267972D01*
X43839Y268883D01*
X43367Y269700D01*
X42700Y270367D01*
X41883Y270838D01*
X40972Y271083D01*
D02*
G37*
G36*
X50972Y261083D02*
X50028D01*
X49117Y260839D01*
X48300Y260367D01*
X47633Y259700D01*
X47161Y258883D01*
X46917Y257972D01*
Y257028D01*
X47161Y256117D01*
X47633Y255300D01*
X48300Y254633D01*
X49117Y254162D01*
X50028Y253917D01*
X50972D01*
X51883Y254162D01*
X52700Y254633D01*
X53367Y255300D01*
X53838Y256117D01*
X54083Y257028D01*
Y257972D01*
X53838Y258883D01*
X53367Y259700D01*
X52700Y260367D01*
X51883Y260839D01*
X50972Y261083D01*
D02*
G37*
G36*
X40972D02*
X40028D01*
X39117Y260839D01*
X38300Y260367D01*
X37633Y259700D01*
X37161Y258883D01*
X36917Y257972D01*
Y257028D01*
X37161Y256117D01*
X37633Y255300D01*
X38300Y254633D01*
X39117Y254162D01*
X40028Y253917D01*
X40972D01*
X41883Y254162D01*
X42700Y254633D01*
X43367Y255300D01*
X43839Y256117D01*
X44083Y257028D01*
Y257972D01*
X43839Y258883D01*
X43367Y259700D01*
X42700Y260367D01*
X41883Y260839D01*
X40972Y261083D01*
D02*
G37*
G36*
X452234Y252890D02*
X451412D01*
X450652Y252575D01*
X450071Y251994D01*
X449756Y251234D01*
Y250412D01*
X450071Y249652D01*
X450652Y249071D01*
X451412Y248756D01*
X452234D01*
X452994Y249071D01*
X453575Y249652D01*
X453890Y250412D01*
Y251234D01*
X453575Y251994D01*
X452994Y252575D01*
X452234Y252890D01*
D02*
G37*
G36*
X50972Y251083D02*
X50028D01*
X49117Y250838D01*
X48300Y250367D01*
X47633Y249700D01*
X47161Y248883D01*
X46917Y247972D01*
Y247028D01*
X47161Y246117D01*
X47633Y245300D01*
X48300Y244633D01*
X49117Y244162D01*
X50028Y243917D01*
X50972D01*
X51883Y244162D01*
X52700Y244633D01*
X53367Y245300D01*
X53838Y246117D01*
X54083Y247028D01*
Y247972D01*
X53838Y248883D01*
X53367Y249700D01*
X52700Y250367D01*
X51883Y250838D01*
X50972Y251083D01*
D02*
G37*
G36*
X40972D02*
X40028D01*
X39117Y250838D01*
X38300Y250367D01*
X37633Y249700D01*
X37161Y248883D01*
X36917Y247972D01*
Y247028D01*
X37161Y246117D01*
X37633Y245300D01*
X38300Y244633D01*
X39117Y244162D01*
X40028Y243917D01*
X40972D01*
X41883Y244162D01*
X42700Y244633D01*
X43367Y245300D01*
X43839Y246117D01*
X44083Y247028D01*
Y247972D01*
X43839Y248883D01*
X43367Y249700D01*
X42700Y250367D01*
X41883Y250838D01*
X40972Y251083D01*
D02*
G37*
G36*
X50972Y241083D02*
X50028D01*
X49117Y240839D01*
X48300Y240367D01*
X47633Y239700D01*
X47161Y238883D01*
X46917Y237972D01*
Y237028D01*
X47161Y236117D01*
X47633Y235300D01*
X48300Y234633D01*
X49117Y234161D01*
X50028Y233917D01*
X50972D01*
X51883Y234161D01*
X52700Y234633D01*
X53367Y235300D01*
X53838Y236117D01*
X54083Y237028D01*
Y237972D01*
X53838Y238883D01*
X53367Y239700D01*
X52700Y240367D01*
X51883Y240839D01*
X50972Y241083D01*
D02*
G37*
G36*
X40972D02*
X40028D01*
X39117Y240839D01*
X38300Y240367D01*
X37633Y239700D01*
X37161Y238883D01*
X36917Y237972D01*
Y237028D01*
X37161Y236117D01*
X37633Y235300D01*
X38300Y234633D01*
X39117Y234161D01*
X40028Y233917D01*
X40972D01*
X41883Y234161D01*
X42700Y234633D01*
X43367Y235300D01*
X43839Y236117D01*
X44083Y237028D01*
Y237972D01*
X43839Y238883D01*
X43367Y239700D01*
X42700Y240367D01*
X41883Y240839D01*
X40972Y241083D01*
D02*
G37*
G36*
X50972Y231083D02*
X50028D01*
X49117Y230838D01*
X48300Y230367D01*
X47633Y229700D01*
X47161Y228883D01*
X46917Y227972D01*
Y227028D01*
X47161Y226117D01*
X47633Y225300D01*
X48300Y224633D01*
X49117Y224162D01*
X50028Y223917D01*
X50972D01*
X51883Y224162D01*
X52700Y224633D01*
X53367Y225300D01*
X53838Y226117D01*
X54083Y227028D01*
Y227972D01*
X53838Y228883D01*
X53367Y229700D01*
X52700Y230367D01*
X51883Y230838D01*
X50972Y231083D01*
D02*
G37*
G36*
X40972D02*
X40028D01*
X39117Y230838D01*
X38300Y230367D01*
X37633Y229700D01*
X37161Y228883D01*
X36917Y227972D01*
Y227028D01*
X37161Y226117D01*
X37633Y225300D01*
X38300Y224633D01*
X39117Y224162D01*
X40028Y223917D01*
X40972D01*
X41883Y224162D01*
X42700Y224633D01*
X43367Y225300D01*
X43839Y226117D01*
X44083Y227028D01*
Y227972D01*
X43839Y228883D01*
X43367Y229700D01*
X42700Y230367D01*
X41883Y230838D01*
X40972Y231083D01*
D02*
G37*
G36*
X452360Y225987D02*
X451538D01*
X450778Y225672D01*
X450197Y225091D01*
X449882Y224331D01*
Y223509D01*
X450197Y222749D01*
X450778Y222167D01*
X451538Y221853D01*
X452360D01*
X453120Y222167D01*
X453701Y222749D01*
X454016Y223509D01*
Y224331D01*
X453701Y225091D01*
X453120Y225672D01*
X452360Y225987D01*
D02*
G37*
G36*
X50972Y221083D02*
X50028D01*
X49117Y220838D01*
X48300Y220367D01*
X47633Y219700D01*
X47161Y218883D01*
X46917Y217972D01*
Y217028D01*
X47161Y216117D01*
X47633Y215300D01*
X48300Y214633D01*
X49117Y214161D01*
X50028Y213917D01*
X50972D01*
X51883Y214161D01*
X52700Y214633D01*
X53367Y215300D01*
X53838Y216117D01*
X54083Y217028D01*
Y217972D01*
X53838Y218883D01*
X53367Y219700D01*
X52700Y220367D01*
X51883Y220838D01*
X50972Y221083D01*
D02*
G37*
G36*
X40972D02*
X40028D01*
X39117Y220838D01*
X38300Y220367D01*
X37633Y219700D01*
X37161Y218883D01*
X36917Y217972D01*
Y217028D01*
X37161Y216117D01*
X37633Y215300D01*
X38300Y214633D01*
X39117Y214161D01*
X40028Y213917D01*
X40972D01*
X41883Y214161D01*
X42700Y214633D01*
X43367Y215300D01*
X43839Y216117D01*
X44083Y217028D01*
Y217972D01*
X43839Y218883D01*
X43367Y219700D01*
X42700Y220367D01*
X41883Y220838D01*
X40972Y221083D01*
D02*
G37*
G36*
X175411Y204567D02*
X174589D01*
X173829Y204252D01*
X173248Y203671D01*
X172933Y202911D01*
Y202089D01*
X173248Y201329D01*
X173829Y200748D01*
X174589Y200433D01*
X175411D01*
X176171Y200748D01*
X176752Y201329D01*
X177067Y202089D01*
Y202911D01*
X176752Y203671D01*
X176171Y204252D01*
X175411Y204567D01*
D02*
G37*
G36*
X168911D02*
X168089D01*
X167329Y204252D01*
X166748Y203671D01*
X166433Y202911D01*
Y202089D01*
X166748Y201329D01*
X167329Y200748D01*
X168089Y200433D01*
X168911D01*
X169671Y200748D01*
X170252Y201329D01*
X170567Y202089D01*
Y202911D01*
X170252Y203671D01*
X169671Y204252D01*
X168911Y204567D01*
D02*
G37*
G36*
X162911D02*
X162089D01*
X161329Y204252D01*
X160748Y203671D01*
X160433Y202911D01*
Y202089D01*
X160748Y201329D01*
X161329Y200748D01*
X162089Y200433D01*
X162911D01*
X163671Y200748D01*
X164252Y201329D01*
X164567Y202089D01*
Y202911D01*
X164252Y203671D01*
X163671Y204252D01*
X162911Y204567D01*
D02*
G37*
G36*
X384738Y203394D02*
X383916D01*
X383156Y203079D01*
X382575Y202498D01*
X382260Y201738D01*
Y200916D01*
X382575Y200156D01*
X383156Y199574D01*
X383916Y199260D01*
X384738D01*
X385498Y199574D01*
X386079Y200156D01*
X386394Y200916D01*
Y201738D01*
X386079Y202498D01*
X385498Y203079D01*
X384738Y203394D01*
D02*
G37*
G36*
X452360Y197720D02*
X451538D01*
X450778Y197406D01*
X450197Y196824D01*
X449882Y196064D01*
Y195242D01*
X450197Y194482D01*
X450778Y193901D01*
X451538Y193586D01*
X452360D01*
X453120Y193901D01*
X453701Y194482D01*
X454016Y195242D01*
Y196064D01*
X453701Y196824D01*
X453120Y197406D01*
X452360Y197720D01*
D02*
G37*
G36*
X410265Y180278D02*
X409570D01*
X408897Y180097D01*
X408295Y179750D01*
X407803Y179258D01*
X407455Y178655D01*
X407275Y177983D01*
Y177288D01*
X407455Y176616D01*
X407803Y176013D01*
X408295Y175521D01*
X408897Y175173D01*
X409570Y174993D01*
X410265D01*
X410937Y175173D01*
X411540Y175521D01*
X412032Y176013D01*
X412379Y176616D01*
X412559Y177288D01*
Y177983D01*
X412379Y178655D01*
X412032Y179258D01*
X411540Y179750D01*
X410937Y180097D01*
X410265Y180278D01*
D02*
G37*
G36*
X87562Y181278D02*
X86603D01*
X85677Y181029D01*
X84846Y180550D01*
X84168Y179872D01*
X83689Y179041D01*
X83441Y178115D01*
Y177156D01*
X83689Y176230D01*
X84168Y175399D01*
X84846Y174721D01*
X85677Y174241D01*
X86603Y173993D01*
X87562D01*
X88489Y174241D01*
X89319Y174721D01*
X89997Y175399D01*
X90477Y176230D01*
X90725Y177156D01*
Y178115D01*
X90477Y179041D01*
X89997Y179872D01*
X89319Y180550D01*
X88489Y181029D01*
X87562Y181278D01*
D02*
G37*
G36*
X171774Y173878D02*
X171226D01*
X170720Y173668D01*
X170332Y173281D01*
X170271Y173133D01*
X169729D01*
X169668Y173281D01*
X169281Y173668D01*
X168774Y173878D01*
X168226D01*
X167719Y173668D01*
X167332Y173281D01*
X167122Y172774D01*
Y172480D01*
X166837Y172355D01*
X166622Y172327D01*
X166280Y172668D01*
X165774Y172878D01*
X165226D01*
X164719Y172668D01*
X164332Y172281D01*
X164122Y171774D01*
Y171226D01*
X164332Y170720D01*
X164719Y170332D01*
X165226Y170122D01*
X165774D01*
X166280Y170332D01*
X166668Y170720D01*
X166878Y171226D01*
Y171520D01*
X167163Y171645D01*
X167378Y171673D01*
X167719Y171332D01*
X168226Y171122D01*
X168774D01*
X169281Y171332D01*
X169668Y171720D01*
X169729Y171867D01*
X170271D01*
X170332Y171720D01*
X170720Y171332D01*
X171226Y171122D01*
X171774D01*
X172281Y171332D01*
X172622Y171673D01*
X172837Y171645D01*
X173122Y171520D01*
Y171226D01*
X173332Y170720D01*
X173720Y170332D01*
X174226Y170122D01*
X174774D01*
X175280Y170332D01*
X175668Y170720D01*
X175878Y171226D01*
Y171774D01*
X175668Y172281D01*
X175280Y172668D01*
X174774Y172878D01*
X174226D01*
X173720Y172668D01*
X173378Y172327D01*
X173163Y172355D01*
X172878Y172480D01*
Y172774D01*
X172668Y173281D01*
X172281Y173668D01*
X171774Y173878D01*
D02*
G37*
G36*
X361774D02*
X361226D01*
X360719Y173668D01*
X360332Y173281D01*
X360167Y172883D01*
X359769Y172801D01*
X359637Y172811D01*
X359280Y173168D01*
X358774Y173378D01*
X358226D01*
X357719Y173168D01*
X357529Y172977D01*
X356952Y173064D01*
X356564Y173452D01*
X356058Y173661D01*
X355509D01*
X355003Y173452D01*
X354615Y173064D01*
X354405Y172558D01*
X353906Y172324D01*
X353774Y172378D01*
X353226D01*
X352719Y172168D01*
X352577Y172025D01*
X352250Y171830D01*
X351923Y172025D01*
X351781Y172168D01*
X351274Y172378D01*
X350726D01*
X350219Y172168D01*
X349832Y171781D01*
X349707Y171478D01*
X349165D01*
X349078Y171690D01*
X348690Y172078D01*
X348183Y172287D01*
X347635D01*
X347129Y172078D01*
X346741Y171690D01*
X346532Y171184D01*
Y170635D01*
X346741Y170129D01*
X347129Y169741D01*
X347635Y169532D01*
X348183D01*
X348690Y169741D01*
X349078Y170129D01*
X349203Y170431D01*
X349744D01*
X349832Y170220D01*
X350219Y169832D01*
X350726Y169622D01*
X351274D01*
X351781Y169832D01*
X351923Y169975D01*
X352250Y170170D01*
X352577Y169975D01*
X352719Y169832D01*
X353226Y169622D01*
X353774D01*
X354280Y169832D01*
X354668Y170220D01*
X354878Y170726D01*
X355378Y170960D01*
X355509Y170905D01*
X356058D01*
X356564Y171115D01*
X356755Y171306D01*
X357332Y171219D01*
X357719Y170832D01*
X358226Y170622D01*
X358774D01*
X359280Y170832D01*
X359668Y171220D01*
X359833Y171617D01*
X360231Y171699D01*
X360363Y171689D01*
X360719Y171332D01*
X361226Y171122D01*
X361774D01*
X362281Y171332D01*
X362668Y171720D01*
X362878Y172226D01*
Y172774D01*
X362668Y173281D01*
X362281Y173668D01*
X361774Y173878D01*
D02*
G37*
G36*
X364774Y175378D02*
X364226D01*
X363720Y175168D01*
X363332Y174780D01*
X363122Y174274D01*
Y173726D01*
X363332Y173220D01*
X363720Y172832D01*
X364226Y172622D01*
X364774D01*
X365281Y172832D01*
X365668Y173220D01*
X365878Y173726D01*
Y174274D01*
X365668Y174780D01*
X365281Y175168D01*
X364774Y175378D01*
D02*
G37*
G36*
X339274Y172378D02*
X338726D01*
X338219Y172168D01*
X337832Y171781D01*
X337799Y171702D01*
X337267Y171682D01*
X336879Y172070D01*
X336372Y172280D01*
X335824D01*
X335318Y172070D01*
X334930Y171682D01*
X334720Y171176D01*
Y170627D01*
X334930Y170121D01*
X335318Y169733D01*
X335824Y169524D01*
X336372D01*
X336879Y169733D01*
X337267Y170121D01*
X337299Y170199D01*
X337832Y170219D01*
X338219Y169832D01*
X338726Y169622D01*
X339274D01*
X339780Y169832D01*
X340168Y170220D01*
X340378Y170726D01*
Y171274D01*
X340168Y171781D01*
X339780Y172168D01*
X339274Y172378D01*
D02*
G37*
G36*
X322593Y177697D02*
X322045D01*
X321538Y177487D01*
X321151Y177100D01*
X320941Y176593D01*
Y176045D01*
X320994Y175916D01*
X320624Y175528D01*
X320076D01*
X319570Y175318D01*
X319182Y174930D01*
X318972Y174424D01*
Y173875D01*
X318904Y173793D01*
X318588Y173496D01*
X318108D01*
X317601Y173286D01*
X317214Y172899D01*
X317004Y172392D01*
Y171844D01*
X317214Y171338D01*
X317601Y170950D01*
X318108Y170740D01*
X318656D01*
X319162Y170950D01*
X319550Y171338D01*
X319760Y171844D01*
Y172392D01*
X319829Y172475D01*
X320144Y172772D01*
X320624D01*
X321131Y172981D01*
X321519Y173369D01*
X321728Y173875D01*
Y174424D01*
X321675Y174553D01*
X322045Y174941D01*
X322593D01*
X323099Y175151D01*
X323487Y175538D01*
X323697Y176045D01*
Y176593D01*
X323487Y177100D01*
X323099Y177487D01*
X322593Y177697D01*
D02*
G37*
G36*
X157239Y172343D02*
X156691D01*
X156184Y172133D01*
X155796Y171745D01*
X155587Y171239D01*
Y170691D01*
X155796Y170184D01*
X156184Y169796D01*
X156691Y169587D01*
X157239D01*
X157745Y169796D01*
X158133Y170184D01*
X158343Y170691D01*
Y171239D01*
X158133Y171745D01*
X157745Y172133D01*
X157239Y172343D01*
D02*
G37*
G36*
X517829Y164567D02*
X517007D01*
X516248Y164252D01*
X515666Y163671D01*
X515351Y162911D01*
Y162089D01*
X515666Y161329D01*
X516248Y160748D01*
X517007Y160433D01*
X517829D01*
X518589Y160748D01*
X519171Y161329D01*
X519485Y162089D01*
Y162911D01*
X519171Y163671D01*
X518589Y164252D01*
X517829Y164567D01*
D02*
G37*
G36*
X139522Y155626D02*
X138974D01*
X138468Y155416D01*
X138080Y155029D01*
X137870Y154522D01*
Y153974D01*
X138080Y153468D01*
X138468Y153080D01*
X138974Y152870D01*
X139522D01*
X140029Y153080D01*
X140416Y153468D01*
X140626Y153974D01*
Y154522D01*
X140416Y155029D01*
X140029Y155416D01*
X139522Y155626D01*
D02*
G37*
G36*
X133774Y155378D02*
X133226D01*
X132720Y155168D01*
X132332Y154780D01*
X132122Y154274D01*
Y153726D01*
X132332Y153219D01*
X132720Y152832D01*
X133226Y152622D01*
X133774D01*
X134281Y152832D01*
X134668Y153219D01*
X134878Y153726D01*
Y154274D01*
X134668Y154780D01*
X134281Y155168D01*
X133774Y155378D01*
D02*
G37*
G36*
X401411Y155067D02*
X400589D01*
X399829Y154752D01*
X399248Y154171D01*
X398933Y153411D01*
Y152589D01*
X399248Y151829D01*
X399797Y151280D01*
X399814Y151000D01*
X399797Y150720D01*
X399248Y150171D01*
X398933Y149411D01*
Y148589D01*
X399248Y147829D01*
X399829Y147248D01*
X400589Y146933D01*
X401411D01*
X402171Y147248D01*
X402752Y147829D01*
X403067Y148589D01*
Y149411D01*
X402752Y150171D01*
X402203Y150720D01*
X402186Y151000D01*
X402203Y151280D01*
X402752Y151829D01*
X403067Y152589D01*
Y153411D01*
X402752Y154171D01*
X402171Y154752D01*
X401411Y155067D01*
D02*
G37*
G36*
X395911D02*
X395089D01*
X394329Y154752D01*
X393748Y154171D01*
X393433Y153411D01*
Y152589D01*
X393748Y151829D01*
X394297Y151280D01*
X394314Y151000D01*
X394297Y150720D01*
X393748Y150171D01*
X393433Y149411D01*
Y148589D01*
X393748Y147829D01*
X394329Y147248D01*
X395089Y146933D01*
X395911D01*
X396671Y147248D01*
X397252Y147829D01*
X397567Y148589D01*
Y149411D01*
X397252Y150171D01*
X396703Y150720D01*
X396686Y151000D01*
X396703Y151280D01*
X397252Y151829D01*
X397567Y152589D01*
Y153411D01*
X397252Y154171D01*
X396671Y154752D01*
X395911Y155067D01*
D02*
G37*
G36*
X390411D02*
X389589D01*
X388829Y154752D01*
X388248Y154171D01*
X387933Y153411D01*
Y152589D01*
X388248Y151829D01*
X388797Y151280D01*
X388814Y151000D01*
X388797Y150720D01*
X388248Y150171D01*
X387933Y149411D01*
Y148589D01*
X388248Y147829D01*
X388829Y147248D01*
X389589Y146933D01*
X390411D01*
X391171Y147248D01*
X391752Y147829D01*
X392067Y148589D01*
Y149411D01*
X391752Y150171D01*
X391203Y150720D01*
X391186Y151000D01*
X391203Y151280D01*
X391752Y151829D01*
X392067Y152589D01*
Y153411D01*
X391752Y154171D01*
X391171Y154752D01*
X390411Y155067D01*
D02*
G37*
G36*
X499774Y151378D02*
X499226D01*
X498719Y151168D01*
X498332Y150780D01*
X498122Y150274D01*
Y149775D01*
X497937Y149563D01*
X497725Y149378D01*
X497226D01*
X496719Y149168D01*
X496332Y148781D01*
X496122Y148274D01*
Y147726D01*
X496332Y147220D01*
X496719Y146832D01*
X497226Y146622D01*
X497774D01*
X498281Y146832D01*
X498668Y147220D01*
X498878Y147726D01*
Y148225D01*
X499063Y148437D01*
X499275Y148622D01*
X499774D01*
X500281Y148832D01*
X500668Y149220D01*
X500878Y149726D01*
Y150274D01*
X500668Y150780D01*
X500281Y151168D01*
X499774Y151378D01*
D02*
G37*
G36*
X223691Y145295D02*
X223143D01*
X222637Y145085D01*
X222249Y144698D01*
X222039Y144191D01*
Y143643D01*
X221625Y143336D01*
X221219Y143168D01*
X220832Y142780D01*
X220622Y142274D01*
Y141726D01*
X220832Y141219D01*
X221219Y140832D01*
X221726Y140622D01*
X222274D01*
X222780Y140832D01*
X223168Y141219D01*
X223378Y141726D01*
Y142274D01*
X223792Y142581D01*
X224198Y142749D01*
X224585Y143137D01*
X224795Y143643D01*
Y144191D01*
X224585Y144698D01*
X224198Y145085D01*
X223691Y145295D01*
D02*
G37*
G36*
X484829Y140567D02*
X484007D01*
X483248Y140252D01*
X482666Y139671D01*
X482351Y138911D01*
Y138089D01*
X482666Y137329D01*
X483248Y136748D01*
X484007Y136433D01*
X484829D01*
X485589Y136748D01*
X486171Y137329D01*
X486485Y138089D01*
Y138911D01*
X486171Y139671D01*
X485589Y140252D01*
X484829Y140567D01*
D02*
G37*
G36*
X188034Y137382D02*
X187212D01*
X186452Y137068D01*
X185871Y136486D01*
X185556Y135727D01*
Y134904D01*
X185871Y134145D01*
X186452Y133563D01*
X187212Y133249D01*
X188034D01*
X188794Y133563D01*
X189376Y134145D01*
X189690Y134904D01*
Y135727D01*
X189376Y136486D01*
X188794Y137068D01*
X188034Y137382D01*
D02*
G37*
G36*
X179892Y131260D02*
X179344D01*
X178838Y131050D01*
X178450Y130662D01*
X178240Y130156D01*
Y129608D01*
X178450Y129101D01*
X178838Y128714D01*
X179344Y128504D01*
X179892D01*
X180399Y128714D01*
X180786Y129101D01*
X180996Y129608D01*
Y130156D01*
X180786Y130662D01*
X180399Y131050D01*
X179892Y131260D01*
D02*
G37*
G36*
X480774Y129878D02*
X480226D01*
X479719Y129668D01*
X479332Y129280D01*
X479122Y128774D01*
Y128226D01*
X479332Y127719D01*
X479719Y127332D01*
X480226Y127122D01*
X480774D01*
X481281Y127332D01*
X481668Y127719D01*
X481878Y128226D01*
Y128774D01*
X481668Y129280D01*
X481281Y129668D01*
X480774Y129878D01*
D02*
G37*
G36*
X518411Y126567D02*
X517589D01*
X516829Y126252D01*
X516248Y125671D01*
X515933Y124911D01*
Y124089D01*
X516248Y123329D01*
X516829Y122748D01*
X517589Y122433D01*
X518411D01*
X519171Y122748D01*
X519752Y123329D01*
X520067Y124089D01*
Y124911D01*
X519752Y125671D01*
X519171Y126252D01*
X518411Y126567D01*
D02*
G37*
G36*
X512400Y123116D02*
X511852D01*
X511345Y122906D01*
X510957Y122518D01*
X510748Y122012D01*
Y121464D01*
X510957Y120957D01*
X511345Y120570D01*
X511852Y120360D01*
X512400D01*
X512906Y120570D01*
X513294Y120957D01*
X513504Y121464D01*
Y122012D01*
X513294Y122518D01*
X512906Y122906D01*
X512400Y123116D01*
D02*
G37*
G36*
X158274Y121878D02*
X157726D01*
X157220Y121668D01*
X156832Y121281D01*
X156622Y120774D01*
Y120226D01*
X156832Y119720D01*
X157220Y119332D01*
X157726Y119122D01*
X158274D01*
X158781Y119332D01*
X159168Y119720D01*
X159378Y120226D01*
Y120774D01*
X159168Y121281D01*
X158781Y121668D01*
X158274Y121878D01*
D02*
G37*
G36*
X184274Y121378D02*
X183726D01*
X183220Y121168D01*
X182832Y120781D01*
X182622Y120274D01*
Y119726D01*
X182832Y119220D01*
X183220Y118832D01*
X183726Y118622D01*
X184274D01*
X184781Y118832D01*
X185168Y119220D01*
X185378Y119726D01*
Y120274D01*
X185168Y120781D01*
X184781Y121168D01*
X184274Y121378D01*
D02*
G37*
G36*
X188274Y119378D02*
X187726D01*
X187220Y119168D01*
X186832Y118781D01*
X186622Y118274D01*
Y117726D01*
X186832Y117219D01*
X187220Y116832D01*
X187726Y116622D01*
X188274D01*
X188780Y116832D01*
X189168Y117219D01*
X189378Y117726D01*
Y118274D01*
X189168Y118781D01*
X188780Y119168D01*
X188274Y119378D01*
D02*
G37*
G36*
X512411Y119067D02*
X511589D01*
X510829Y118752D01*
X510248Y118171D01*
X509933Y117411D01*
Y116589D01*
X510248Y115829D01*
X510829Y115248D01*
X511589Y114933D01*
X512411D01*
X513171Y115248D01*
X513752Y115829D01*
X514067Y116589D01*
Y117411D01*
X513752Y118171D01*
X513171Y118752D01*
X512411Y119067D01*
D02*
G37*
G36*
X190774Y116378D02*
X190226D01*
X189719Y116168D01*
X189332Y115780D01*
X189122Y115274D01*
Y114726D01*
X189332Y114219D01*
X189719Y113832D01*
X190226Y113622D01*
X190774D01*
X191280Y113832D01*
X191668Y114219D01*
X191878Y114726D01*
Y115274D01*
X191668Y115780D01*
X191280Y116168D01*
X190774Y116378D01*
D02*
G37*
G36*
X528411Y112567D02*
X527589D01*
X526829Y112252D01*
X526248Y111671D01*
X525933Y110911D01*
Y110089D01*
X526248Y109329D01*
X526829Y108748D01*
X527589Y108433D01*
X528411D01*
X529171Y108748D01*
X529752Y109329D01*
X530067Y110089D01*
Y110911D01*
X529752Y111671D01*
X529171Y112252D01*
X528411Y112567D01*
D02*
G37*
G36*
X409911Y112067D02*
X409089D01*
X408329Y111752D01*
X407748Y111171D01*
X407433Y110411D01*
Y109589D01*
X407748Y108829D01*
X408329Y108248D01*
X409089Y107933D01*
X409911D01*
X410671Y108248D01*
X411252Y108829D01*
X411567Y109589D01*
Y110411D01*
X411252Y111171D01*
X410671Y111752D01*
X409911Y112067D01*
D02*
G37*
G36*
X171298Y107886D02*
X170749D01*
X170243Y107676D01*
X169855Y107288D01*
X169646Y106782D01*
Y106234D01*
X169855Y105727D01*
X170243Y105340D01*
X170749Y105130D01*
X171298D01*
X171804Y105340D01*
X172192Y105727D01*
X172402Y106234D01*
Y106782D01*
X172192Y107288D01*
X171804Y107676D01*
X171298Y107886D01*
D02*
G37*
G36*
X156411Y107067D02*
X155589D01*
X154829Y106752D01*
X154248Y106171D01*
X153933Y105411D01*
Y104589D01*
X154248Y103829D01*
X154829Y103248D01*
X155589Y102933D01*
X156411D01*
X157171Y103248D01*
X157752Y103829D01*
X158067Y104589D01*
Y105411D01*
X157752Y106171D01*
X157171Y106752D01*
X156411Y107067D01*
D02*
G37*
G36*
X396911Y102567D02*
X396089D01*
X395329Y102252D01*
X394748Y101671D01*
X394433Y100911D01*
Y100089D01*
X394748Y99329D01*
X395329Y98748D01*
X396089Y98433D01*
X396911D01*
X397671Y98748D01*
X398252Y99329D01*
X398567Y100089D01*
Y100911D01*
X398252Y101671D01*
X397671Y102252D01*
X396911Y102567D01*
D02*
G37*
G36*
X85460Y100992D02*
X84540D01*
X83652Y100754D01*
X82856Y100294D01*
X82206Y99644D01*
X81746Y98848D01*
X81508Y97960D01*
Y97040D01*
X81746Y96152D01*
X81789Y96077D01*
X81423Y95710D01*
X81348Y95754D01*
X80460Y95992D01*
X79540D01*
X78652Y95754D01*
X78577Y95710D01*
X78211Y96077D01*
X78254Y96152D01*
X78492Y97040D01*
Y97960D01*
X78254Y98848D01*
X77794Y99644D01*
X77144Y100294D01*
X76348Y100754D01*
X75460Y100992D01*
X74540D01*
X73652Y100754D01*
X72856Y100294D01*
X72206Y99644D01*
X71746Y98848D01*
X71508Y97960D01*
Y97040D01*
X71746Y96152D01*
X71789Y96077D01*
X71424Y95710D01*
X71348Y95754D01*
X70460Y95992D01*
X69540D01*
X68652Y95754D01*
X68577Y95710D01*
X68211Y96077D01*
X68254Y96152D01*
X68492Y97040D01*
Y97960D01*
X68254Y98848D01*
X67794Y99644D01*
X67144Y100294D01*
X66348Y100754D01*
X65460Y100992D01*
X64540D01*
X63652Y100754D01*
X62856Y100294D01*
X62206Y99644D01*
X61746Y98848D01*
X61508Y97960D01*
Y97040D01*
X61746Y96152D01*
X61790Y96077D01*
X61423Y95710D01*
X61348Y95754D01*
X60460Y95992D01*
X59540D01*
X58652Y95754D01*
X58577Y95710D01*
X58210Y96077D01*
X58254Y96152D01*
X58492Y97040D01*
Y97960D01*
X58254Y98848D01*
X57794Y99644D01*
X57144Y100294D01*
X56348Y100754D01*
X55460Y100992D01*
X54540D01*
X53652Y100754D01*
X52856Y100294D01*
X52206Y99644D01*
X51746Y98848D01*
X51508Y97960D01*
Y97040D01*
X51746Y96152D01*
X51789Y96077D01*
X51423Y95710D01*
X51348Y95754D01*
X50460Y95992D01*
X49540D01*
X48652Y95754D01*
X48577Y95711D01*
X48211Y96077D01*
X48254Y96152D01*
X48492Y97040D01*
Y97960D01*
X48254Y98848D01*
X47794Y99644D01*
X47144Y100294D01*
X46348Y100754D01*
X45460Y100992D01*
X44540D01*
X43652Y100754D01*
X42856Y100294D01*
X42206Y99644D01*
X41746Y98848D01*
X41508Y97960D01*
Y97040D01*
X41746Y96152D01*
X42206Y95356D01*
X42856Y94706D01*
X43652Y94246D01*
X44540Y94008D01*
X45460D01*
X46348Y94246D01*
X46423Y94289D01*
X46789Y93923D01*
X46746Y93848D01*
X46508Y92960D01*
Y92040D01*
X46746Y91152D01*
X47206Y90356D01*
X47856Y89706D01*
X48652Y89246D01*
X49540Y89008D01*
X50460D01*
X51348Y89246D01*
X52144Y89706D01*
X52794Y90356D01*
X53254Y91152D01*
X53492Y92040D01*
Y92960D01*
X53254Y93848D01*
X53211Y93923D01*
X53576Y94289D01*
X53652Y94246D01*
X54540Y94008D01*
X55460D01*
X56348Y94246D01*
X56423Y94289D01*
X56789Y93923D01*
X56746Y93848D01*
X56508Y92960D01*
Y92040D01*
X56746Y91152D01*
X57206Y90356D01*
X57856Y89706D01*
X58652Y89246D01*
X59540Y89008D01*
X60460D01*
X61348Y89246D01*
X62144Y89706D01*
X62794Y90356D01*
X63254Y91152D01*
X63492Y92040D01*
Y92960D01*
X63254Y93848D01*
X63210Y93923D01*
X63577Y94289D01*
X63652Y94246D01*
X64540Y94008D01*
X65460D01*
X66348Y94246D01*
X66423Y94289D01*
X66790Y93923D01*
X66746Y93848D01*
X66508Y92960D01*
Y92040D01*
X66746Y91152D01*
X67206Y90356D01*
X67856Y89706D01*
X68652Y89246D01*
X69540Y89008D01*
X70460D01*
X71348Y89246D01*
X72144Y89706D01*
X72794Y90356D01*
X73254Y91152D01*
X73492Y92040D01*
Y92960D01*
X73254Y93848D01*
X73211Y93923D01*
X73576Y94289D01*
X73652Y94246D01*
X74540Y94008D01*
X75460D01*
X76348Y94246D01*
X76423Y94289D01*
X76789Y93923D01*
X76746Y93848D01*
X76508Y92960D01*
Y92040D01*
X76746Y91152D01*
X77206Y90356D01*
X77856Y89706D01*
X78652Y89246D01*
X79540Y89008D01*
X80460D01*
X81348Y89246D01*
X82144Y89706D01*
X82794Y90356D01*
X83254Y91152D01*
X83492Y92040D01*
Y92960D01*
X83254Y93848D01*
X83210Y93923D01*
X83577Y94289D01*
X83652Y94246D01*
X84540Y94008D01*
X85460D01*
X86348Y94246D01*
X86423Y94289D01*
X86790Y93923D01*
X86746Y93848D01*
X86508Y92960D01*
Y92040D01*
X86746Y91152D01*
X87206Y90356D01*
X87856Y89706D01*
X88652Y89246D01*
X89540Y89008D01*
X90460D01*
X91348Y89246D01*
X92144Y89706D01*
X92794Y90356D01*
X93254Y91152D01*
X93492Y92040D01*
Y92960D01*
X93254Y93848D01*
X92794Y94644D01*
X92144Y95294D01*
X91348Y95754D01*
X90460Y95992D01*
X89540D01*
X88652Y95754D01*
X88577Y95710D01*
X88210Y96077D01*
X88254Y96152D01*
X88492Y97040D01*
Y97960D01*
X88254Y98848D01*
X87794Y99644D01*
X87144Y100294D01*
X86348Y100754D01*
X85460Y100992D01*
D02*
G37*
G36*
X125411Y95067D02*
X124589D01*
X123829Y94752D01*
X123248Y94171D01*
X122933Y93411D01*
Y92589D01*
X123248Y91829D01*
X123829Y91248D01*
X124589Y90933D01*
X125411D01*
X126171Y91248D01*
X126752Y91829D01*
X127067Y92589D01*
Y93411D01*
X126752Y94171D01*
X126171Y94752D01*
X125411Y95067D01*
D02*
G37*
G36*
X150817Y93421D02*
X150269D01*
X149763Y93212D01*
X149375Y92824D01*
X149165Y92317D01*
Y91769D01*
X149375Y91263D01*
X149763Y90875D01*
X150269Y90665D01*
X150817D01*
X151324Y90875D01*
X151711Y91263D01*
X151921Y91769D01*
Y92317D01*
X151711Y92824D01*
X151324Y93212D01*
X150817Y93421D01*
D02*
G37*
G36*
X468911Y90567D02*
X468089D01*
X467329Y90252D01*
X466748Y89671D01*
X466433Y88911D01*
Y88089D01*
X466748Y87329D01*
X467329Y86748D01*
X468089Y86433D01*
X468911D01*
X469671Y86748D01*
X470252Y87329D01*
X470567Y88089D01*
Y88911D01*
X470252Y89671D01*
X469671Y90252D01*
X468911Y90567D01*
D02*
G37*
G36*
X461911D02*
X461089D01*
X460329Y90252D01*
X459748Y89671D01*
X459433Y88911D01*
Y88089D01*
X459748Y87329D01*
X460329Y86748D01*
X461089Y86433D01*
X461911D01*
X462671Y86748D01*
X463252Y87329D01*
X463567Y88089D01*
Y88911D01*
X463252Y89671D01*
X462671Y90252D01*
X461911Y90567D01*
D02*
G37*
G36*
X268550Y92626D02*
X267591D01*
X266665Y92378D01*
X265835Y91898D01*
X265157Y91220D01*
X264677Y90390D01*
X264429Y89464D01*
Y88505D01*
X264677Y87579D01*
X265157Y86748D01*
X265835Y86070D01*
X266665Y85591D01*
X267591Y85343D01*
X268550D01*
X269477Y85591D01*
X270307Y86070D01*
X270985Y86748D01*
X271464Y87579D01*
X271713Y88505D01*
Y89464D01*
X271464Y90390D01*
X270985Y91220D01*
X270307Y91898D01*
X269477Y92378D01*
X268550Y92626D01*
D02*
G37*
G36*
X260676D02*
X259717D01*
X258791Y92378D01*
X257961Y91898D01*
X257283Y91220D01*
X256803Y90390D01*
X256555Y89464D01*
Y88505D01*
X256803Y87579D01*
X257283Y86748D01*
X257961Y86070D01*
X258791Y85591D01*
X259717Y85343D01*
X260676D01*
X261602Y85591D01*
X262433Y86070D01*
X263111Y86748D01*
X263590Y87579D01*
X263839Y88505D01*
Y89464D01*
X263590Y90390D01*
X263111Y91220D01*
X262433Y91898D01*
X261602Y92378D01*
X260676Y92626D01*
D02*
G37*
G36*
X250834D02*
X249875D01*
X248949Y92378D01*
X248118Y91898D01*
X247440Y91220D01*
X246961Y90390D01*
X246713Y89464D01*
Y88505D01*
X246961Y87579D01*
X247440Y86748D01*
X248118Y86070D01*
X248949Y85591D01*
X249875Y85343D01*
X250834D01*
X251760Y85591D01*
X252590Y86070D01*
X253268Y86748D01*
X253748Y87579D01*
X253996Y88505D01*
Y89464D01*
X253748Y90390D01*
X253268Y91220D01*
X252590Y91898D01*
X251760Y92378D01*
X250834Y92626D01*
D02*
G37*
G36*
X468911Y85067D02*
X468089D01*
X467329Y84752D01*
X466748Y84171D01*
X466433Y83411D01*
Y82589D01*
X466748Y81829D01*
X467329Y81248D01*
X468089Y80933D01*
X468911D01*
X469671Y81248D01*
X470252Y81829D01*
X470567Y82589D01*
Y83411D01*
X470252Y84171D01*
X469671Y84752D01*
X468911Y85067D01*
D02*
G37*
G36*
X461911D02*
X461089D01*
X460329Y84752D01*
X459748Y84171D01*
X459433Y83411D01*
Y82589D01*
X459748Y81829D01*
X460329Y81248D01*
X461089Y80933D01*
X461911D01*
X462671Y81248D01*
X463252Y81829D01*
X463567Y82589D01*
Y83411D01*
X463252Y84171D01*
X462671Y84752D01*
X461911Y85067D01*
D02*
G37*
G36*
X168277Y83201D02*
X167455D01*
X166695Y82886D01*
X166114Y82305D01*
X165799Y81545D01*
Y80723D01*
X166114Y79963D01*
X166695Y79382D01*
X167455Y79067D01*
X168277D01*
X169037Y79382D01*
X169618Y79963D01*
X169933Y80723D01*
Y81545D01*
X169618Y82305D01*
X169037Y82886D01*
X168277Y83201D01*
D02*
G37*
G36*
X206911Y80567D02*
X206089D01*
X205329Y80252D01*
X204748Y79671D01*
X204433Y78911D01*
Y78089D01*
X204748Y77329D01*
X205329Y76748D01*
X206089Y76433D01*
X206911D01*
X207671Y76748D01*
X208252Y77329D01*
X208567Y78089D01*
Y78911D01*
X208252Y79671D01*
X207671Y80252D01*
X206911Y80567D01*
D02*
G37*
G36*
X150954Y81110D02*
X150132D01*
X149372Y80796D01*
X148791Y80214D01*
X148476Y79454D01*
Y78632D01*
X148791Y77873D01*
X149372Y77291D01*
X150132Y76976D01*
X150954D01*
X151714Y77291D01*
X152296Y77873D01*
X152320Y77932D01*
X152551Y77946D01*
X152841Y77882D01*
X153122Y77203D01*
X153703Y76622D01*
X154463Y76307D01*
X155285D01*
X156045Y76622D01*
X156626Y77203D01*
X156941Y77963D01*
Y78785D01*
X156626Y79545D01*
X156045Y80126D01*
X155285Y80441D01*
X154463D01*
X153703Y80126D01*
X153122Y79545D01*
X153097Y79486D01*
X152866Y79471D01*
X152577Y79536D01*
X152296Y80214D01*
X151714Y80796D01*
X150954Y81110D01*
D02*
G37*
G36*
X223411Y80067D02*
X222589D01*
X221829Y79752D01*
X221248Y79171D01*
X220933Y78411D01*
Y77589D01*
X221248Y76829D01*
X221829Y76248D01*
X222589Y75933D01*
X223411D01*
X224171Y76248D01*
X224752Y76829D01*
X225067Y77589D01*
Y78411D01*
X224752Y79171D01*
X224171Y79752D01*
X223411Y80067D01*
D02*
G37*
G36*
X98973Y83092D02*
X98027D01*
X97114Y82847D01*
X96294Y82374D01*
X95626Y81706D01*
X95153Y80887D01*
X94908Y79973D01*
Y79027D01*
X95153Y78114D01*
X95626Y77294D01*
X96294Y76626D01*
X97114Y76153D01*
X98027Y75908D01*
X98973D01*
X99887Y76153D01*
X100706Y76626D01*
X101374Y77294D01*
X101847Y78114D01*
X102092Y79027D01*
Y79973D01*
X101847Y80887D01*
X101374Y81706D01*
X100706Y82374D01*
X99887Y82847D01*
X98973Y83092D01*
D02*
G37*
G36*
X36973D02*
X36027D01*
X35113Y82847D01*
X34294Y82374D01*
X33626Y81706D01*
X33153Y80887D01*
X32908Y79973D01*
Y79027D01*
X33153Y78114D01*
X33626Y77294D01*
X34294Y76626D01*
X35113Y76153D01*
X36027Y75908D01*
X36973D01*
X37887Y76153D01*
X38706Y76626D01*
X39374Y77294D01*
X39847Y78114D01*
X40092Y79027D01*
Y79973D01*
X39847Y80887D01*
X39374Y81706D01*
X38706Y82374D01*
X37887Y82847D01*
X36973Y83092D01*
D02*
G37*
G36*
X268550Y82311D02*
X267591D01*
X266665Y82063D01*
X265835Y81583D01*
X265157Y80905D01*
X264677Y80075D01*
X264429Y79149D01*
Y78190D01*
X264677Y77264D01*
X265157Y76433D01*
X265835Y75755D01*
X266665Y75276D01*
X267591Y75028D01*
X268550D01*
X269477Y75276D01*
X270307Y75755D01*
X270985Y76433D01*
X271464Y77264D01*
X271713Y78190D01*
Y79149D01*
X271464Y80075D01*
X270985Y80905D01*
X270307Y81583D01*
X269477Y82063D01*
X268550Y82311D01*
D02*
G37*
G36*
X260676D02*
X259717D01*
X258791Y82063D01*
X257961Y81583D01*
X257283Y80905D01*
X256803Y80075D01*
X256555Y79149D01*
Y78190D01*
X256803Y77264D01*
X257283Y76433D01*
X257961Y75755D01*
X258791Y75276D01*
X259717Y75028D01*
X260676D01*
X261602Y75276D01*
X262433Y75755D01*
X263111Y76433D01*
X263590Y77264D01*
X263839Y78190D01*
Y79149D01*
X263590Y80075D01*
X263111Y80905D01*
X262433Y81583D01*
X261602Y82063D01*
X260676Y82311D01*
D02*
G37*
G36*
X250834D02*
X249875D01*
X248949Y82063D01*
X248118Y81583D01*
X247440Y80905D01*
X246961Y80075D01*
X246713Y79149D01*
Y78190D01*
X246961Y77264D01*
X247440Y76433D01*
X248118Y75755D01*
X248949Y75276D01*
X249875Y75028D01*
X250834D01*
X251760Y75276D01*
X252590Y75755D01*
X253268Y76433D01*
X253748Y77264D01*
X253996Y78190D01*
Y79149D01*
X253748Y80075D01*
X253268Y80905D01*
X252590Y81583D01*
X251760Y82063D01*
X250834Y82311D01*
D02*
G37*
G36*
X340870Y80154D02*
X340004D01*
X339168Y79930D01*
X338419Y79497D01*
X337806Y78885D01*
X337374Y78135D01*
X337150Y77299D01*
Y76433D01*
X337374Y75597D01*
X337806Y74848D01*
X338419Y74236D01*
X339168Y73803D01*
X340004Y73579D01*
X340870D01*
X341706Y73803D01*
X342456Y74236D01*
X343068Y74848D01*
X343500Y75597D01*
X343724Y76433D01*
Y77299D01*
X343500Y78135D01*
X343068Y78885D01*
X342456Y79497D01*
X341706Y79930D01*
X340870Y80154D01*
D02*
G37*
G36*
X332996D02*
X332130D01*
X331294Y79930D01*
X330544Y79497D01*
X329932Y78885D01*
X329500Y78135D01*
X329276Y77299D01*
Y76433D01*
X329500Y75597D01*
X329932Y74848D01*
X330544Y74236D01*
X331294Y73803D01*
X332130Y73579D01*
X332996D01*
X333832Y73803D01*
X334581Y74236D01*
X335194Y74848D01*
X335626Y75597D01*
X335850Y76433D01*
Y77299D01*
X335626Y78135D01*
X335194Y78885D01*
X334581Y79497D01*
X333832Y79930D01*
X332996Y80154D01*
D02*
G37*
G36*
X324118Y80191D02*
X321323D01*
X320585Y80044D01*
X319960Y79626D01*
X319543Y79001D01*
X319396Y78264D01*
Y75468D01*
X319543Y74731D01*
X319960Y74106D01*
X320585Y73688D01*
X321323Y73542D01*
X324118D01*
X324855Y73688D01*
X325481Y74106D01*
X325898Y74731D01*
X326045Y75468D01*
Y78264D01*
X325898Y79001D01*
X325481Y79626D01*
X324855Y80044D01*
X324118Y80191D01*
D02*
G37*
G36*
X446411Y72067D02*
X445589D01*
X444829Y71752D01*
X444248Y71171D01*
X444021Y70622D01*
X443479D01*
X443252Y71171D01*
X442671Y71752D01*
X441911Y72067D01*
X441089D01*
X440329Y71752D01*
X439748Y71171D01*
X439433Y70411D01*
Y69589D01*
X439748Y68829D01*
X440329Y68248D01*
X441089Y67933D01*
X441911D01*
X442671Y68248D01*
X443252Y68829D01*
X443479Y69377D01*
X444021D01*
X444248Y68829D01*
X444829Y68248D01*
X445589Y67933D01*
X446411D01*
X447171Y68248D01*
X447752Y68829D01*
X448067Y69589D01*
Y70411D01*
X447752Y71171D01*
X447171Y71752D01*
X446411Y72067D01*
D02*
G37*
G36*
X206911Y74708D02*
X206089D01*
X205329Y74393D01*
X204748Y73812D01*
X204433Y73052D01*
Y72230D01*
X204748Y71470D01*
X205329Y70889D01*
X206089Y70574D01*
X206911D01*
X207671Y70889D01*
X208252Y71470D01*
X208567Y72230D01*
Y73052D01*
X208252Y73812D01*
X207671Y74393D01*
X206911Y74708D01*
D02*
G37*
G36*
X223411Y74567D02*
X222589D01*
X221829Y74252D01*
X221248Y73671D01*
X220933Y72911D01*
Y72089D01*
X221248Y71329D01*
X221829Y70748D01*
X222589Y70433D01*
X223411D01*
X224171Y70748D01*
X224752Y71329D01*
X225067Y72089D01*
Y72911D01*
X224752Y73671D01*
X224171Y74252D01*
X223411Y74567D01*
D02*
G37*
G36*
X109411Y72067D02*
X108589D01*
X107829Y71752D01*
X107248Y71171D01*
X106933Y70411D01*
Y69589D01*
X107248Y68829D01*
X107829Y68248D01*
X108589Y67933D01*
X109411D01*
X110171Y68248D01*
X110752Y68829D01*
X111067Y69589D01*
Y70411D01*
X110752Y71171D01*
X110171Y71752D01*
X109411Y72067D01*
D02*
G37*
G36*
X138911Y69067D02*
X138089D01*
X137329Y68752D01*
X136748Y68171D01*
X136433Y67411D01*
Y66589D01*
X136748Y65829D01*
X137329Y65248D01*
X138089Y64933D01*
X138911D01*
X139671Y65248D01*
X140252Y65829D01*
X140567Y66589D01*
Y67411D01*
X140252Y68171D01*
X139671Y68752D01*
X138911Y69067D01*
D02*
G37*
G36*
X223411Y68567D02*
X222589D01*
X221829Y68252D01*
X221248Y67671D01*
X220933Y66911D01*
Y66089D01*
X221248Y65329D01*
X221829Y64748D01*
X222589Y64433D01*
X223411D01*
X224171Y64748D01*
X224752Y65329D01*
X225067Y66089D01*
Y66911D01*
X224752Y67671D01*
X224171Y68252D01*
X223411Y68567D01*
D02*
G37*
G36*
X206911D02*
X206089D01*
X205329Y68252D01*
X204748Y67671D01*
X204433Y66911D01*
Y66089D01*
X204748Y65329D01*
X205329Y64748D01*
X206089Y64433D01*
X206911D01*
X207671Y64748D01*
X208252Y65329D01*
X208567Y66089D01*
Y66911D01*
X208252Y67671D01*
X207671Y68252D01*
X206911Y68567D01*
D02*
G37*
G36*
X145911Y66067D02*
X145089D01*
X144329Y65752D01*
X143748Y65171D01*
X143433Y64411D01*
Y63589D01*
X143748Y62829D01*
X144329Y62248D01*
X145089Y61933D01*
X145911D01*
X146671Y62248D01*
X147252Y62829D01*
X147567Y63589D01*
Y64411D01*
X147252Y65171D01*
X146671Y65752D01*
X145911Y66067D01*
D02*
G37*
G36*
X114411Y65567D02*
X113589D01*
X112829Y65252D01*
X112248Y64671D01*
X111933Y63911D01*
Y63089D01*
X112248Y62329D01*
X112829Y61748D01*
X113589Y61433D01*
X114411D01*
X115171Y61748D01*
X115752Y62329D01*
X116067Y63089D01*
Y63911D01*
X115752Y64671D01*
X115171Y65252D01*
X114411Y65567D01*
D02*
G37*
G36*
X45679Y74392D02*
X44321D01*
X42990Y74127D01*
X41735Y73608D01*
X40606Y72853D01*
X39647Y71894D01*
X38892Y70765D01*
X38373Y69510D01*
X38108Y68179D01*
Y66821D01*
X38373Y65490D01*
X38892Y64235D01*
X39647Y63107D01*
X40606Y62147D01*
X41735Y61392D01*
X41895Y61326D01*
X41734Y60852D01*
X41210Y60992D01*
X40290D01*
X39402Y60754D01*
X38606Y60294D01*
X37956Y59644D01*
X37496Y58848D01*
X37258Y57960D01*
Y57040D01*
X37496Y56152D01*
X37956Y55356D01*
X38606Y54706D01*
X39402Y54246D01*
X40290Y54008D01*
X41210D01*
X42098Y54246D01*
X42894Y54706D01*
X43544Y55356D01*
X44004Y56152D01*
X44242Y57040D01*
Y57960D01*
X44004Y58848D01*
X43544Y59644D01*
X42894Y60294D01*
X42424Y60566D01*
X42646Y61015D01*
X42990Y60873D01*
X44321Y60608D01*
X45679D01*
X47010Y60873D01*
X48265Y61392D01*
X49393Y62147D01*
X50353Y63107D01*
X51108Y64235D01*
X51627Y65490D01*
X51892Y66821D01*
Y68179D01*
X51627Y69510D01*
X51108Y70765D01*
X50353Y71894D01*
X49393Y72853D01*
X48265Y73608D01*
X47010Y74127D01*
X45679Y74392D01*
D02*
G37*
G36*
X522774Y61378D02*
X522226D01*
X521719Y61168D01*
X521332Y60781D01*
X521122Y60274D01*
Y59726D01*
X521332Y59219D01*
X521719Y58832D01*
X522226Y58622D01*
X522774D01*
X523281Y58832D01*
X523668Y59219D01*
X523878Y59726D01*
Y60274D01*
X523668Y60781D01*
X523281Y61168D01*
X522774Y61378D01*
D02*
G37*
G36*
X223411Y62567D02*
X222589D01*
X221829Y62252D01*
X221248Y61671D01*
X220933Y60911D01*
Y60089D01*
X221248Y59329D01*
X221829Y58748D01*
X222589Y58433D01*
X223411D01*
X224171Y58748D01*
X224752Y59329D01*
X225067Y60089D01*
Y60911D01*
X224752Y61671D01*
X224171Y62252D01*
X223411Y62567D01*
D02*
G37*
G36*
X206911D02*
X206089D01*
X205329Y62252D01*
X204748Y61671D01*
X204433Y60911D01*
Y60089D01*
X204748Y59329D01*
X205329Y58748D01*
X206089Y58433D01*
X206911D01*
X207671Y58748D01*
X208252Y59329D01*
X208567Y60089D01*
Y60911D01*
X208252Y61671D01*
X207671Y62252D01*
X206911Y62567D01*
D02*
G37*
G36*
X518943Y59709D02*
X518395D01*
X517889Y59499D01*
X517501Y59111D01*
X517291Y58605D01*
Y58057D01*
X517501Y57550D01*
X517889Y57163D01*
X518395Y56953D01*
X518943D01*
X519450Y57163D01*
X519837Y57550D01*
X520047Y58057D01*
Y58605D01*
X519837Y59111D01*
X519450Y59499D01*
X518943Y59709D01*
D02*
G37*
G36*
X113651Y58327D02*
X112829D01*
X112069Y58012D01*
X111488Y57431D01*
X111173Y56671D01*
Y55849D01*
X111488Y55089D01*
X112069Y54508D01*
X112829Y54193D01*
X113651D01*
X114411Y54508D01*
X114992Y55089D01*
X115307Y55849D01*
Y56671D01*
X114992Y57431D01*
X114411Y58012D01*
X113651Y58327D01*
D02*
G37*
G36*
X90679Y74392D02*
X89321D01*
X87990Y74127D01*
X86735Y73608D01*
X85606Y72853D01*
X84646Y71894D01*
X83892Y70765D01*
X83373Y69510D01*
X83108Y68179D01*
Y66821D01*
X83373Y65490D01*
X83892Y64235D01*
X84646Y63107D01*
X85606Y62147D01*
X86735Y61392D01*
X87990Y60873D01*
X89321Y60608D01*
X90679D01*
X92010Y60873D01*
X92354Y61015D01*
X92576Y60566D01*
X92106Y60294D01*
X91456Y59644D01*
X90996Y58848D01*
X90758Y57960D01*
Y57040D01*
X90996Y56152D01*
X91456Y55356D01*
X92106Y54706D01*
X92902Y54246D01*
X93790Y54008D01*
X94710D01*
X95598Y54246D01*
X96394Y54706D01*
X97044Y55356D01*
X97504Y56152D01*
X97742Y57040D01*
Y57960D01*
X97504Y58848D01*
X97044Y59644D01*
X96394Y60294D01*
X95598Y60754D01*
X94710Y60992D01*
X93790D01*
X93266Y60852D01*
X93105Y61326D01*
X93265Y61392D01*
X94393Y62147D01*
X95354Y63107D01*
X96108Y64235D01*
X96627Y65490D01*
X96892Y66821D01*
Y68179D01*
X96627Y69510D01*
X96108Y70765D01*
X95354Y71894D01*
X94393Y72853D01*
X93265Y73608D01*
X92010Y74127D01*
X90679Y74392D01*
D02*
G37*
G36*
X223411Y57067D02*
X222589D01*
X221829Y56752D01*
X221248Y56171D01*
X220933Y55411D01*
Y54589D01*
X221248Y53829D01*
X221829Y53248D01*
X222589Y52933D01*
X223411D01*
X224171Y53248D01*
X224752Y53829D01*
X225067Y54589D01*
Y55411D01*
X224752Y56171D01*
X224171Y56752D01*
X223411Y57067D01*
D02*
G37*
G36*
X533352Y50272D02*
X532648D01*
X531996Y50002D01*
X531498Y49504D01*
X531228Y48852D01*
Y48148D01*
X531498Y47496D01*
X531996Y46998D01*
X532648Y46728D01*
X533352D01*
X534004Y46998D01*
X534502Y47496D01*
X534772Y48148D01*
Y48852D01*
X534502Y49504D01*
X534004Y50002D01*
X533352Y50272D01*
D02*
G37*
G36*
X510597D02*
X509892D01*
X509240Y50002D01*
X508742Y49504D01*
X508472Y48852D01*
Y48148D01*
X508742Y47496D01*
X509240Y46998D01*
X509892Y46728D01*
X510597D01*
X511248Y46998D01*
X511746Y47496D01*
X512016Y48148D01*
Y48852D01*
X511746Y49504D01*
X511248Y50002D01*
X510597Y50272D01*
D02*
G37*
G36*
X94710Y52992D02*
X93790D01*
X92902Y52754D01*
X92106Y52294D01*
X91456Y51644D01*
X90996Y50848D01*
X90758Y49960D01*
Y49040D01*
X90996Y48152D01*
X91456Y47356D01*
X92106Y46706D01*
X92902Y46246D01*
X93790Y46008D01*
X94710D01*
X95598Y46246D01*
X96394Y46706D01*
X97044Y47356D01*
X97504Y48152D01*
X97742Y49040D01*
Y49960D01*
X97504Y50848D01*
X97044Y51644D01*
X96394Y52294D01*
X95598Y52754D01*
X94710Y52992D01*
D02*
G37*
G36*
X41210Y52992D02*
X40290D01*
X39402Y52754D01*
X38606Y52294D01*
X37956Y51644D01*
X37496Y50848D01*
X37258Y49960D01*
Y49040D01*
X37496Y48152D01*
X37956Y47356D01*
X38606Y46706D01*
X39402Y46246D01*
X40290Y46008D01*
X41210D01*
X42098Y46246D01*
X42894Y46706D01*
X43544Y47356D01*
X44004Y48152D01*
X44242Y49040D01*
Y49960D01*
X44004Y50848D01*
X43544Y51644D01*
X42894Y52294D01*
X42098Y52754D01*
X41210Y52992D01*
D02*
G37*
G36*
X538630Y55143D02*
X537670Y54952D01*
X536856Y54408D01*
X536312Y53594D01*
X536121Y52634D01*
Y48303D01*
X536312Y47343D01*
X536856Y46529D01*
X537670Y45985D01*
X538630Y45794D01*
X539590Y45985D01*
X540404Y46529D01*
X540948Y47343D01*
X541139Y48303D01*
Y52634D01*
X540948Y53594D01*
X540404Y54408D01*
X539590Y54952D01*
X538630Y55143D01*
D02*
G37*
G36*
X504614D02*
X503654Y54952D01*
X502840Y54408D01*
X502296Y53594D01*
X502105Y52634D01*
Y48303D01*
X502296Y47343D01*
X502840Y46529D01*
X503654Y45985D01*
X504614Y45794D01*
X505574Y45985D01*
X506388Y46529D01*
X506932Y47343D01*
X507123Y48303D01*
Y52634D01*
X506932Y53594D01*
X506388Y54408D01*
X505574Y54952D01*
X504614Y55143D01*
D02*
G37*
G36*
X423687Y51717D02*
X422313D01*
X420987Y51361D01*
X419797Y50674D01*
X418826Y49703D01*
X418139Y48513D01*
X417783Y47187D01*
Y45813D01*
X418139Y44486D01*
X418826Y43297D01*
X419797Y42326D01*
X420987Y41639D01*
X422313Y41284D01*
X423687D01*
X425013Y41639D01*
X426203Y42326D01*
X427174Y43297D01*
X427861Y44486D01*
X428217Y45813D01*
Y47187D01*
X427861Y48513D01*
X427174Y49703D01*
X426203Y50674D01*
X425013Y51361D01*
X423687Y51717D01*
D02*
G37*
G36*
X403687D02*
X402313D01*
X400986Y51361D01*
X399797Y50674D01*
X398826Y49703D01*
X398139Y48513D01*
X397783Y47187D01*
Y45813D01*
X398139Y44486D01*
X398826Y43297D01*
X399797Y42326D01*
X400986Y41639D01*
X402313Y41284D01*
X403687D01*
X405014Y41639D01*
X406203Y42326D01*
X407174Y43297D01*
X407861Y44486D01*
X408216Y45813D01*
Y47187D01*
X407861Y48513D01*
X407174Y49703D01*
X406203Y50674D01*
X405014Y51361D01*
X403687Y51717D01*
D02*
G37*
G36*
X152862Y45850D02*
X152162D01*
X151486Y45669D01*
X150880Y45319D01*
X150385Y44825D01*
X150035Y44219D01*
X149854Y43543D01*
Y42843D01*
X150035Y42167D01*
X150385Y41561D01*
X150880Y41066D01*
X151486Y40716D01*
X152162Y40535D01*
X152862D01*
X153538Y40716D01*
X154144Y41066D01*
X154638Y41561D01*
X154988Y42167D01*
X155169Y42843D01*
Y43543D01*
X154988Y44219D01*
X154638Y44825D01*
X154144Y45319D01*
X153538Y45669D01*
X152862Y45850D01*
D02*
G37*
G36*
X184358Y45850D02*
X183658D01*
X182982Y45669D01*
X182376Y45319D01*
X181881Y44825D01*
X181532Y44219D01*
X181350Y43543D01*
Y42843D01*
X181532Y42167D01*
X181881Y41561D01*
X182376Y41066D01*
X182982Y40716D01*
X183658Y40535D01*
X184358D01*
X185034Y40716D01*
X185640Y41066D01*
X186134Y41561D01*
X186484Y42167D01*
X186665Y42843D01*
Y43543D01*
X186484Y44219D01*
X186134Y44825D01*
X185640Y45319D01*
X185034Y45669D01*
X184358Y45850D01*
D02*
G37*
G36*
X504614Y38095D02*
X503654Y37905D01*
X502840Y37361D01*
X502296Y36547D01*
X502105Y35587D01*
Y32437D01*
X502296Y31477D01*
X502840Y30663D01*
X503654Y30119D01*
X504614Y29928D01*
X505574Y30119D01*
X506388Y30663D01*
X506932Y31477D01*
X507123Y32437D01*
Y35587D01*
X506932Y36547D01*
X506388Y37361D01*
X505574Y37905D01*
X504614Y38095D01*
D02*
G37*
G36*
X538630Y38095D02*
X537670Y37905D01*
X536856Y37361D01*
X536312Y36547D01*
X536121Y35587D01*
Y32437D01*
X536312Y31477D01*
X536856Y30663D01*
X537670Y30119D01*
X538630Y29928D01*
X539590Y30119D01*
X540404Y30663D01*
X540948Y31477D01*
X541139Y32437D01*
Y35587D01*
X540948Y36547D01*
X540404Y37361D01*
X539590Y37905D01*
X538630Y38095D01*
D02*
G37*
G36*
X525911Y40067D02*
X525089D01*
X524329Y39752D01*
X523748Y39171D01*
X523433Y38411D01*
Y37589D01*
X523748Y36829D01*
X524329Y36248D01*
X524878Y36021D01*
Y35479D01*
X524329Y35252D01*
X523748Y34671D01*
X523433Y33911D01*
Y33089D01*
X523748Y32329D01*
X524329Y31748D01*
X524878Y31521D01*
Y30979D01*
X524329Y30752D01*
X523748Y30171D01*
X523433Y29411D01*
Y28589D01*
X523748Y27829D01*
X524329Y27248D01*
X525089Y26933D01*
X525911D01*
X526671Y27248D01*
X527252Y27829D01*
X527567Y28589D01*
Y29411D01*
X527252Y30171D01*
X526671Y30752D01*
X526123Y30979D01*
Y31521D01*
X526671Y31748D01*
X527252Y32329D01*
X527567Y33089D01*
Y33911D01*
X527252Y34671D01*
X526671Y35252D01*
X526123Y35479D01*
Y36021D01*
X526671Y36248D01*
X527252Y36829D01*
X527567Y37589D01*
Y38411D01*
X527252Y39171D01*
X526671Y39752D01*
X525911Y40067D01*
D02*
G37*
G36*
X520411D02*
X519589D01*
X518829Y39752D01*
X518248Y39171D01*
X517933Y38411D01*
Y37589D01*
X518248Y36829D01*
X518829Y36248D01*
X519378Y36021D01*
Y35479D01*
X518829Y35252D01*
X518248Y34671D01*
X517933Y33911D01*
Y33089D01*
X518248Y32329D01*
X518829Y31748D01*
X519378Y31521D01*
Y30979D01*
X518829Y30752D01*
X518248Y30171D01*
X517933Y29411D01*
Y28589D01*
X518248Y27829D01*
X518829Y27248D01*
X519589Y26933D01*
X520411D01*
X521171Y27248D01*
X521752Y27829D01*
X522067Y28589D01*
Y29411D01*
X521752Y30171D01*
X521171Y30752D01*
X520622Y30979D01*
Y31521D01*
X521171Y31748D01*
X521752Y32329D01*
X522067Y33089D01*
Y33911D01*
X521752Y34671D01*
X521171Y35252D01*
X520622Y35479D01*
Y36021D01*
X521171Y36248D01*
X521752Y36829D01*
X522067Y37589D01*
Y38411D01*
X521752Y39171D01*
X521171Y39752D01*
X520411Y40067D01*
D02*
G37*
G36*
X514911D02*
X514089D01*
X513329Y39752D01*
X512748Y39171D01*
X512433Y38411D01*
Y37589D01*
X512748Y36829D01*
X513329Y36248D01*
X513877Y36021D01*
Y35479D01*
X513329Y35252D01*
X512748Y34671D01*
X512433Y33911D01*
Y33089D01*
X512748Y32329D01*
X513329Y31748D01*
X513877Y31521D01*
Y30979D01*
X513329Y30752D01*
X512748Y30171D01*
X512433Y29411D01*
Y28589D01*
X512748Y27829D01*
X513329Y27248D01*
X514089Y26933D01*
X514911D01*
X515671Y27248D01*
X516252Y27829D01*
X516567Y28589D01*
Y29411D01*
X516252Y30171D01*
X515671Y30752D01*
X515123Y30979D01*
Y31521D01*
X515671Y31748D01*
X516252Y32329D01*
X516567Y33089D01*
Y33911D01*
X516252Y34671D01*
X515671Y35252D01*
X515123Y35479D01*
Y36021D01*
X515671Y36248D01*
X516252Y36829D01*
X516567Y37589D01*
Y38411D01*
X516252Y39171D01*
X515671Y39752D01*
X514911Y40067D01*
D02*
G37*
%LPD*%
D56*
X383000Y46500D02*
D03*
X423000D02*
D03*
X403000D02*
D03*
D58*
X94250Y57500D02*
D03*
X40750Y57500D02*
D03*
X98500Y79500D02*
D03*
X36500D02*
D03*
X90000Y67500D02*
D03*
X45000D02*
D03*
X65000Y97500D02*
D03*
X70000Y92500D02*
D03*
X45000Y97500D02*
D03*
X50000Y92500D02*
D03*
X75000Y97500D02*
D03*
X90000Y92500D02*
D03*
X94250Y49500D02*
D03*
X60000Y92500D02*
D03*
X85000Y97500D02*
D03*
X40750Y49500D02*
D03*
X55000Y97500D02*
D03*
X80000Y92500D02*
D03*
D62*
X50500Y217500D02*
D03*
Y227500D02*
D03*
Y347500D02*
D03*
Y367500D02*
D03*
Y327500D02*
D03*
X40500Y217500D02*
D03*
Y227500D02*
D03*
X50500Y237500D02*
D03*
X40500D02*
D03*
X50500Y247500D02*
D03*
X40500D02*
D03*
X50500Y257500D02*
D03*
X40500D02*
D03*
X50500Y267500D02*
D03*
X40500D02*
D03*
X50500Y277500D02*
D03*
X40500D02*
D03*
X50500Y287500D02*
D03*
X40500D02*
D03*
X50500Y297500D02*
D03*
X40500D02*
D03*
X50500Y307500D02*
D03*
X40500D02*
D03*
X50500Y317500D02*
D03*
X40500D02*
D03*
Y327500D02*
D03*
X50500Y337500D02*
D03*
X40500D02*
D03*
Y347500D02*
D03*
X50500Y357500D02*
D03*
X40500D02*
D03*
Y367500D02*
D03*
X50500Y377500D02*
D03*
D63*
X40500D02*
D03*
D64*
X310634Y66197D02*
D03*
X362366D02*
D03*
D65*
X350279Y76866D02*
D03*
X340437Y76866D02*
D03*
X332563D02*
D03*
D66*
X394169Y359248D02*
D03*
X102831Y359248D02*
D03*
X394169Y225391D02*
D03*
X102831D02*
D03*
D67*
X290000Y90362D02*
D03*
X238268D02*
D03*
X290000Y68000D02*
D03*
X238268D02*
D03*
D68*
X277913Y78669D02*
D03*
X277913Y88984D02*
D03*
X260197D02*
D03*
X268071D02*
D03*
X250354D02*
D03*
X250354Y78669D02*
D03*
X268071D02*
D03*
X260197D02*
D03*
D69*
X409917Y177635D02*
D03*
D70*
X87083D02*
D03*
D71*
X504614Y50468D02*
D03*
X538630D02*
D03*
D72*
X504614Y34012D02*
D03*
X538630Y34012D02*
D03*
D73*
X510244Y48500D02*
D03*
X533000D02*
D03*
D74*
X322721Y76866D02*
D03*
D75*
X530500Y384500D02*
D03*
X489000Y386000D02*
D03*
X483000D02*
D03*
X401000Y149000D02*
D03*
X395500D02*
D03*
X390000D02*
D03*
X401000Y153000D02*
D03*
X395500D02*
D03*
X390000D02*
D03*
X409500Y110000D02*
D03*
X156000Y105000D02*
D03*
X125000Y93000D02*
D03*
X384327Y201327D02*
D03*
X175000Y202500D02*
D03*
X168500D02*
D03*
X162500D02*
D03*
X187623Y135316D02*
D03*
X186500Y99500D02*
D03*
X109000Y70000D02*
D03*
X518000Y124500D02*
D03*
X489000Y366500D02*
D03*
X483500D02*
D03*
X522500Y359000D02*
D03*
X468500Y83000D02*
D03*
X461500D02*
D03*
X468500Y88500D02*
D03*
X461500D02*
D03*
X497500Y338500D02*
D03*
X525102Y342000D02*
D03*
Y337276D02*
D03*
Y330189D02*
D03*
X492500Y322500D02*
D03*
X525102Y323102D02*
D03*
X502559Y319559D02*
D03*
X524500Y285000D02*
D03*
Y289000D02*
D03*
X501000D02*
D03*
Y285000D02*
D03*
X516000D02*
D03*
X510500D02*
D03*
X516000Y289000D02*
D03*
X510500D02*
D03*
X451949Y195653D02*
D03*
Y223920D02*
D03*
X451823Y250823D02*
D03*
X444874Y258170D02*
D03*
X445000Y231266D02*
D03*
Y203000D02*
D03*
X514500Y38000D02*
D03*
X520000D02*
D03*
X525500D02*
D03*
Y33500D02*
D03*
X520000D02*
D03*
X514500D02*
D03*
X525500Y29000D02*
D03*
X520000D02*
D03*
X514500D02*
D03*
X528000Y110500D02*
D03*
X535918Y125000D02*
D03*
X517418Y162500D02*
D03*
X512000Y117000D02*
D03*
X484418Y138500D02*
D03*
X463418Y137500D02*
D03*
X508500Y141000D02*
D03*
X483500Y126500D02*
D03*
X543000Y72000D02*
D03*
Y59000D02*
D03*
X501000Y72500D02*
D03*
X501500Y57000D02*
D03*
X462500Y65000D02*
D03*
X443500Y28500D02*
D03*
X449000D02*
D03*
X454500D02*
D03*
X443500Y33000D02*
D03*
X449000D02*
D03*
X454500D02*
D03*
Y37500D02*
D03*
X449000D02*
D03*
X443500D02*
D03*
X449500Y89500D02*
D03*
X443725Y89500D02*
D03*
X446000Y70000D02*
D03*
X441500D02*
D03*
X408000Y125500D02*
D03*
X421000Y95500D02*
D03*
X396500Y100500D02*
D03*
Y83500D02*
D03*
X340500Y95500D02*
D03*
X332500D02*
D03*
X268000Y107000D02*
D03*
X260000D02*
D03*
X268000Y60500D02*
D03*
X260500D02*
D03*
X223000Y55000D02*
D03*
Y60500D02*
D03*
Y66500D02*
D03*
Y72500D02*
D03*
Y78000D02*
D03*
X167866Y81134D02*
D03*
X159205Y80795D02*
D03*
X203500Y122500D02*
D03*
Y129000D02*
D03*
X142000Y110000D02*
D03*
Y116000D02*
D03*
X169047Y131953D02*
D03*
X198969Y88968D02*
D03*
X208156Y44687D02*
D03*
X135732Y44768D02*
D03*
X115000Y76500D02*
D03*
X142000Y73500D02*
D03*
X136500Y60000D02*
D03*
X114000Y63500D02*
D03*
X113240Y56260D02*
D03*
X355500Y186000D02*
D03*
X252500Y218500D02*
D03*
X258500Y212000D02*
D03*
X264500Y204500D02*
D03*
X270500D02*
D03*
X276000D02*
D03*
X329000D02*
D03*
X311500D02*
D03*
X294000D02*
D03*
X338000Y203500D02*
D03*
X181500D02*
D03*
X156000D02*
D03*
X138000D02*
D03*
X120500Y204000D02*
D03*
X108500Y204500D02*
D03*
X95000D02*
D03*
X406000Y203500D02*
D03*
X394169Y367748D02*
D03*
X402669Y359248D02*
D03*
X394169Y350748D02*
D03*
X385669Y359248D02*
D03*
X388169Y365248D02*
D03*
X400169Y364748D02*
D03*
Y353248D02*
D03*
X388169D02*
D03*
X96831D02*
D03*
X108831D02*
D03*
X108831Y364748D02*
D03*
X96831Y365248D02*
D03*
X94331Y359248D02*
D03*
X102831Y350748D02*
D03*
X111331Y359248D02*
D03*
X102831Y367748D02*
D03*
X394169Y233891D02*
D03*
X402669Y225391D02*
D03*
X394169Y216891D02*
D03*
X385669Y225391D02*
D03*
X388169Y231391D02*
D03*
X400169Y230891D02*
D03*
Y219391D02*
D03*
X388169D02*
D03*
X96831D02*
D03*
X108831D02*
D03*
X108831Y230891D02*
D03*
X96831Y231391D02*
D03*
X94331Y225391D02*
D03*
X102831Y216891D02*
D03*
X111331Y225391D02*
D03*
X102831Y233891D02*
D03*
X209130Y184043D02*
D03*
X215035Y184043D02*
D03*
X220941Y184043D02*
D03*
X226847D02*
D03*
X232752D02*
D03*
X362673D02*
D03*
X376453Y184043D02*
D03*
X376000Y155000D02*
D03*
X359720Y155500D02*
D03*
X334130Y155500D02*
D03*
X300665Y155500D02*
D03*
X294760Y155500D02*
D03*
X288854Y155500D02*
D03*
X282949D02*
D03*
X277043D02*
D03*
X271138D02*
D03*
X265232D02*
D03*
X259327D02*
D03*
X253421Y155500D02*
D03*
X223894Y155500D02*
D03*
X205000Y155000D02*
D03*
X194366Y155500D02*
D03*
X188461D02*
D03*
X182555D02*
D03*
X163500Y155500D02*
D03*
X153027Y155500D02*
D03*
X124500Y154000D02*
D03*
X119563Y155500D02*
D03*
X113657D02*
D03*
X107752Y155500D02*
D03*
X93972Y155500D02*
D03*
X145500Y64000D02*
D03*
X206500Y60500D02*
D03*
X138500Y67000D02*
D03*
X206500Y66500D02*
D03*
X154874Y78374D02*
D03*
X206500Y78500D02*
D03*
X150543Y79043D02*
D03*
X206500Y72641D02*
D03*
D81*
X499500Y150000D02*
D03*
X497500Y148000D02*
D03*
X171024Y106508D02*
D03*
X150543Y92043D02*
D03*
X522500Y60000D02*
D03*
X518669Y58331D02*
D03*
X191551Y105551D02*
D03*
X183953Y116047D02*
D03*
X361500Y172500D02*
D03*
X358500Y172000D02*
D03*
X320350Y174150D02*
D03*
X355784Y172283D02*
D03*
X353500Y171000D02*
D03*
X339000D02*
D03*
X322319Y176319D02*
D03*
X318382Y172118D02*
D03*
X351000Y171000D02*
D03*
X364500Y174000D02*
D03*
X347909Y170909D02*
D03*
X336098Y170902D02*
D03*
X464000Y306500D02*
D03*
X478941Y333059D02*
D03*
X512543Y334906D02*
D03*
X501224Y336087D02*
D03*
X487101Y337899D02*
D03*
X501224Y338449D02*
D03*
X485500Y339500D02*
D03*
X512543Y339630D02*
D03*
X496000Y384500D02*
D03*
X501224Y331362D02*
D03*
X481264Y333000D02*
D03*
X496853Y318508D02*
D03*
X512543Y332543D02*
D03*
X501224Y324276D02*
D03*
X487500Y325000D02*
D03*
X495252Y320108D02*
D03*
X495715Y326416D02*
D03*
X485899Y326601D02*
D03*
X512543Y327819D02*
D03*
X494000Y328000D02*
D03*
X501224Y329000D02*
D03*
X512543Y325457D02*
D03*
X512126Y121738D02*
D03*
X133500Y154000D02*
D03*
X168500Y172500D02*
D03*
X223417Y143917D02*
D03*
X174500Y171500D02*
D03*
X188000Y118000D02*
D03*
X222000Y142000D02*
D03*
X480500Y128500D02*
D03*
X190500Y115000D02*
D03*
X184000Y120000D02*
D03*
X179618Y129882D02*
D03*
X158000Y120500D02*
D03*
X171500Y172500D02*
D03*
X165500Y171500D02*
D03*
X156965Y170965D02*
D03*
X139248Y154248D02*
D03*
M02*
