M48
;Layer_Color=9474304
;FILE_FORMAT=2:5
INCH
;TYPE=PLATED
T01F00S00C0.00787
T02F00S00C0.01181
T03F00S00C0.01968
T04F00S00C0.10630
%
T01
X0093536Y0087752
Y0092083
Y0096414
X0093536Y0100745
X0097867
Y0105075
X0093536Y0105075
X0102197
X0106528Y0105075
X0106528Y0100745
X0110859
X0110859Y0105075
Y0096414
X0110859Y0092083
X0106528
Y0087752
X0102197Y0087752
X0097867Y0087752
Y0092083
X0097867Y0096414
X0102197
Y0092083
X0106528Y0096414
X0102197Y0100745
X0110859Y0087752
X0314169Y0108169
Y0112500
Y0116831
X0318500
Y0112500
Y0108169
X0322831
Y0112500
Y0116831
T02
X0055000Y0017500
X0068500Y0017000
X0074464Y0017224
X0080500Y0017000
X0086386Y0016886
X0087000Y0024000
X0084610Y0023977
X0089500Y0024000
X0092241Y0024005
X0095000Y0024000
X0097500
X0100000
X0102500
X0105000
X0107868Y0023968
X0110500Y0024000
X0113000
X0116000
X0115500Y0028000
X0117500Y0032000
X0119500Y0034500
X0112254Y0037615
X0114000Y0017000
X0125736Y0017101
X0124000Y0022500
X0135500Y0024000
X0139500
X0144504Y0017996
X0143500Y0015500
X0150000Y0016000
X0146625Y0019883
X0147000Y0031000
X0152500Y0032000
X0152461Y0039039
X0142898Y0040102
X0137500Y0034500
X0145500Y0051000
X0155000Y0064500
X0124231Y0063050
X0115000Y0062000
X0107197Y0062697
X0096359Y0062641
X0087000Y0062500
Y0044000
X0083500
X0081000Y0040000
X0089000
Y0037500
X0087083Y0033112
X0083500Y0033000
X0077671Y0034671
X0094000Y0042000
X0093000Y0020500
X0100165Y0020335
X0097197Y0077914
X0090500Y0080000
X0082197Y0087914
X0081500Y0095500
X0068317Y0095464
X0068231Y0088050
X0051697Y0087803
X0051541Y0095459
X0052197Y0098761
X0054697
X0055197Y0102261
X0057197Y0100761
Y0104261
X0059197Y0102761
X0061697Y0106261
X0060000Y0108000
X0083197Y0107261
X0082697Y0109761
X0085584Y0120626
X0088133Y0126367
X0093000Y0134000
X0098197Y0133914
X0100197Y0132197
X0103000Y0134000
X0107750Y0134570
X0112000Y0132000
X0116972Y0133028
Y0144472
X0119500Y0147000
X0103197Y0148261
Y0150761
X0098197
X0098224Y0148279
X0093197Y0148261
Y0150761
X0101213Y0114898
X0110000Y0115000
X0114633Y0116124
X0126500Y0108000
X0125500Y0102000
X0123705Y0093414
X0140500Y0093500
Y0103000
X0141000Y0114500
X0148500Y0120500
X0151500Y0118500
X0154000Y0115500
X0154500Y0126500
X0152697Y0132761
X0150000Y0133000
X0147500Y0130500
X0144082Y0130541
X0137697Y0130261
X0139197Y0128261
X0132000Y0119000
X0144500Y0142500
X0147500Y0142000
X0155697Y0139261
X0152249Y0096749
X0113024Y0079587
X0107119Y0077938
X0069000Y0070000
X0157500Y0049000
X0160000Y0046500
X0176000Y0053500
X0188097Y0046261
X0192761Y0041261
X0185000Y0033000
X0184000Y0018500
X0186500
X0189000
X0192000
X0181000
X0178500
X0174500
X0171000
X0168500
X0166000
X0165000Y0025000
X0157364Y0023934
X0214296Y0017296
X0220201
X0226107
X0232013
X0237918
X0243824
X0249729
X0255634
X0261540
X0270500Y0042000
X0295000Y0016000
X0307000Y0019500
X0310000Y0098000
X0302000Y0105500
X0295500Y0107500
X0286352Y0102993
X0282352Y0103493
X0298500Y0119500
X0305500Y0117500
X0310000Y0127000
X0279500Y0135000
X0277000Y0134500
X0275000Y0137500
X0270000Y0133500
X0265000Y0133000
X0264000Y0135500
X0262500Y0139000
X0260000Y0142000
X0267000Y0131000
X0268111Y0128560
X0254000Y0128000
X0251500
X0249000Y0127500
X0246500
X0245500Y0131000
X0243000
X0242000Y0119500
X0239500
X0237000
X0234500
X0238000Y0114500
X0243312Y0116643
X0244500Y0119500
X0247000
X0232500Y0111000
Y0108500
X0243500Y0099500
X0210500Y0095500
X0206000Y0100000
X0208182Y0114146
X0208178Y0117296
X0205029Y0120445
X0205187Y0126579
X0202038
X0205187Y0129736
X0208337
X0211350Y0132878
X0211554Y0135968
X0214500Y0136164
X0217650
X0214657Y0133086
X0214500Y0142327
X0214471Y0145448
X0211487Y0145613
X0208366Y0145639
X0208172Y0148601
Y0151753
X0205022Y0151750
X0205213Y0154897
X0202064
X0198888Y0154926
X0195768Y0154897
X0195573Y0151941
X0195602Y0148763
X0200060Y0146332
X0205022Y0145451
X0205172Y0142480
X0205172Y0139407
X0201872Y0139152
X0208556Y0139008
X0217650Y0142327
X0217620Y0145448
X0220770Y0145448
X0223920Y0145451
X0227000Y0143500
X0227271Y0140945
X0231136Y0140136
X0230500Y0145000
X0233000
X0232000Y0154000
X0226500Y0155500
X0217815Y0155088
X0214662Y0154897
X0214636Y0148626
X0217650Y0148763
X0217582Y0123626
X0214433
X0214500Y0120416
X0211328Y0120484
X0214500Y0114117
X0217715Y0114084
X0198730Y0114185
Y0117334
X0196000Y0120500
X0189469Y0120442
Y0123592
X0186395Y0120521
X0183169Y0123592
X0180020Y0123592
Y0120442
X0180021Y0117292
X0180020Y0114143
X0183169
Y0117296
X0176870Y0117292
X0173720Y0114143
X0173720Y0110993
X0176870
X0170571
Y0107844
X0173720
X0180020
X0183169
X0192589Y0114117
X0197000Y0128500
X0191392Y0134021
Y0137521
X0193892Y0140021
X0189462Y0145409
X0183163
X0182997Y0142462
X0180016Y0145448
X0176867
X0176697Y0148761
X0183059Y0148789
X0186312Y0151747
X0186316Y0154897
X0180000Y0155000
X0180016Y0139149
Y0135999
X0176867
X0176697Y0139170
X0170697Y0145261
X0160500Y0148000
X0161499Y0135892
X0161697Y0131761
X0158197Y0129761
X0156697Y0132261
X0158500Y0119000
X0159500Y0114500
X0167214Y0117283
X0170609Y0123588
X0176870Y0123592
X0183169Y0126741
X0186319Y0126741
X0186288Y0133022
X0189000Y0094000
X0190000Y0090000
X0190500Y0081000
X0188000Y0076000
X0211500Y0042000
X0209500Y0037000
X0249000Y0152500
X0247000Y0154500
X0313000Y0127000
X0324500
X0327500
X0327000Y0098000
X0324000
X0313000
X0312779Y0054961
X0313000Y0032500
X0314500Y0030000
X0322000Y0018000
X0333500Y0017000
X0366917Y0017083
X0311000Y0185500
X0259000
X0258984Y0182484
X0253000Y0189500
X0244500Y0194500
X0246500Y0180500
X0251500Y0174000
X0243500Y0170500
X0239500
X0236000Y0169000
X0233000
X0228413Y0162587
X0230500Y0159000
X0231000Y0156500
X0223920Y0161199
X0217620Y0161199
X0210000Y0164000
X0207500
X0204500
X0206941Y0169000
X0212000Y0174000
X0216000
X0220000
X0219000Y0189000
X0212000
X0205000
X0198000Y0189500
X0195500
X0190500
X0187000
X0183500
X0179000Y0189000
X0179500Y0174000
X0182000Y0173000
X0183500Y0170500
X0186500Y0172500
X0189500Y0174000
X0193000
X0195000Y0162000
X0195739Y0158075
X0201902
X0186500Y0158000
X0180000
X0179500Y0163000
X0173623Y0158143
X0161000Y0156500
X0168000Y0174500
X0171500
X0175000
X0226000Y0189000
X0233000
X0238500Y0163500
X0240500Y0161000
X0242634Y0159077
X0245000Y0156500
X0245500Y0166500
X0248500Y0165000
T03
X0058000Y0041894
X0064000Y0039394
X0070000Y0041894
X0072500Y0047894
X0070000Y0053394
X0064000Y0056394
X0064500Y0062500
X0059500
X0051500
X0058000Y0053894
X0055500Y0047894
X0074500Y0061000
X0065000Y0111500
Y0118500
X0077044Y0125456
X0147000Y0108500
X0155000Y0087500
X0142000Y0070000
X0164000Y0100000
X0169500
X0175000
X0181500
X0188500Y0059500
X0193500
X0283000Y0066000
X0288000
X0288000Y0071000
Y0076000
X0283000
Y0071000
X0293500
Y0076000
X0293500Y0066000
X0304676Y0098368
X0305384Y0126577
X0283500Y0129000
X0275500Y0119500
Y0113500
X0291728Y0115105
X0293500Y0149000
Y0153500
X0288000
Y0149000
X0283000
Y0153500
X0318592Y0153098
X0343500Y0153500
Y0149000
X0348500
Y0153500
X0354000
Y0149000
Y0141500
X0348500
X0343500
X0332000Y0126500
X0331935Y0098499
X0348179Y0092201
X0357000Y0094500
X0362000
X0367500
X0364577Y0102423
Y0109423
Y0116423
X0344000Y0110000
Y0076500
Y0071500
Y0066500
X0349000
Y0071500
Y0076500
X0354500
Y0071500
Y0066500
X0355500Y0056394
X0349500Y0053894
X0347000Y0047894
X0349500Y0041894
X0355500Y0039394
X0361500Y0041894
X0364000Y0047894
X0361500Y0053394
X0360500Y0021500
X0365000
X0355500
X0350500
X0345264Y0016264
X0318207Y0066005
X0318425Y0071267
X0318592Y0157598
X0343500Y0158500
X0348500
X0354000
X0355500Y0173394
X0361500Y0175894
X0364000Y0181894
X0361500Y0187394
X0355500Y0190394
X0349500Y0187894
X0347000Y0181894
X0349500Y0175894
X0336000Y0174000
X0311000Y0167642
X0293500Y0158500
X0288000
X0283000
X0268000Y0159500
X0259000Y0168500
X0238500Y0183500
X0153000Y0184500
Y0177000
X0070000Y0175894
X0072500Y0181894
X0070000Y0187394
X0064000Y0190394
X0058000Y0187894
X0055500Y0181894
X0058000Y0175894
X0064000Y0173394
T04
X0064000Y0047894
X0355500
Y0181894
X0064000
M30
