G04*
G04 #@! TF.GenerationSoftware,Altium Limited,Altium Designer,26.9.1 (10)*
G04*
G04 Layer_Color=8388736*
G04 Board_Origin=0|0*
%FSLAX25Y25*%
%MOIN*%
G70*
G04*
G04 #@! TF.SameCoordinates,25E4A3D9-96F7-4678-A4EC-3D76F423F696*
G04*
G04*
G04 #@! TF.FilePolarity,Negative*
G04*
G01*
G75*
%ADD19R,0.03543X0.03347*%
%ADD20R,0.02362X0.03543*%
%ADD21R,0.03347X0.03543*%
%ADD22R,0.00591X0.01968*%
%ADD23R,0.01811X0.01654*%
%ADD24R,0.03937X0.03740*%
%ADD25R,0.04724X0.05512*%
%ADD26R,0.03740X0.01772*%
%ADD27R,0.05512X0.04724*%
%ADD28R,0.03740X0.03937*%
%ADD29C,0.01400*%
%ADD30O,0.05512X0.02362*%
%ADD31R,0.06890X0.08465*%
%ADD32R,0.03347X0.00984*%
%ADD33R,0.14173X0.14173*%
%ADD34R,0.00984X0.03347*%
%ADD35R,0.03347X0.04724*%
%ADD36R,0.08268X0.05512*%
%ADD37R,0.01378X0.12205*%
%ADD38R,0.04331X0.10394*%
G04:AMPARAMS|DCode=39|XSize=14.76mil|YSize=13.78mil|CornerRadius=1.72mil|HoleSize=0mil|Usage=FLASHONLY|Rotation=90.000|XOffset=0mil|YOffset=0mil|HoleType=Round|Shape=RoundedRectangle|*
%AMROUNDEDRECTD39*
21,1,0.01476,0.01034,0,0,90.0*
21,1,0.01132,0.01378,0,0,90.0*
1,1,0.00345,0.00517,0.00566*
1,1,0.00345,0.00517,-0.00566*
1,1,0.00345,-0.00517,-0.00566*
1,1,0.00345,-0.00517,0.00566*
%
%ADD39ROUNDEDRECTD39*%
%ADD40R,3.23000X0.13500*%
%ADD41R,0.01181X0.03150*%
%ADD42C,0.23622*%
%ADD43C,0.01968*%
%ADD44C,0.03150*%
D19*
X293730Y98554D02*
D03*
Y92452D02*
D03*
X98000Y143704D02*
D03*
X108000D02*
D03*
X103000D02*
D03*
X353500Y135051D02*
D03*
X349000D02*
D03*
X293500Y134551D02*
D03*
X289230Y92452D02*
D03*
X284500Y92199D02*
D03*
X279921Y92162D02*
D03*
X103000Y137602D02*
D03*
X98000D02*
D03*
X93000D02*
D03*
X108000D02*
D03*
X293500Y128449D02*
D03*
X289230Y98554D02*
D03*
X147060Y46205D02*
D03*
X146000Y55949D02*
D03*
X193000Y71000D02*
D03*
X93000Y143704D02*
D03*
X147060Y40102D02*
D03*
X146000Y62051D02*
D03*
X193000Y64898D02*
D03*
X284500Y98301D02*
D03*
X279921Y98264D02*
D03*
X343423Y92142D02*
D03*
Y98244D02*
D03*
X349000Y128949D02*
D03*
X353500D02*
D03*
D20*
X315047Y59000D02*
D03*
X320953D02*
D03*
D21*
X298102D02*
D03*
X292000D02*
D03*
X329000Y191000D02*
D03*
X322898D02*
D03*
X249551Y177500D02*
D03*
X249490Y189548D02*
D03*
X243388D02*
D03*
X243613Y183815D02*
D03*
X243449Y177500D02*
D03*
X249715Y183815D02*
D03*
D22*
X83638Y40000D02*
D03*
X87181Y37441D02*
D03*
X84819Y40000D02*
D03*
X86000D02*
D03*
X87181D02*
D03*
X83638Y37441D02*
D03*
X84819D02*
D03*
X86000D02*
D03*
D23*
X93799Y37500D02*
D03*
Y40000D02*
D03*
X91201Y37500D02*
D03*
Y40000D02*
D03*
D24*
X53047Y66496D02*
D03*
X87953D02*
D03*
X160476Y178154D02*
D03*
X280547Y113500D02*
D03*
X195790Y178204D02*
D03*
X264953Y164000D02*
D03*
X265453Y173000D02*
D03*
X250594Y194500D02*
D03*
X58953Y66496D02*
D03*
X259547Y173000D02*
D03*
X189884Y178204D02*
D03*
X259047Y164000D02*
D03*
X256500Y194500D02*
D03*
X166382Y178154D02*
D03*
X82047Y66496D02*
D03*
X286453Y113500D02*
D03*
D25*
X52153Y72496D02*
D03*
X88846Y73496D02*
D03*
X151314Y101775D02*
D03*
X151548Y108521D02*
D03*
X152654Y162000D02*
D03*
X152807Y168500D02*
D03*
X159653Y184500D02*
D03*
X250131Y105299D02*
D03*
X304654Y93500D02*
D03*
X250193Y112000D02*
D03*
X280153Y119500D02*
D03*
X331913Y93631D02*
D03*
X357613Y102704D02*
D03*
X357549Y109657D02*
D03*
X357676Y116326D02*
D03*
X196699Y184619D02*
D03*
X305307Y131500D02*
D03*
X331846D02*
D03*
X158007Y101775D02*
D03*
X158241Y108521D02*
D03*
X190006Y184619D02*
D03*
X243500Y112000D02*
D03*
X243438Y105299D02*
D03*
X159500Y168500D02*
D03*
X159346Y162000D02*
D03*
X166347Y184500D02*
D03*
X325153Y131500D02*
D03*
X312000D02*
D03*
X58846Y72496D02*
D03*
X82153Y73496D02*
D03*
X350920Y102704D02*
D03*
X286846Y119500D02*
D03*
X350856Y109657D02*
D03*
X350983Y116326D02*
D03*
X325220Y93631D02*
D03*
X311347Y93500D02*
D03*
D26*
X152461Y41261D02*
D03*
X182934Y46261D02*
D03*
X152461D02*
D03*
Y56261D02*
D03*
X182934Y41261D02*
D03*
Y51261D02*
D03*
X152461D02*
D03*
X182934Y56261D02*
D03*
D27*
X182500Y71846D02*
D03*
X168109Y87779D02*
D03*
X161102Y87853D02*
D03*
X182000Y87653D02*
D03*
X175116Y87701D02*
D03*
X206000Y89307D02*
D03*
X205000Y184346D02*
D03*
X343295Y135289D02*
D03*
X212000Y184346D02*
D03*
X219000D02*
D03*
X226000Y184500D02*
D03*
X232951Y184596D02*
D03*
X161102Y94546D02*
D03*
X168109Y94472D02*
D03*
X175116Y94394D02*
D03*
X182000Y94346D02*
D03*
X232951Y177903D02*
D03*
X226000Y177807D02*
D03*
X206000Y96000D02*
D03*
X219000Y177654D02*
D03*
X212000D02*
D03*
X205000D02*
D03*
X182500Y65153D02*
D03*
X343295Y128596D02*
D03*
D28*
X188000Y70953D02*
D03*
X272500Y156953D02*
D03*
X336000Y180547D02*
D03*
Y186453D02*
D03*
X272500Y151047D02*
D03*
X188000Y65047D02*
D03*
D29*
X172048Y109325D02*
D03*
X178348D02*
D03*
X175198Y112474D02*
D03*
X178348Y115624D02*
D03*
X175198Y156569D02*
D03*
X178348Y153419D02*
D03*
X172048Y159718D02*
D03*
X181497Y112474D02*
D03*
Y109325D02*
D03*
Y118773D02*
D03*
Y121923D02*
D03*
Y125073D02*
D03*
X184647Y109325D02*
D03*
X184647Y112474D02*
D03*
Y115624D02*
D03*
Y121923D02*
D03*
X187796Y115624D02*
D03*
Y118773D02*
D03*
Y125073D02*
D03*
X181497Y134521D02*
D03*
X184647Y137671D02*
D03*
X181497Y143970D02*
D03*
X181497Y150269D02*
D03*
X187796Y128222D02*
D03*
Y140821D02*
D03*
X184647Y143970D02*
D03*
X184647Y147120D02*
D03*
X187796D02*
D03*
Y143970D02*
D03*
X187796Y150269D02*
D03*
X219292Y112474D02*
D03*
X222442Y109325D02*
D03*
X197245Y115624D02*
D03*
X190946Y125073D02*
D03*
X206694Y118773D02*
D03*
Y121923D02*
D03*
X216143Y115624D02*
D03*
X212993Y118773D02*
D03*
X194096Y131372D02*
D03*
X197245D02*
D03*
Y134521D02*
D03*
X200395Y131372D02*
D03*
Y134521D02*
D03*
X194096D02*
D03*
Y137671D02*
D03*
X197245D02*
D03*
X206694Y125073D02*
D03*
X209844Y125073D02*
D03*
X209844Y128222D02*
D03*
X194096Y153419D02*
D03*
X203544Y147120D02*
D03*
X206694Y147120D02*
D03*
Y143970D02*
D03*
Y150269D02*
D03*
X203544Y153419D02*
D03*
X212993Y125073D02*
D03*
Y134521D02*
D03*
Y150269D02*
D03*
X216143Y143970D02*
D03*
Y153419D02*
D03*
X222442Y159718D02*
D03*
X172048Y112474D02*
D03*
X175198Y109325D02*
D03*
X178348Y112474D02*
D03*
X175198Y115624D02*
D03*
X172048Y125073D02*
D03*
X178348Y118773D02*
D03*
X178348Y125073D02*
D03*
X178348Y134521D02*
D03*
X181497Y115624D02*
D03*
X184647Y118773D02*
D03*
X187796Y121923D02*
D03*
X190946D02*
D03*
X181497Y128222D02*
D03*
Y137671D02*
D03*
X184647Y125073D02*
D03*
X184647Y128222D02*
D03*
X200395Y137671D02*
D03*
X203544Y150269D02*
D03*
X209844Y150269D02*
D03*
X222442Y140821D02*
D03*
X219292Y156569D02*
D03*
X212993Y143970D02*
D03*
X216143Y134521D02*
D03*
X178348Y143970D02*
D03*
X184647Y153419D02*
D03*
X175198Y147120D02*
D03*
X172048Y121923D02*
D03*
X175198Y134521D02*
D03*
Y137671D02*
D03*
X178348Y147120D02*
D03*
X172048Y118773D02*
D03*
X175198Y125073D02*
D03*
X181497Y153419D02*
D03*
X200395D02*
D03*
X197245Y118773D02*
D03*
X209844Y121923D02*
D03*
X216143Y125073D02*
D03*
X222442Y143970D02*
D03*
X206694Y153419D02*
D03*
X203544Y125073D02*
D03*
X206694Y128222D02*
D03*
Y140821D02*
D03*
X219292Y143970D02*
D03*
X203544D02*
D03*
X190946D02*
D03*
X209844Y147120D02*
D03*
X172048Y131372D02*
D03*
X219292Y128222D02*
D03*
X222442Y131372D02*
D03*
Y134521D02*
D03*
X212993Y137671D02*
D03*
Y147120D02*
D03*
X175198Y128222D02*
D03*
X197245Y109325D02*
D03*
Y112474D02*
D03*
X216143Y128222D02*
D03*
X209844Y140821D02*
D03*
X219292Y147120D02*
D03*
X178348Y140821D02*
D03*
X175198Y150269D02*
D03*
X212993Y131372D02*
D03*
X181497Y140821D02*
D03*
X222442Y147120D02*
D03*
Y156569D02*
D03*
X187796Y153419D02*
D03*
X197245D02*
D03*
X206694Y115624D02*
D03*
X203544Y121923D02*
D03*
X172048Y134521D02*
D03*
X190946Y112474D02*
D03*
X194096Y118773D02*
D03*
X222442Y128222D02*
D03*
X219292Y131372D02*
D03*
X209844D02*
D03*
X219292Y137671D02*
D03*
X216143D02*
D03*
Y140821D02*
D03*
Y150269D02*
D03*
X212993Y156569D02*
D03*
X172048Y140821D02*
D03*
X200395Y115624D02*
D03*
X216143Y131372D02*
D03*
X212993Y140821D02*
D03*
X175198Y131372D02*
D03*
X175198Y140821D02*
D03*
X184647D02*
D03*
X172048Y137671D02*
D03*
X216143Y147120D02*
D03*
Y156569D02*
D03*
X190946D02*
D03*
X194096Y112474D02*
D03*
X222442Y137671D02*
D03*
X219292Y140821D02*
D03*
Y150269D02*
D03*
X197245Y156569D02*
D03*
X212993Y109325D02*
D03*
X219292Y134521D02*
D03*
X175198Y143970D02*
D03*
X222442Y150269D02*
D03*
X219292Y153419D02*
D03*
X212993D02*
D03*
X200395Y156569D02*
D03*
X175198Y159718D02*
D03*
X178348D02*
D03*
X181497Y159718D02*
D03*
X184647Y159718D02*
D03*
X190946D02*
D03*
X194096Y159718D02*
D03*
X197245D02*
D03*
X200395Y159718D02*
D03*
X203544D02*
D03*
X209844Y159718D02*
D03*
X212993D02*
D03*
X216143D02*
D03*
X219292Y159718D02*
D03*
X172048Y156569D02*
D03*
X178348D02*
D03*
X181497D02*
D03*
X184647D02*
D03*
X194096D02*
D03*
X203544D02*
D03*
X209844D02*
D03*
X172048Y153419D02*
D03*
X175198D02*
D03*
X190946Y153419D02*
D03*
X209844Y153419D02*
D03*
X172048Y150269D02*
D03*
X178348Y150269D02*
D03*
X184647D02*
D03*
X190946Y150269D02*
D03*
X194096Y150269D02*
D03*
X197245D02*
D03*
X200395D02*
D03*
X172048Y147120D02*
D03*
X181497D02*
D03*
X190946D02*
D03*
X209844Y143970D02*
D03*
X178348Y137671D02*
D03*
X209844D02*
D03*
X178348Y131372D02*
D03*
X181497D02*
D03*
X184647D02*
D03*
X172048Y128222D02*
D03*
X178348Y128222D02*
D03*
X212993Y128222D02*
D03*
X219292Y125073D02*
D03*
X175198Y121923D02*
D03*
X178348D02*
D03*
X212993D02*
D03*
X216143D02*
D03*
X219292D02*
D03*
X222442D02*
D03*
X175198Y118773D02*
D03*
X190946Y118773D02*
D03*
X200395D02*
D03*
X203544D02*
D03*
X209844D02*
D03*
X216143D02*
D03*
X219292Y118773D02*
D03*
X222442Y118773D02*
D03*
X172048Y115624D02*
D03*
X190946D02*
D03*
X194096Y115624D02*
D03*
X203544Y115624D02*
D03*
X209844Y115624D02*
D03*
X212993D02*
D03*
X219292D02*
D03*
X222442Y115624D02*
D03*
X200395Y112474D02*
D03*
X203544D02*
D03*
X209844D02*
D03*
X212993D02*
D03*
X216143D02*
D03*
X222442D02*
D03*
X190946Y109325D02*
D03*
X194096D02*
D03*
X200395D02*
D03*
X203544D02*
D03*
X209844D02*
D03*
X216143D02*
D03*
X219292D02*
D03*
X222442Y153419D02*
D03*
D30*
X183528Y182000D02*
D03*
X74528Y69996D02*
D03*
X65472Y66256D02*
D03*
Y73736D02*
D03*
X74528D02*
D03*
Y66256D02*
D03*
X183528Y178260D02*
D03*
Y185740D02*
D03*
X174472Y178260D02*
D03*
Y185740D02*
D03*
D31*
X312602Y69500D02*
D03*
X324398D02*
D03*
X312602Y155000D02*
D03*
X323898D02*
D03*
X336602Y69500D02*
D03*
X300398D02*
D03*
X336102Y155000D02*
D03*
X300398D02*
D03*
D32*
X309051Y115453D02*
D03*
Y119390D02*
D03*
Y107579D02*
D03*
Y117421D02*
D03*
Y105610D02*
D03*
X327949D02*
D03*
Y119390D02*
D03*
Y115453D02*
D03*
Y117421D02*
D03*
Y107579D02*
D03*
Y113484D02*
D03*
Y111516D02*
D03*
X309051Y113484D02*
D03*
X327949Y109547D02*
D03*
X309051Y111516D02*
D03*
Y109547D02*
D03*
D33*
X318500Y112500D02*
D03*
D34*
X317516Y103051D02*
D03*
X319484D02*
D03*
X317516Y121949D02*
D03*
X319484D02*
D03*
X325390Y103051D02*
D03*
X311610D02*
D03*
X325390Y121949D02*
D03*
X315547Y103051D02*
D03*
X321453D02*
D03*
Y121949D02*
D03*
X315547D02*
D03*
X311610D02*
D03*
X313579D02*
D03*
X323421D02*
D03*
Y103051D02*
D03*
X313579D02*
D03*
D35*
X258835Y151562D02*
D03*
X263560Y157959D02*
D03*
Y151562D02*
D03*
X258835Y157959D02*
D03*
D36*
X328913Y167642D02*
D03*
X293087D02*
D03*
Y185358D02*
D03*
X328913D02*
D03*
D37*
X54890Y6894D02*
D03*
X68669D02*
D03*
X74575D02*
D03*
X80480D02*
D03*
X86386D02*
D03*
X113945D02*
D03*
X125756D02*
D03*
X143472D02*
D03*
X149378D02*
D03*
X155283D02*
D03*
X167095D02*
D03*
X184811D02*
D03*
X214296D02*
D03*
X220201D02*
D03*
X226107D02*
D03*
X232013D02*
D03*
X237918D02*
D03*
X243824D02*
D03*
X249729D02*
D03*
X255634D02*
D03*
X261540D02*
D03*
X295005D02*
D03*
X320595D02*
D03*
X338312D02*
D03*
X365871D02*
D03*
X363902D02*
D03*
X361934D02*
D03*
X359965D02*
D03*
X357997D02*
D03*
X356028D02*
D03*
X354060D02*
D03*
X352091D02*
D03*
X350123D02*
D03*
X348154D02*
D03*
X346186D02*
D03*
X344217D02*
D03*
X342249D02*
D03*
X340280D02*
D03*
X336343D02*
D03*
X334375D02*
D03*
X332406D02*
D03*
X330438D02*
D03*
X328469D02*
D03*
X326501D02*
D03*
X324532D02*
D03*
X322564D02*
D03*
X318627D02*
D03*
X316658D02*
D03*
X314690D02*
D03*
X312721D02*
D03*
X310753D02*
D03*
X308784D02*
D03*
X306816D02*
D03*
X304847D02*
D03*
X302879D02*
D03*
X300910D02*
D03*
X298942D02*
D03*
X296973D02*
D03*
X293036D02*
D03*
X291068D02*
D03*
X289099D02*
D03*
X287131D02*
D03*
X285162D02*
D03*
X283194D02*
D03*
X281225D02*
D03*
X279257D02*
D03*
X277288D02*
D03*
X275320D02*
D03*
X273351D02*
D03*
X271382D02*
D03*
X269414D02*
D03*
X267445D02*
D03*
X265477D02*
D03*
X263509D02*
D03*
X259572D02*
D03*
X257603D02*
D03*
X253666D02*
D03*
X251697D02*
D03*
X247761D02*
D03*
X245792D02*
D03*
X241855D02*
D03*
X239886D02*
D03*
X235949D02*
D03*
X233981D02*
D03*
X230044D02*
D03*
X228076D02*
D03*
X224138D02*
D03*
X222170D02*
D03*
X218233D02*
D03*
X216264D02*
D03*
X212327D02*
D03*
X210359D02*
D03*
X208390D02*
D03*
X206422D02*
D03*
X52921D02*
D03*
X196622D02*
D03*
X194653D02*
D03*
X192685D02*
D03*
X190717D02*
D03*
X188748D02*
D03*
X186779D02*
D03*
X182843D02*
D03*
X180874D02*
D03*
X178905D02*
D03*
X176937D02*
D03*
X174969D02*
D03*
X173000D02*
D03*
X171031D02*
D03*
X169063D02*
D03*
X165126D02*
D03*
X163157D02*
D03*
X161189D02*
D03*
X159221D02*
D03*
X157252D02*
D03*
X153315D02*
D03*
X151347D02*
D03*
X147409D02*
D03*
X145441D02*
D03*
X141504D02*
D03*
X139535D02*
D03*
X137567D02*
D03*
X135598D02*
D03*
X133630D02*
D03*
X131661D02*
D03*
X129693D02*
D03*
X127724D02*
D03*
X123787D02*
D03*
X121819D02*
D03*
X119850D02*
D03*
X117882D02*
D03*
X115913D02*
D03*
X111976D02*
D03*
X110008D02*
D03*
X108039D02*
D03*
X106071D02*
D03*
X104102D02*
D03*
X102134D02*
D03*
X100165D02*
D03*
X98197D02*
D03*
X96228D02*
D03*
X94260D02*
D03*
X92291D02*
D03*
X90323D02*
D03*
X88354D02*
D03*
X84417D02*
D03*
X82449D02*
D03*
X78512D02*
D03*
X76543D02*
D03*
X72606D02*
D03*
X70638D02*
D03*
X66701D02*
D03*
X64732D02*
D03*
X62764D02*
D03*
X60795D02*
D03*
X58827D02*
D03*
X56858D02*
D03*
D38*
X336921Y81145D02*
D03*
X300012Y81463D02*
D03*
X336137Y142371D02*
D03*
X312013Y142364D02*
D03*
X300360D02*
D03*
X325268Y81145D02*
D03*
X311666Y81463D02*
D03*
X324483Y142371D02*
D03*
D39*
X137500Y29671D02*
D03*
X153983Y24062D02*
D03*
X147000Y24171D02*
D03*
X144500D02*
D03*
Y26829D02*
D03*
X147000D02*
D03*
X153983Y26719D02*
D03*
X137500Y32329D02*
D03*
X80000Y37329D02*
D03*
Y34671D02*
D03*
D40*
X209500Y7144D02*
D03*
D41*
X258984Y189602D02*
D03*
Y177398D02*
D03*
X255047D02*
D03*
Y189602D02*
D03*
X257016D02*
D03*
Y177398D02*
D03*
X260953Y177398D02*
D03*
Y189602D02*
D03*
D42*
X64000Y47894D02*
D03*
Y181894D02*
D03*
X355500D02*
D03*
Y47894D02*
D03*
D43*
X93536Y87752D02*
D03*
Y92083D02*
D03*
Y105075D02*
D03*
Y96414D02*
D03*
X93536Y100745D02*
D03*
X97867Y92083D02*
D03*
X102197Y87752D02*
D03*
X97867Y87752D02*
D03*
X106528D02*
D03*
Y92083D02*
D03*
X110859Y87752D02*
D03*
X110859Y92083D02*
D03*
X97867Y96414D02*
D03*
X102197Y100745D02*
D03*
X97867Y100745D02*
D03*
Y105075D02*
D03*
X102197Y105075D02*
D03*
Y96414D02*
D03*
Y92083D02*
D03*
X106528Y96414D02*
D03*
X106528Y100745D02*
D03*
X106528Y105075D02*
D03*
X110859Y100745D02*
D03*
X110859Y105075D02*
D03*
Y96414D02*
D03*
X314169Y116831D02*
D03*
Y112500D02*
D03*
Y108169D02*
D03*
X318500D02*
D03*
Y116831D02*
D03*
Y112500D02*
D03*
X322831Y108169D02*
D03*
Y112500D02*
D03*
Y116831D02*
D03*
D44*
X64000Y56394D02*
D03*
X72500Y47894D02*
D03*
X64000Y39394D02*
D03*
X55500Y47894D02*
D03*
X58000Y53894D02*
D03*
X70000Y53394D02*
D03*
Y41894D02*
D03*
X58000D02*
D03*
X64000Y190394D02*
D03*
X72500Y181894D02*
D03*
X64000Y173394D02*
D03*
X55500Y181894D02*
D03*
X58000Y187894D02*
D03*
X70000Y187394D02*
D03*
Y175894D02*
D03*
X58000D02*
D03*
X355500Y190394D02*
D03*
X364000Y181894D02*
D03*
X355500Y173394D02*
D03*
X347000Y181894D02*
D03*
X349500Y187894D02*
D03*
X361500Y187394D02*
D03*
Y175894D02*
D03*
X349500D02*
D03*
X355500Y56394D02*
D03*
X364000Y47894D02*
D03*
X355500Y39394D02*
D03*
X347000Y47894D02*
D03*
X349500Y53894D02*
D03*
X361500Y53394D02*
D03*
Y41894D02*
D03*
X349500D02*
D03*
M02*
