G04*
G04 #@! TF.GenerationSoftware,Altium Limited,Altium Designer,26.9.1 (10)*
G04*
G04 Layer_Color=32896*
G04 Board_Origin=0|0*
%FSLAX25Y25*%
%MOIN*%
G70*
G04*
G04 #@! TF.SameCoordinates,25E4A3D9-96F7-4678-A4EC-3D76F423F696*
G04*
G04*
G04 #@! TF.FilePolarity,Positive*
G04*
G01*
G75*
%ADD11C,0.00984*%
%ADD15C,0.00787*%
%ADD16C,0.00600*%
%ADD17C,0.01000*%
D11*
X116469Y79485D02*
G03*
X116469Y79485I-492J0D01*
G01*
D15*
X87827Y83520D02*
X87827Y82044D01*
X89304Y82044D01*
X87827Y109308D02*
Y110784D01*
X89304D01*
X115091D02*
X116568D01*
Y109308D02*
Y110784D01*
Y82044D02*
X116568Y83520D01*
X115091Y82044D02*
X116568Y82044D01*
D16*
X142697Y80914D02*
G03*
X142697Y80914I-500J0D01*
G01*
X139497Y73723D02*
Y75104D01*
X127897Y73723D02*
Y75104D01*
D17*
X107748Y28032D02*
Y31968D01*
X105780D01*
X105124Y31312D01*
Y30000D01*
X105780Y29344D01*
X107748D01*
X106436D02*
X105124Y28032D01*
X103812Y31312D02*
X103156Y31968D01*
X101844D01*
X101188Y31312D01*
Y30656D01*
X101844Y30000D01*
X102500D01*
X101844D01*
X101188Y29344D01*
Y28688D01*
X101844Y28032D01*
X103156D01*
X103812Y28688D01*
X99876Y31968D02*
X97252D01*
Y31312D01*
X99876Y28688D01*
Y28032D01*
X108248Y35032D02*
Y38968D01*
X106280D01*
X105624Y38312D01*
Y37000D01*
X106280Y36344D01*
X108248D01*
X106936D02*
X105624Y35032D01*
X104312Y38312D02*
X103656Y38968D01*
X102344D01*
X101688Y38312D01*
Y37656D01*
X102344Y37000D01*
X103000D01*
X102344D01*
X101688Y36344D01*
Y35688D01*
X102344Y35032D01*
X103656D01*
X104312Y35688D01*
X97752Y38968D02*
X99064Y38312D01*
X100376Y37000D01*
Y35688D01*
X99720Y35032D01*
X98408D01*
X97752Y35688D01*
Y36344D01*
X98408Y37000D01*
X100376D01*
X115821Y116488D02*
Y113864D01*
X115296Y113340D01*
X114247D01*
X113722Y113864D01*
Y116488D01*
X112673Y115963D02*
X112148Y116488D01*
X111098D01*
X110574Y115963D01*
Y115439D01*
X111098Y114914D01*
X111623D01*
X111098D01*
X110574Y114389D01*
Y113864D01*
X111098Y113340D01*
X112148D01*
X112673Y113864D01*
X126321Y81382D02*
Y80726D01*
X125009Y79414D01*
X123697Y80726D01*
Y81382D01*
X125009Y79414D02*
Y77446D01*
X122386D02*
X121074D01*
X121730D01*
Y81382D01*
X122386Y80726D01*
X150218Y66812D02*
X150874Y67468D01*
X152186D01*
X152842Y66812D01*
Y64188D01*
X152186Y63532D01*
X150874D01*
X150218Y64188D01*
X148906Y66812D02*
X148250Y67468D01*
X146939D01*
X146283Y66812D01*
Y66156D01*
X146939Y65500D01*
X146283Y64844D01*
Y64188D01*
X146939Y63532D01*
X148250D01*
X148906Y64188D01*
Y64844D01*
X148250Y65500D01*
X148906Y66156D01*
Y66812D01*
X148250Y65500D02*
X146939D01*
X142347Y67468D02*
X143659Y66812D01*
X144971Y65500D01*
Y64188D01*
X144315Y63532D01*
X143003D01*
X142347Y64188D01*
Y64844D01*
X143003Y65500D01*
X144971D01*
X149624Y86812D02*
X150280Y87468D01*
X151592D01*
X152248Y86812D01*
Y84188D01*
X151592Y83532D01*
X150280D01*
X149624Y84188D01*
X148312Y86812D02*
X147656Y87468D01*
X146344D01*
X145688Y86812D01*
Y86156D01*
X146344Y85500D01*
X145688Y84844D01*
Y84188D01*
X146344Y83532D01*
X147656D01*
X148312Y84188D01*
Y84844D01*
X147656Y85500D01*
X148312Y86156D01*
Y86812D01*
X147656Y85500D02*
X146344D01*
X141752Y87468D02*
X144376D01*
Y85500D01*
X143064Y86156D01*
X142408D01*
X141752Y85500D01*
Y84188D01*
X142408Y83532D01*
X143720D01*
X144376Y84188D01*
X121032Y52252D02*
X124968D01*
Y54220D01*
X124312Y54876D01*
X123000D01*
X122344Y54220D01*
Y52252D01*
Y53564D02*
X121032Y54876D01*
Y58812D02*
Y56188D01*
X123656Y58812D01*
X124312D01*
X124968Y58156D01*
Y56844D01*
X124312Y56188D01*
X124968Y62748D02*
Y60124D01*
X123000D01*
X123656Y61436D01*
Y62092D01*
X123000Y62748D01*
X121688D01*
X121032Y62092D01*
Y60780D01*
X121688Y60124D01*
X166445Y91446D02*
Y95382D01*
X164477D01*
X163821Y94726D01*
Y93414D01*
X164477Y92758D01*
X166445D01*
X165133D02*
X163821Y91446D01*
X159886D02*
X162509D01*
X159886Y94070D01*
Y94726D01*
X160541Y95382D01*
X161853D01*
X162509Y94726D01*
X156606Y91446D02*
Y95382D01*
X158574Y93414D01*
X155950D01*
X86730Y148666D02*
X90665D01*
Y150634D01*
X90009Y151290D01*
X88697D01*
X88042Y150634D01*
Y148666D01*
Y149978D02*
X86730Y151290D01*
Y155226D02*
Y152602D01*
X89353Y155226D01*
X90009D01*
X90665Y154570D01*
Y153258D01*
X90009Y152602D01*
Y156538D02*
X90665Y157194D01*
Y158505D01*
X90009Y159161D01*
X89353D01*
X88697Y158505D01*
Y157850D01*
Y158505D01*
X88042Y159161D01*
X87385D01*
X86730Y158505D01*
Y157194D01*
X87385Y156538D01*
X93532Y148752D02*
X97468D01*
Y150720D01*
X96812Y151376D01*
X95500D01*
X94844Y150720D01*
Y148752D01*
Y150064D02*
X93532Y151376D01*
Y155312D02*
Y152688D01*
X96156Y155312D01*
X96812D01*
X97468Y154656D01*
Y153344D01*
X96812Y152688D01*
X93532Y159248D02*
Y156624D01*
X96156Y159248D01*
X96812D01*
X97468Y158592D01*
Y157280D01*
X96812Y156624D01*
X100730Y148322D02*
X104665D01*
Y150290D01*
X104009Y150946D01*
X102697D01*
X102041Y150290D01*
Y148322D01*
Y149634D02*
X100730Y150946D01*
Y154882D02*
Y152258D01*
X103353Y154882D01*
X104009D01*
X104665Y154226D01*
Y152914D01*
X104009Y152258D01*
X100730Y156194D02*
Y157506D01*
Y156850D01*
X104665D01*
X104009Y156194D01*
X107110Y148173D02*
X111046D01*
Y150141D01*
X110390Y150797D01*
X109078D01*
X108422Y150141D01*
Y148173D01*
Y149485D02*
X107110Y150797D01*
Y154733D02*
Y152109D01*
X109734Y154733D01*
X110390D01*
X111046Y154077D01*
Y152765D01*
X110390Y152109D01*
Y156045D02*
X111046Y156701D01*
Y158012D01*
X110390Y158668D01*
X107766D01*
X107110Y158012D01*
Y156701D01*
X107766Y156045D01*
X110390D01*
X165575Y100932D02*
Y104868D01*
X163607D01*
X162951Y104212D01*
Y102900D01*
X163607Y102244D01*
X165575D01*
X164263D02*
X162951Y100932D01*
X161639D02*
X160327D01*
X160983D01*
Y104868D01*
X161639Y104212D01*
X158360Y101588D02*
X157704Y100932D01*
X156392D01*
X155736Y101588D01*
Y104212D01*
X156392Y104868D01*
X157704D01*
X158360Y104212D01*
Y103556D01*
X157704Y102900D01*
X155736D01*
X138168Y118473D02*
Y122409D01*
X136200D01*
X135545Y121753D01*
Y120441D01*
X136200Y119785D01*
X138168D01*
X136856D02*
X135545Y118473D01*
X134233D02*
X132921D01*
X133577D01*
Y122409D01*
X134233Y121753D01*
X130953D02*
X130297Y122409D01*
X128985D01*
X128329Y121753D01*
Y121097D01*
X128985Y120441D01*
X128329Y119785D01*
Y119129D01*
X128985Y118473D01*
X130297D01*
X130953Y119129D01*
Y119785D01*
X130297Y120441D01*
X130953Y121097D01*
Y121753D01*
X130297Y120441D02*
X128985D01*
X62920Y100032D02*
Y103968D01*
X60952D01*
X60296Y103312D01*
Y102000D01*
X60952Y101344D01*
X62920D01*
X61608D02*
X60296Y100032D01*
X58984D02*
X57672D01*
X58328D01*
Y103968D01*
X58984Y103312D01*
X55704Y103968D02*
X53080D01*
Y103312D01*
X55704Y100688D01*
Y100032D01*
X62920Y80032D02*
Y83968D01*
X60952D01*
X60296Y83312D01*
Y82000D01*
X60952Y81344D01*
X62920D01*
X61608D02*
X60296Y80032D01*
X58984D02*
X57672D01*
X58328D01*
Y83968D01*
X58984Y83312D01*
X53080Y83968D02*
X54392Y83312D01*
X55704Y82000D01*
Y80688D01*
X55048Y80032D01*
X53736D01*
X53080Y80688D01*
Y81344D01*
X53736Y82000D01*
X55704D01*
X119230Y128494D02*
X123165D01*
Y130462D01*
X122509Y131118D01*
X121197D01*
X120542Y130462D01*
Y128494D01*
Y129806D02*
X119230Y131118D01*
Y132430D02*
Y133742D01*
Y133086D01*
X123165D01*
X122509Y132430D01*
X123165Y138333D02*
Y135710D01*
X121197D01*
X121853Y137022D01*
Y137678D01*
X121197Y138333D01*
X119886D01*
X119230Y137678D01*
Y136366D01*
X119886Y135710D01*
X114230Y148494D02*
X118165D01*
Y150462D01*
X117509Y151118D01*
X116198D01*
X115542Y150462D01*
Y148494D01*
Y149806D02*
X114230Y151118D01*
Y152430D02*
Y153742D01*
Y153086D01*
X118165D01*
X117509Y152430D01*
X114230Y157678D02*
X118165D01*
X116198Y155710D01*
Y158334D01*
X115509Y53790D02*
X116165Y53134D01*
Y51822D01*
X115509Y51166D01*
X112885D01*
X112230Y51822D01*
Y53134D01*
X112885Y53790D01*
X115509Y55102D02*
X116165Y55758D01*
Y57070D01*
X115509Y57726D01*
X114853D01*
X114198Y57070D01*
X113541Y57726D01*
X112885D01*
X112230Y57070D01*
Y55758D01*
X112885Y55102D01*
X113541D01*
X114198Y55758D01*
X114853Y55102D01*
X115509D01*
X114198Y55758D02*
Y57070D01*
X115509Y59038D02*
X116165Y59694D01*
Y61006D01*
X115509Y61661D01*
X114853D01*
X114198Y61006D01*
Y60350D01*
Y61006D01*
X113541Y61661D01*
X112885D01*
X112230Y61006D01*
Y59694D01*
X112885Y59038D01*
X87812Y54376D02*
X88468Y53720D01*
Y52408D01*
X87812Y51752D01*
X85188D01*
X84532Y52408D01*
Y53720D01*
X85188Y54376D01*
X87812Y55688D02*
X88468Y56344D01*
Y57656D01*
X87812Y58312D01*
X87156D01*
X86500Y57656D01*
X85844Y58312D01*
X85188D01*
X84532Y57656D01*
Y56344D01*
X85188Y55688D01*
X85844D01*
X86500Y56344D01*
X87156Y55688D01*
X87812D01*
X86500Y56344D02*
Y57656D01*
X84532Y62248D02*
Y59624D01*
X87156Y62248D01*
X87812D01*
X88468Y61592D01*
Y60280D01*
X87812Y59624D01*
X128626Y99360D02*
X129085Y99819D01*
X130004D01*
X130463Y99360D01*
Y97523D01*
X130004Y97064D01*
X129085D01*
X128626Y97523D01*
X127708Y99360D02*
X127249Y99819D01*
X126330D01*
X125871Y99360D01*
Y98901D01*
X126330Y98441D01*
X125871Y97982D01*
Y97523D01*
X126330Y97064D01*
X127249D01*
X127708Y97523D01*
Y97982D01*
X127249Y98441D01*
X127708Y98901D01*
Y99360D01*
X127249Y98441D02*
X126330D01*
X124953Y97064D02*
X124035D01*
X124494D01*
Y99819D01*
X124953Y99360D01*
X110534Y132332D02*
X110993Y132791D01*
X111912D01*
X112371Y132332D01*
Y130496D01*
X111912Y130036D01*
X110993D01*
X110534Y130496D01*
X109616Y132332D02*
X109157Y132791D01*
X108238D01*
X107779Y132332D01*
Y131873D01*
X108238Y131414D01*
X107779Y130955D01*
Y130496D01*
X108238Y130036D01*
X109157D01*
X109616Y130496D01*
Y130955D01*
X109157Y131414D01*
X109616Y131873D01*
Y132332D01*
X109157Y131414D02*
X108238D01*
X106861Y132332D02*
X106402Y132791D01*
X105483D01*
X105024Y132332D01*
Y130496D01*
X105483Y130036D01*
X106402D01*
X106861Y130496D01*
Y132332D01*
X77599Y82050D02*
X78124Y82574D01*
X79173D01*
X79698Y82050D01*
Y79950D01*
X79173Y79426D01*
X78124D01*
X77599Y79950D01*
X76550Y82574D02*
X74450D01*
Y82050D01*
X76550Y79950D01*
Y79426D01*
X73401Y79950D02*
X72876Y79426D01*
X71827D01*
X71302Y79950D01*
Y82050D01*
X71827Y82574D01*
X72876D01*
X73401Y82050D01*
Y81525D01*
X72876Y81000D01*
X71302D01*
X105616Y121077D02*
X106075Y120618D01*
Y119700D01*
X105616Y119240D01*
X103779D01*
X103320Y119700D01*
Y120618D01*
X103779Y121077D01*
X106075Y121995D02*
Y123832D01*
X105616D01*
X103779Y121995D01*
X103320D01*
X105616Y124750D02*
X106075Y125210D01*
Y126128D01*
X105616Y126587D01*
X105157D01*
X104697Y126128D01*
X104238Y126587D01*
X103779D01*
X103320Y126128D01*
Y125210D01*
X103779Y124750D01*
X104238D01*
X104697Y125210D01*
X105157Y124750D01*
X105616D01*
X104697Y125210D02*
Y126128D01*
X96812Y54376D02*
X97468Y53720D01*
Y52408D01*
X96812Y51752D01*
X94188D01*
X93532Y52408D01*
Y53720D01*
X94188Y54376D01*
X97468Y55688D02*
Y58312D01*
X96812D01*
X94188Y55688D01*
X93532D01*
X97468Y59624D02*
Y62248D01*
X96812D01*
X94188Y59624D01*
X93532D01*
X60821Y113073D02*
X61477Y113728D01*
X62789D01*
X63445Y113073D01*
Y110449D01*
X62789Y109793D01*
X61477D01*
X60821Y110449D01*
X59509Y113728D02*
X56885D01*
Y113073D01*
X59509Y110449D01*
Y109793D01*
X52950Y113728D02*
X54262Y113073D01*
X55574Y111761D01*
Y110449D01*
X54918Y109793D01*
X53606D01*
X52950Y110449D01*
Y111105D01*
X53606Y111761D01*
X55574D01*
X86942Y120667D02*
X87598Y120011D01*
Y118699D01*
X86942Y118043D01*
X84318D01*
X83662Y118699D01*
Y120011D01*
X84318Y120667D01*
X87598Y121978D02*
Y124602D01*
X86942D01*
X84318Y121978D01*
X83662D01*
X87598Y128538D02*
Y125914D01*
X85630D01*
X86286Y127226D01*
Y127882D01*
X85630Y128538D01*
X84318D01*
X83662Y127882D01*
Y126570D01*
X84318Y125914D01*
X76099Y101549D02*
X76624Y102074D01*
X77673D01*
X78198Y101549D01*
Y99450D01*
X77673Y98926D01*
X76624D01*
X76099Y99450D01*
X75050Y102074D02*
X72951D01*
Y101549D01*
X75050Y99450D01*
Y98926D01*
X70327D02*
Y102074D01*
X71901Y100500D01*
X69802D01*
X107509Y53743D02*
X108165Y53087D01*
Y51775D01*
X107509Y51119D01*
X104885D01*
X104230Y51775D01*
Y53087D01*
X104885Y53743D01*
X108165Y55055D02*
Y57679D01*
X107509D01*
X104885Y55055D01*
X104230D01*
X107509Y58990D02*
X108165Y59646D01*
Y60958D01*
X107509Y61614D01*
X106853D01*
X106198Y60958D01*
Y60302D01*
Y60958D01*
X105542Y61614D01*
X104885D01*
X104230Y60958D01*
Y59646D01*
X104885Y58990D01*
X149372Y110753D02*
X150028Y111409D01*
X151340D01*
X151996Y110753D01*
Y108129D01*
X151340Y107474D01*
X150028D01*
X149372Y108129D01*
X148061Y111409D02*
X145437D01*
Y110753D01*
X148061Y108129D01*
Y107474D01*
X141501D02*
X144125D01*
X141501Y110097D01*
Y110753D01*
X142157Y111409D01*
X143469D01*
X144125Y110753D01*
X128575Y89832D02*
X129034Y90291D01*
X129953D01*
X130412Y89832D01*
Y87995D01*
X129953Y87536D01*
X129034D01*
X128575Y87995D01*
X127657Y90291D02*
X125820D01*
Y89832D01*
X127657Y87995D01*
Y87536D01*
X124902D02*
X123983D01*
X124442D01*
Y90291D01*
X124902Y89832D01*
X76124Y126812D02*
X76780Y127468D01*
X78092D01*
X78748Y126812D01*
Y124188D01*
X78092Y123532D01*
X76780D01*
X76124Y124188D01*
X74812Y127468D02*
X72188D01*
Y126812D01*
X74812Y124188D01*
Y123532D01*
X70876Y126812D02*
X70220Y127468D01*
X68908D01*
X68252Y126812D01*
Y124188D01*
X68908Y123532D01*
X70220D01*
X70876Y124188D01*
Y126812D01*
X61321Y119073D02*
X61977Y119729D01*
X63289D01*
X63945Y119073D01*
Y116449D01*
X63289Y115793D01*
X61977D01*
X61321Y116449D01*
X57385Y119729D02*
X58697Y119073D01*
X60009Y117761D01*
Y116449D01*
X59353Y115793D01*
X58042D01*
X57385Y116449D01*
Y117105D01*
X58042Y117761D01*
X60009D01*
X56074Y116449D02*
X55418Y115793D01*
X54106D01*
X53450Y116449D01*
Y119073D01*
X54106Y119729D01*
X55418D01*
X56074Y119073D01*
Y118417D01*
X55418Y117761D01*
X53450D01*
M02*
