G04*
G04 #@! TF.GenerationSoftware,Altium Limited,Altium Designer,26.9.1 (10)*
G04*
G04 Layer_Physical_Order=4*
G04 Layer_Color=16711680*
G04 Board_Origin=0|0*
%FSLAX25Y25*%
%MOIN*%
G70*
G04*
G04 #@! TF.SameCoordinates,25E4A3D9-96F7-4678-A4EC-3D76F423F696*
G04*
G04*
G04 #@! TF.FilePolarity,Positive*
G04*
G01*
G75*
%ADD15C,0.00787*%
%ADD17C,0.01000*%
%ADD19R,0.03543X0.03347*%
%ADD21R,0.03347X0.03543*%
%ADD23R,0.01811X0.01654*%
%ADD24R,0.03937X0.03740*%
%ADD25R,0.04724X0.05512*%
%ADD28R,0.03740X0.03937*%
%ADD37R,0.01378X0.12205*%
G04:AMPARAMS|DCode=39|XSize=14.76mil|YSize=13.78mil|CornerRadius=1.72mil|HoleSize=0mil|Usage=FLASHONLY|Rotation=90.000|XOffset=0mil|YOffset=0mil|HoleType=Round|Shape=RoundedRectangle|*
%AMROUNDEDRECTD39*
21,1,0.01476,0.01034,0,0,90.0*
21,1,0.01132,0.01378,0,0,90.0*
1,1,0.00345,0.00517,0.00566*
1,1,0.00345,0.00517,-0.00566*
1,1,0.00345,-0.00517,-0.00566*
1,1,0.00345,-0.00517,0.00566*
%
%ADD39ROUNDEDRECTD39*%
%ADD42C,0.23622*%
%ADD43C,0.01968*%
%ADD44C,0.03150*%
%ADD46C,0.00630*%
%ADD47C,0.00591*%
%ADD48C,0.01181*%
%ADD49C,0.00551*%
%ADD50C,0.00504*%
%ADD51C,0.01772*%
G04:AMPARAMS|DCode=52|XSize=16.54mil|YSize=18.11mil|CornerRadius=0mil|HoleSize=0mil|Usage=FLASHONLY|Rotation=45.000|XOffset=0mil|YOffset=0mil|HoleType=Round|Shape=Rectangle|*
%AMROTATEDRECTD52*
4,1,4,0.00056,-0.01225,-0.01225,0.00056,-0.00056,0.01225,0.01225,-0.00056,0.00056,-0.01225,0.0*
%
%ADD52ROTATEDRECTD52*%

G04:AMPARAMS|DCode=53|XSize=14.76mil|YSize=13.78mil|CornerRadius=1.72mil|HoleSize=0mil|Usage=FLASHONLY|Rotation=135.000|XOffset=0mil|YOffset=0mil|HoleType=Round|Shape=RoundedRectangle|*
%AMROUNDEDRECTD53*
21,1,0.01476,0.01034,0,0,135.0*
21,1,0.01132,0.01378,0,0,135.0*
1,1,0.00345,-0.00035,0.00766*
1,1,0.00345,0.00766,-0.00035*
1,1,0.00345,0.00035,-0.00766*
1,1,0.00345,-0.00766,0.00035*
%
%ADD53ROUNDEDRECTD53*%
%ADD54R,0.01654X0.01811*%
G04:AMPARAMS|DCode=55|XSize=16.54mil|YSize=18.11mil|CornerRadius=0mil|HoleSize=0mil|Usage=FLASHONLY|Rotation=135.000|XOffset=0mil|YOffset=0mil|HoleType=Round|Shape=Rectangle|*
%AMROTATEDRECTD55*
4,1,4,0.01225,0.00056,-0.00056,-0.01225,-0.01225,-0.00056,0.00056,0.01225,0.01225,0.00056,0.0*
%
%ADD55ROTATEDRECTD55*%

%ADD56R,0.04134X0.05118*%
%ADD57R,0.20079X0.20079*%
%ADD58R,0.00984X0.03150*%
%ADD59R,0.03150X0.00984*%
G04:AMPARAMS|DCode=60|XSize=14.76mil|YSize=13.78mil|CornerRadius=1.72mil|HoleSize=0mil|Usage=FLASHONLY|Rotation=180.000|XOffset=0mil|YOffset=0mil|HoleType=Round|Shape=RoundedRectangle|*
%AMROUNDEDRECTD60*
21,1,0.01476,0.01034,0,0,180.0*
21,1,0.01132,0.01378,0,0,180.0*
1,1,0.00345,-0.00566,0.00517*
1,1,0.00345,0.00566,0.00517*
1,1,0.00345,0.00566,-0.00517*
1,1,0.00345,-0.00566,-0.00517*
%
%ADD60ROUNDEDRECTD60*%
G36*
X73500Y104059D02*
X65034D01*
X63075Y106018D01*
Y106535D01*
X62866Y107041D01*
X62500Y107407D01*
Y122500D01*
X73500D01*
Y104059D01*
D02*
G37*
G36*
X267500Y166500D02*
X257500D01*
Y183500D01*
X267500D01*
Y166500D01*
D02*
G37*
D15*
X169876Y121817D02*
X173300D01*
X173395Y121722D01*
X167000Y123721D02*
X167433Y123287D01*
X168405D02*
X169876Y121817D01*
X167433Y123287D02*
X168405D01*
D17*
X205172Y142480D02*
X205381D01*
X206280Y141581D01*
X207008D01*
X207064Y141526D01*
X207526D01*
X207581Y141581D01*
X55874Y6890D02*
Y16417D01*
X69653Y6890D02*
Y15638D01*
X68500Y16791D02*
Y17000D01*
X55000Y17291D02*
X55874Y16417D01*
X55000Y17291D02*
Y17500D01*
X68500Y16791D02*
X69653Y15638D01*
X81465Y6890D02*
Y15827D01*
X80500Y16791D02*
Y17000D01*
Y16791D02*
X81465Y15827D01*
X98992Y7079D02*
Y13305D01*
Y7079D02*
X99181Y6890D01*
X86386Y16886D02*
X89287Y13984D01*
X98312D02*
X98992Y13305D01*
X89287Y13984D02*
X98312D01*
X116898Y6890D02*
Y14102D01*
X142488Y6890D02*
Y14492D01*
X114000Y17000D02*
X116898Y14102D01*
X114000Y17000D02*
X114000D01*
X143496Y15500D02*
X143500D01*
X142488Y14492D02*
X143496Y15500D01*
X175953Y6890D02*
Y16838D01*
X170047Y6890D02*
Y14047D01*
X181858Y6890D02*
Y16358D01*
X187764Y6890D02*
Y14580D01*
X174500Y18291D02*
Y18500D01*
Y18291D02*
X175953Y16838D01*
X184000Y18344D02*
X187764Y14580D01*
X170047Y14047D02*
X174500Y18500D01*
X181858Y16358D02*
X184000Y18500D01*
Y18344D02*
Y18500D01*
X192000Y18464D02*
X193669Y16795D01*
Y6890D02*
Y16795D01*
X192000Y18464D02*
Y18500D01*
X225185Y6894D02*
Y16165D01*
X231090Y6894D02*
Y16165D01*
X236996Y6894D02*
Y16165D01*
X225185D02*
X226107Y17087D01*
Y17296D01*
X231090Y16165D02*
X232013Y17087D01*
X236996Y16165D02*
X237918Y17087D01*
Y17296D01*
X232013Y17087D02*
Y17296D01*
X254713Y6894D02*
Y16165D01*
X290146Y6894D02*
X290335Y7083D01*
X272429Y6894D02*
Y14571D01*
X254713Y16165D02*
X255634Y17087D01*
X269704Y17296D02*
X272429Y14571D01*
X261540Y17296D02*
X269704D01*
X255634Y17087D02*
Y17296D01*
X290335Y7083D02*
Y13309D01*
X295000Y16000D02*
X297108D01*
X290335Y13309D02*
X293026Y16000D01*
X295000D01*
X311799Y6894D02*
Y14701D01*
X323610Y6894D02*
Y16236D01*
X337201Y7083D02*
X337390Y6894D01*
X366917D02*
Y17083D01*
X299799Y7083D02*
X299988Y6894D01*
X299799Y7083D02*
Y13309D01*
X297108Y16000D02*
X299799Y13309D01*
X336521Y13988D02*
X337201Y13309D01*
Y7083D02*
Y13309D01*
X333500Y17000D02*
X336512Y13988D01*
X336521D01*
X307000Y19500D02*
X311799Y14701D01*
X322000Y17846D02*
Y18000D01*
Y17846D02*
X323610Y16236D01*
X122619Y91493D02*
X125197Y88914D01*
X136650Y84914D02*
Y87961D01*
X125197Y88914D02*
X135697D01*
X136650Y84914D02*
X137142Y84422D01*
X135697Y88914D02*
X136650Y87961D01*
X137142Y78941D02*
Y84422D01*
X115682Y91493D02*
X122619D01*
X115682Y99367D02*
X140150D01*
X143519Y102735D01*
X145848D01*
X122087Y89524D02*
X124697Y86914D01*
X130697Y63914D02*
Y69441D01*
X129666Y70473D02*
Y73360D01*
Y70473D02*
X130253Y69886D01*
X130697Y69441D01*
X124697Y78328D02*
X129666Y73360D01*
X124697Y78328D02*
Y86914D01*
X115682Y89524D02*
X122087D01*
X130670Y113414D02*
X130698Y113441D01*
X143697Y93414D02*
X145146D01*
X139713Y97398D02*
X143697Y93414D01*
X115682Y97398D02*
X139713D01*
X88705Y89516D02*
X88713Y89524D01*
X122946Y73248D02*
Y76554D01*
X115682Y83818D02*
X122946Y76554D01*
X115682Y83818D02*
Y85587D01*
X345264Y6894D02*
Y16264D01*
D19*
X122946Y67146D02*
D03*
X103197Y138363D02*
D03*
X98197D02*
D03*
X93197D02*
D03*
X116197Y120363D02*
D03*
X112894Y138370D02*
D03*
X108078D02*
D03*
X122946Y73248D02*
D03*
X93197Y144465D02*
D03*
X108078Y144472D02*
D03*
X103197Y144465D02*
D03*
X98197D02*
D03*
X112894Y144472D02*
D03*
X116197Y126465D02*
D03*
D21*
X136800Y113441D02*
D03*
X146107Y102994D02*
D03*
X61359Y95459D02*
D03*
X130698Y113441D02*
D03*
X146146Y93414D02*
D03*
X61359Y87803D02*
D03*
X152209Y102994D02*
D03*
X152249Y93414D02*
D03*
X55256Y95459D02*
D03*
Y87803D02*
D03*
D23*
X219701Y163500D02*
D03*
X222299D02*
D03*
X167201Y126205D02*
D03*
Y131770D02*
D03*
Y129000D02*
D03*
X202299Y129500D02*
D03*
X170596Y105521D02*
D03*
X182194Y111521D02*
D03*
X180194Y126521D02*
D03*
Y133021D02*
D03*
X180395Y142521D02*
D03*
X186194Y129521D02*
D03*
X187096Y143021D02*
D03*
X206299Y123500D02*
D03*
X196201Y143500D02*
D03*
X207799Y132500D02*
D03*
X214201Y126500D02*
D03*
X220096Y142021D02*
D03*
X220701Y148500D02*
D03*
X169799Y126205D02*
D03*
Y131770D02*
D03*
Y129000D02*
D03*
X173194Y105521D02*
D03*
X179596Y111521D02*
D03*
X177596Y126521D02*
D03*
Y133021D02*
D03*
X183596Y129521D02*
D03*
X198799Y143500D02*
D03*
X199701Y129500D02*
D03*
X177796Y142521D02*
D03*
X222694Y142021D02*
D03*
X216799Y126500D02*
D03*
X223299Y148500D02*
D03*
X189694Y143021D02*
D03*
X205201Y132500D02*
D03*
X203701Y123500D02*
D03*
D24*
X72095Y88000D02*
D03*
X71745Y95414D02*
D03*
X71245Y105914D02*
D03*
X136500Y64500D02*
D03*
X131047Y84500D02*
D03*
X136650Y93414D02*
D03*
X136701Y102941D02*
D03*
Y107941D02*
D03*
X136953Y84500D02*
D03*
X130595Y64500D02*
D03*
X78000Y88000D02*
D03*
X130796Y102941D02*
D03*
X130745Y93414D02*
D03*
X130796Y107941D02*
D03*
X77150Y105914D02*
D03*
X77650Y95414D02*
D03*
D25*
X70351Y118414D02*
D03*
Y111414D02*
D03*
X77044Y118414D02*
D03*
Y111414D02*
D03*
D28*
X87000Y67047D02*
D03*
X96359Y66961D02*
D03*
X107197Y66961D02*
D03*
X116010Y67316D02*
D03*
X92197Y126367D02*
D03*
X100197Y125867D02*
D03*
X110697Y126367D02*
D03*
X116010Y73222D02*
D03*
X87000Y72953D02*
D03*
X110697Y120461D02*
D03*
X100197Y119961D02*
D03*
X107197Y72867D02*
D03*
X96359Y72867D02*
D03*
X92197Y120461D02*
D03*
D37*
X213374Y6894D02*
D03*
X219280D02*
D03*
X225185D02*
D03*
X231090D02*
D03*
X236996D02*
D03*
X254713D02*
D03*
X272429D02*
D03*
X290146D02*
D03*
X299988D02*
D03*
X311799D02*
D03*
X323610D02*
D03*
X337390D02*
D03*
X366917D02*
D03*
X55874Y6890D02*
D03*
X69653D02*
D03*
X81465D02*
D03*
X99181D02*
D03*
X116898D02*
D03*
X142488D02*
D03*
X170047D02*
D03*
X175953D02*
D03*
X181858D02*
D03*
X187764D02*
D03*
X193669D02*
D03*
X197606D02*
D03*
X195638D02*
D03*
X191701D02*
D03*
X189732D02*
D03*
X185795D02*
D03*
X183827D02*
D03*
X179890D02*
D03*
X177921D02*
D03*
X173984D02*
D03*
X172016D02*
D03*
X168079D02*
D03*
X166110D02*
D03*
X164142D02*
D03*
X162173D02*
D03*
X160205D02*
D03*
X158236D02*
D03*
X156268D02*
D03*
X154299D02*
D03*
X152331D02*
D03*
X150362D02*
D03*
X148394D02*
D03*
X146425D02*
D03*
X144457D02*
D03*
X140520D02*
D03*
X138551D02*
D03*
X136583D02*
D03*
X134614D02*
D03*
X132646D02*
D03*
X130677D02*
D03*
X128709D02*
D03*
X126740D02*
D03*
X124772D02*
D03*
X122803D02*
D03*
X120835D02*
D03*
X118866D02*
D03*
X114929D02*
D03*
X112961D02*
D03*
X110992D02*
D03*
X109024D02*
D03*
X107055D02*
D03*
X105087D02*
D03*
X103118D02*
D03*
X101150D02*
D03*
X97213D02*
D03*
X95244D02*
D03*
X93276D02*
D03*
X91307D02*
D03*
X89339D02*
D03*
X87370D02*
D03*
X85402D02*
D03*
X83433D02*
D03*
X79496D02*
D03*
X77528D02*
D03*
X75559D02*
D03*
X73590D02*
D03*
X71622D02*
D03*
X67685D02*
D03*
X65716D02*
D03*
X63748D02*
D03*
X61779D02*
D03*
X59811D02*
D03*
X57842D02*
D03*
X53905D02*
D03*
X51937D02*
D03*
X364949Y6894D02*
D03*
X362980D02*
D03*
X361012D02*
D03*
X359043D02*
D03*
X357075D02*
D03*
X355106D02*
D03*
X353138D02*
D03*
X351169D02*
D03*
X349201D02*
D03*
X347232D02*
D03*
X345264D02*
D03*
X343295D02*
D03*
X341327D02*
D03*
X339358D02*
D03*
X335421D02*
D03*
X333453D02*
D03*
X331484D02*
D03*
X329516D02*
D03*
X327547D02*
D03*
X325579D02*
D03*
X321642D02*
D03*
X319673D02*
D03*
X317705D02*
D03*
X315736D02*
D03*
X313768D02*
D03*
X309831D02*
D03*
X307862D02*
D03*
X305894D02*
D03*
X303925D02*
D03*
X301957D02*
D03*
X298020D02*
D03*
X296051D02*
D03*
X294083D02*
D03*
X292114D02*
D03*
X288177D02*
D03*
X286209D02*
D03*
X284240D02*
D03*
X282272D02*
D03*
X280303D02*
D03*
X278335D02*
D03*
X276366D02*
D03*
X274398D02*
D03*
X270461D02*
D03*
X268492D02*
D03*
X266524D02*
D03*
X264555D02*
D03*
X262587D02*
D03*
X260618D02*
D03*
X258650D02*
D03*
X256681D02*
D03*
X252744D02*
D03*
X250776D02*
D03*
X248807D02*
D03*
X246839D02*
D03*
X244870D02*
D03*
X242902D02*
D03*
X240933D02*
D03*
X238965D02*
D03*
X235028D02*
D03*
X233059D02*
D03*
X229122D02*
D03*
X227153D02*
D03*
X223217D02*
D03*
X221248D02*
D03*
X217311D02*
D03*
X215342D02*
D03*
X211405D02*
D03*
X209437D02*
D03*
X207469D02*
D03*
X205500D02*
D03*
D39*
X164500Y123829D02*
D03*
X196000Y125829D02*
D03*
X189000Y128171D02*
D03*
X212000Y127671D02*
D03*
X164500Y114671D02*
D03*
X189000Y130829D02*
D03*
X196000Y123171D02*
D03*
X164500Y121171D02*
D03*
Y117329D02*
D03*
X212000Y130329D02*
D03*
D42*
X64000Y47894D02*
D03*
Y181894D02*
D03*
X355500D02*
D03*
Y47894D02*
D03*
D43*
X93536Y87752D02*
D03*
Y92083D02*
D03*
Y105075D02*
D03*
Y96414D02*
D03*
X93536Y100745D02*
D03*
X97867Y92083D02*
D03*
X102197Y87752D02*
D03*
X97867Y87752D02*
D03*
X106528D02*
D03*
Y92083D02*
D03*
X110859Y87752D02*
D03*
X110859Y92083D02*
D03*
X97867Y96414D02*
D03*
X102197Y100745D02*
D03*
X97867Y100745D02*
D03*
Y105075D02*
D03*
X102197Y105075D02*
D03*
Y96414D02*
D03*
Y92083D02*
D03*
X106528Y96414D02*
D03*
X106528Y100745D02*
D03*
X106528Y105075D02*
D03*
X110859Y100745D02*
D03*
X110859Y105075D02*
D03*
Y96414D02*
D03*
X314169Y116831D02*
D03*
Y112500D02*
D03*
Y108169D02*
D03*
X318500D02*
D03*
Y116831D02*
D03*
Y112500D02*
D03*
X322831Y108169D02*
D03*
Y112500D02*
D03*
Y116831D02*
D03*
D44*
X51500Y62500D02*
D03*
X142000Y70000D02*
D03*
X155000Y87500D02*
D03*
X147000Y108500D02*
D03*
X65000Y111500D02*
D03*
Y118500D02*
D03*
X153000Y184500D02*
D03*
Y177000D02*
D03*
X318207Y66005D02*
D03*
X304676Y98368D02*
D03*
X318425Y71267D02*
D03*
X275500Y113500D02*
D03*
Y119500D02*
D03*
X331935Y98499D02*
D03*
X364577Y102423D02*
D03*
Y109423D02*
D03*
Y116423D02*
D03*
X305384Y126577D02*
D03*
X332000Y126500D02*
D03*
X348500Y141500D02*
D03*
X354000D02*
D03*
X343500D02*
D03*
X318592Y153098D02*
D03*
X268000Y159500D02*
D03*
X318592Y157598D02*
D03*
X311000Y167642D02*
D03*
X336000Y174000D02*
D03*
X64000Y56394D02*
D03*
X72500Y47894D02*
D03*
X64000Y39394D02*
D03*
X55500Y47894D02*
D03*
X58000Y53894D02*
D03*
X70000Y53394D02*
D03*
Y41894D02*
D03*
X58000D02*
D03*
X64000Y190394D02*
D03*
X72500Y181894D02*
D03*
X64000Y173394D02*
D03*
X55500Y181894D02*
D03*
X58000Y187894D02*
D03*
X70000Y187394D02*
D03*
Y175894D02*
D03*
X58000D02*
D03*
X355500Y190394D02*
D03*
X364000Y181894D02*
D03*
X355500Y173394D02*
D03*
X347000Y181894D02*
D03*
X349500Y187894D02*
D03*
X361500Y187394D02*
D03*
Y175894D02*
D03*
X349500D02*
D03*
X355500Y56394D02*
D03*
X364000Y47894D02*
D03*
X355500Y39394D02*
D03*
X347000Y47894D02*
D03*
X349500Y53894D02*
D03*
X361500Y53394D02*
D03*
Y41894D02*
D03*
X349500D02*
D03*
X169500Y100000D02*
D03*
X164000D02*
D03*
X175000D02*
D03*
X181500D02*
D03*
X344000Y66500D02*
D03*
Y71500D02*
D03*
X349000Y76500D02*
D03*
X344000D02*
D03*
X349000Y66500D02*
D03*
X354500D02*
D03*
Y71500D02*
D03*
X349000D02*
D03*
X354500Y76500D02*
D03*
X367500Y94500D02*
D03*
X357000D02*
D03*
X362000D02*
D03*
X293500Y66000D02*
D03*
X293500Y71000D02*
D03*
Y76000D02*
D03*
X288000D02*
D03*
Y71000D02*
D03*
X288000Y66000D02*
D03*
X283000D02*
D03*
X283000Y71000D02*
D03*
Y76000D02*
D03*
X259000Y168500D02*
D03*
X283500Y129000D02*
D03*
X354000Y158500D02*
D03*
X348500D02*
D03*
X343500Y153500D02*
D03*
Y158500D02*
D03*
X354000Y153500D02*
D03*
X348500Y149000D02*
D03*
X354000D02*
D03*
X348500Y153500D02*
D03*
X343500Y149000D02*
D03*
X238500Y183500D02*
D03*
X74500Y61000D02*
D03*
X345264Y16264D02*
D03*
X188500Y59500D02*
D03*
X193500D02*
D03*
X291728Y115105D02*
D03*
X348179Y92201D02*
D03*
X64500Y62500D02*
D03*
X59500D02*
D03*
X365000Y21500D02*
D03*
X360500D02*
D03*
X355500D02*
D03*
X350500D02*
D03*
X77044Y125456D02*
D03*
X344000Y110000D02*
D03*
X293500Y158500D02*
D03*
Y149000D02*
D03*
X283000D02*
D03*
X293500Y153500D02*
D03*
X288000Y158500D02*
D03*
Y149000D02*
D03*
X283000Y153500D02*
D03*
X288000D02*
D03*
X283000Y158500D02*
D03*
D46*
X188565Y20264D02*
G03*
X188551Y20507I-2260J-5D01*
G01*
X188683Y22378D02*
G03*
X188500Y21934I447J-444D01*
G01*
X188565Y19686D02*
G03*
X188612Y19446I630J-1D01*
G01*
X188500Y20995D02*
G03*
X188504Y20926I630J4D01*
G01*
X188519Y20800D02*
G03*
X188517Y20812I-2246J-249D01*
G01*
X188024Y24024D02*
G03*
X188023Y24023I1153J-1153D01*
G01*
X186935Y20262D02*
G03*
X186931Y20328I-630J-4D01*
G01*
X187527Y23527D02*
G03*
X186870Y21934I1603J-1593D01*
G01*
X186888Y19446D02*
G03*
X186935Y19685I-583J239D01*
G01*
X186870Y20990D02*
G03*
X186885Y20738I2260J8D01*
G01*
X186899Y20620D02*
G03*
X186898Y20624I-626J-69D01*
G01*
X225613Y163760D02*
X227750Y165898D01*
X225613Y158835D02*
Y163760D01*
X219664Y152886D02*
X225613Y158835D01*
X216501Y152886D02*
X219664D01*
X211487Y147871D02*
X216501Y152886D01*
X211487Y145613D02*
Y147871D01*
X227750Y165898D02*
X238000D01*
X218346Y150134D02*
X227866D01*
X217650Y148763D02*
X217868Y148981D01*
X228541Y151764D02*
X233000Y147305D01*
X214636Y148730D02*
X217670Y151764D01*
X214636Y148626D02*
Y148730D01*
X227866Y150134D02*
X230854Y147146D01*
X217670Y151764D02*
X228541D01*
X217868Y148981D02*
Y149656D01*
X218346Y150134D01*
X302000Y105500D02*
Y120500D01*
X186000Y180500D02*
X242000D01*
X302000Y120500D01*
X221370Y99175D02*
Y124509D01*
X197870Y75675D02*
X221370Y99175D01*
Y124509D02*
X229604Y132743D01*
X223000Y98500D02*
Y123834D01*
X230279Y131113D01*
X199500Y75000D02*
X223000Y98500D01*
X201870Y75175D02*
X224370Y97675D01*
Y121175D02*
X232325Y129130D01*
X224370Y97675D02*
Y121175D01*
X226000Y97000D02*
Y120500D01*
X233000Y127500D01*
X203500Y74500D02*
X226000Y97000D01*
X227370Y118870D02*
X233000Y124500D01*
X206370Y74870D02*
X227370Y95870D01*
Y118870D01*
X208000Y74195D02*
X229000Y95195D01*
Y118195D02*
X233675Y122870D01*
X229000Y95195D02*
Y118195D01*
X193000Y151365D02*
X195602Y148763D01*
X193000Y151365D02*
Y157000D01*
X187000Y163000D02*
X193000Y157000D01*
X179500Y163000D02*
X187000D01*
X182000Y173000D02*
X188224Y179224D01*
X241421D01*
X298500Y122146D01*
Y119500D02*
Y122146D01*
X229604Y132743D02*
X244374D01*
X244743Y132066D02*
Y132374D01*
X244374Y132743D02*
X244743Y132374D01*
Y132066D02*
X245500Y131309D01*
Y131000D02*
Y131309D01*
X233000Y145000D02*
Y147305D01*
X197870Y51675D02*
Y75675D01*
X168870Y22675D02*
X197870Y51675D01*
X168870Y20258D02*
X168935Y20193D01*
Y19244D02*
Y20193D01*
X168870Y20258D02*
Y22675D01*
X168500Y18500D02*
Y18809D01*
X168935Y19244D01*
X230279Y131113D02*
X242887D01*
X243000Y131000D01*
X230539Y146831D02*
X230854Y147146D01*
X230539Y145039D02*
Y146831D01*
X230500Y145000D02*
X230539Y145039D01*
X199500Y51000D02*
Y75000D01*
X170500Y20933D02*
Y22000D01*
Y20933D02*
X170565Y20868D01*
X170500Y22000D02*
X199500Y51000D01*
X171000Y18500D02*
Y18809D01*
X170565Y19244D02*
X171000Y18809D01*
X170565Y19244D02*
Y20868D01*
X179500Y174000D02*
X186000Y180500D01*
X201902Y158075D02*
Y165098D01*
X198500Y168500D02*
X201902Y165098D01*
X196693Y161020D02*
Y162701D01*
X195739Y160066D02*
X196693Y161020D01*
X193394Y166000D02*
X196693Y162701D01*
X168000Y166000D02*
X193394D01*
X161274Y159274D02*
X168000Y166000D01*
X195739Y158075D02*
Y160066D01*
X201870Y43675D02*
Y75175D01*
X232325Y129130D02*
X244781D01*
X246411Y127500D01*
X246500D01*
X179629Y21434D02*
X201870Y43675D01*
X201870D01*
X178500Y20305D02*
X179629Y21434D01*
X178500Y18500D02*
Y20305D01*
X233675Y122870D02*
X250675D01*
X253565Y125760D01*
Y127256D01*
X254000Y127691D01*
Y128000D01*
X208000Y41695D02*
Y74195D01*
X188683Y22378D02*
X208000Y41695D01*
X188565Y19686D02*
Y20264D01*
X188504Y20926D02*
X188517Y20812D01*
X188500Y20995D02*
Y21934D01*
X188519Y20800D02*
X188551Y20507D01*
X188612Y19446D02*
X189000Y18500D01*
X250000Y124500D02*
X251935Y126435D01*
X233000Y124500D02*
X250000D01*
X251935Y126435D02*
Y127256D01*
X251500Y127691D02*
Y128000D01*
Y127691D02*
X251935Y127256D01*
X206370Y42370D02*
Y74870D01*
X188024Y24024D02*
X206370Y42370D01*
X187527Y23527D02*
X188023Y24023D01*
X186935Y19685D02*
Y20262D01*
X186885Y20738D02*
X186898Y20624D01*
X186870Y20990D02*
Y21934D01*
X186899Y20620D02*
X186931Y20328D01*
X186500Y18500D02*
X186888Y19446D01*
X203500Y43000D02*
Y74500D01*
X233000Y127500D02*
X244106D01*
X245799Y125807D02*
X247307D01*
X249000Y127500D01*
X244106D02*
X245799Y125807D01*
X202545Y42045D02*
X203500Y43000D01*
X181259Y20759D02*
X202545Y42045D01*
X180781Y18719D02*
Y20281D01*
X181259Y20759D01*
X180781Y18719D02*
X181000Y18500D01*
D47*
X292027Y193362D02*
G03*
X291971Y193362I-27J-2362D01*
G01*
X277735Y120265D02*
G03*
X277218Y121121I-2235J-765D01*
G01*
X204500Y163724D02*
X205897Y162327D01*
X212854Y162854D02*
X217000Y167000D01*
X210693Y162327D02*
X211220Y162854D01*
X205897Y162327D02*
X210693D01*
X211220Y162854D02*
X212854D01*
X204500Y163724D02*
Y164000D01*
X226500Y155500D02*
Y157613D01*
X229887Y161000D01*
X198888Y154926D02*
Y165112D01*
X197000Y167000D02*
X198888Y165112D01*
X211234Y135968D02*
X211554D01*
X210327Y135060D02*
X211234Y135968D01*
X209566Y135060D02*
X210327D01*
X209531Y135026D02*
X209566Y135060D01*
X208974Y135026D02*
X209531D01*
X208940Y135060D02*
X208974Y135026D01*
X208556Y139008D02*
Y139008D01*
X207053Y137504D02*
X208556Y139008D01*
X207053Y136947D02*
Y137504D01*
Y136947D02*
X207060Y136940D01*
X211350Y132602D02*
Y132878D01*
Y132602D02*
X212000Y131953D01*
Y130329D02*
Y131953D01*
X213669Y127032D02*
X214201Y126500D01*
X212640Y127032D02*
X213669D01*
X212443Y127228D02*
X212640Y127032D01*
X212394Y127228D02*
X212443D01*
X212000Y127622D02*
X212394Y127228D01*
X212000Y127622D02*
Y127671D01*
X292027Y193362D02*
X305638D01*
X311000Y185500D02*
Y188000D01*
X305638Y193362D02*
X311000Y188000D01*
Y181000D02*
Y185500D01*
X303022Y125598D02*
Y173022D01*
X311000Y181000D01*
X303022Y125598D02*
X305500Y123120D01*
Y117500D02*
Y123120D01*
X180000Y158000D02*
X186500D01*
Y172500D02*
Y173366D01*
X191216Y178083D01*
X240949D01*
X295500Y123531D01*
Y107500D02*
Y123531D01*
X146146Y93414D02*
Y93512D01*
X149748Y97114D01*
Y113614D01*
X154500Y118366D01*
Y126500D01*
X186432Y126854D02*
X187732D01*
X189000Y128122D01*
X192395Y124120D02*
Y124198D01*
X194025Y125829D01*
X196000D01*
X165679Y110821D02*
X167395D01*
X164500Y112000D02*
Y114671D01*
Y112000D02*
X165679Y110821D01*
X173000Y134000D02*
X175593Y131407D01*
X161500Y134000D02*
X173000D01*
X160024Y132524D02*
X161500Y134000D01*
X175593Y131407D02*
X182307D01*
X284500Y104845D02*
X286352Y102993D01*
X279500Y121000D02*
X284500Y116000D01*
Y104845D02*
Y116000D01*
X351169Y6894D02*
Y14204D01*
X302500Y62873D02*
X351169Y14204D01*
X302500Y62873D02*
Y88000D01*
X277600Y34330D02*
Y34330D01*
X270500Y42000D02*
X270726Y41774D01*
Y41204D02*
Y41774D01*
Y41204D02*
X277600Y34330D01*
Y34330D02*
X284473Y27457D01*
X245839Y161161D02*
X247339D01*
X217000Y167000D02*
X240000D01*
X245839Y161161D01*
X239390Y170500D02*
X239500D01*
X219796Y171327D02*
X238563D01*
X239390Y170500D01*
X212469Y164000D02*
X219796Y171327D01*
X83338Y44162D02*
Y47662D01*
X58500Y72500D02*
X83338Y47662D01*
Y44162D02*
X83500Y44000D01*
X87000D02*
Y55500D01*
X61359Y81141D02*
Y87803D01*
Y81141D02*
X87000Y55500D01*
X252001Y192905D02*
X291971Y193362D01*
X246500Y180500D02*
Y187404D01*
X252001Y192905D01*
X237587Y162587D02*
X238500Y163500D01*
X228413Y162587D02*
X237587D01*
X250504Y142000D02*
X260000D01*
X240680Y142648D02*
X249856D01*
X250504Y142000D01*
X240275Y142244D02*
X240680Y142648D01*
X228570Y142244D02*
X240275D01*
X227271Y140945D02*
X228570Y142244D01*
X83500Y119958D02*
X91371Y112087D01*
X83500Y119958D02*
Y144063D01*
X91371Y109898D02*
Y112087D01*
X83500Y144063D02*
X109937Y170500D01*
X183500D01*
X103000Y134000D02*
Y138165D01*
Y134000D02*
X103091Y133909D01*
Y109989D02*
Y133909D01*
X103000Y138165D02*
X103197Y138363D01*
X103091Y109989D02*
X103182Y109898D01*
X101024Y82741D02*
X101213Y82930D01*
X57280Y100678D02*
X79783D01*
X57197Y100761D02*
X57280Y100678D01*
X79783D02*
X81095Y99367D01*
X88713D01*
X98197Y133914D02*
Y138363D01*
X97276Y132993D02*
X98197Y133914D01*
X97276Y109898D02*
Y132993D01*
X160368Y134761D02*
X161499Y135892D01*
X139197Y128261D02*
X145697Y134761D01*
X160368D01*
X63666Y102761D02*
X64666Y101761D01*
X59197Y102761D02*
X63666D01*
X80658Y101335D02*
X88713D01*
X64666Y101761D02*
X80232D01*
X80658Y101335D01*
X99245Y82930D02*
X99434Y82741D01*
X140697Y139261D02*
X155697D01*
X113024Y109898D02*
X113221Y110095D01*
Y111784D01*
X140697Y139261D01*
X95119Y82741D02*
X95308Y82930D01*
X93000Y134000D02*
Y138165D01*
X93197Y138363D01*
X95308Y109898D02*
Y131692D01*
X93000Y134000D02*
X95308Y131692D01*
X58500Y72500D02*
Y92501D01*
X82245Y93461D02*
X88713D01*
X80697Y91914D02*
X82245Y93461D01*
X67697Y91914D02*
X80697D01*
X61359Y95459D02*
X64152D01*
X67697Y91914D01*
X58500Y92501D02*
X61359Y95360D01*
X126627Y113414D02*
X130670D01*
X118485Y105272D02*
X126627Y113414D01*
X115682Y105272D02*
X118485D01*
X143615Y136178D02*
X157146D01*
X137697Y130261D02*
X143615Y136178D01*
X157146D02*
X169729Y148761D01*
X176697D01*
X79492Y103304D02*
X88713D01*
X79445Y103256D02*
X79492Y103304D01*
X61697Y106261D02*
X64702Y103256D01*
X79445D01*
X111056Y112619D02*
X116197Y117761D01*
Y120363D01*
X111056Y109898D02*
Y112619D01*
X93339Y82930D02*
X93528Y82741D01*
X88703Y107251D02*
X88713Y107241D01*
X83207Y107251D02*
X88703D01*
X83197Y107261D02*
X83207Y107251D01*
X115682Y111245D02*
X141697Y137261D01*
X115682Y107241D02*
Y111245D01*
X141697Y137261D02*
X156697D01*
X174437Y155000D02*
X180000D01*
X156697Y137261D02*
X174437Y155000D01*
X107119Y109898D02*
Y130335D01*
X112894Y136111D01*
Y138370D01*
X116088D01*
X193851Y167102D02*
X193953Y167000D01*
X167543Y167102D02*
X193851D01*
X167441Y167000D02*
X167543Y167102D01*
X193953Y167000D02*
X197000D01*
X144719D02*
X167441D01*
X116088Y138370D02*
X144719Y167000D01*
X105150Y131970D02*
X107750Y134570D01*
Y134889D02*
X108197Y135337D01*
Y138363D01*
X107750Y134570D02*
Y134889D01*
X105150Y109898D02*
Y131970D01*
X86300Y89516D02*
X88705D01*
X80697Y83914D02*
X86300Y89516D01*
X64357Y87754D02*
X68197Y83914D01*
X80697D01*
X61549Y87754D02*
X64357D01*
X157376Y48876D02*
X157500Y49000D01*
X157376Y24058D02*
Y48876D01*
X157252Y23934D02*
X157376Y24058D01*
X146625Y19883D02*
X148000Y18508D01*
X146425Y6890D02*
X146819Y7283D01*
Y12944D01*
X146917Y13043D01*
Y13318D01*
X148000Y14401D01*
Y18508D01*
X163500Y81000D02*
X190500D01*
X132000Y49500D02*
X163500Y81000D01*
X134000Y21500D02*
X145022D01*
X132000Y23500D02*
Y49500D01*
Y23500D02*
X134000Y21500D01*
X145022D02*
X146425Y20097D01*
X209317Y72848D02*
X230827Y94358D01*
X209317Y37183D02*
X209500Y37000D01*
X209317Y37183D02*
Y72848D01*
X230827Y94358D02*
Y109327D01*
X232500Y111000D01*
X317500Y30000D02*
X333453Y14047D01*
Y6894D02*
Y14047D01*
X314500Y30000D02*
X317500D01*
X231000Y156500D02*
X245000D01*
X170697Y145215D02*
Y145261D01*
X176697Y139170D02*
Y139216D01*
X170697Y145215D02*
X176697Y139216D01*
X93197Y144465D02*
Y148261D01*
X231136Y140136D02*
X257364D01*
X258500Y139000D02*
X262500D01*
X257364Y140136D02*
X258500Y139000D01*
X232500Y94500D02*
Y108500D01*
X211500Y42000D02*
Y73500D01*
X232500Y94500D01*
X193000Y174000D02*
X194917Y175917D01*
X237083D02*
X241827Y171173D01*
X194917Y175917D02*
X237083D01*
X241827Y167776D02*
Y171173D01*
Y167776D02*
X247358Y162244D01*
X248225D02*
X266917Y143552D01*
Y134917D02*
Y143552D01*
X247358Y162244D02*
X248225D01*
X265000Y133000D02*
X266917Y134917D01*
X264000Y135500D02*
X265835Y137335D01*
Y142665D01*
X247339Y161161D02*
X265835Y142665D01*
X227000Y143500D02*
X227173Y143327D01*
X239827D02*
X249000Y152500D01*
X227173Y143327D02*
X239827D01*
X248693Y164807D02*
X249631D01*
X270000Y133500D02*
Y144438D01*
X248500Y165000D02*
X248693Y164807D01*
X249631D02*
X270000Y144438D01*
X230500Y159000D02*
X242500D01*
X189500Y174000D02*
X192500Y177000D01*
X240500D01*
X288500Y129000D01*
Y125000D02*
Y129000D01*
Y102000D02*
X302500Y88000D01*
X288500Y102000D02*
Y125000D01*
X161697Y109761D02*
Y131761D01*
X154930Y102994D02*
X161697Y109761D01*
X152209Y102994D02*
X154930D01*
X320500Y32500D02*
X339358Y13642D01*
Y6894D02*
Y13642D01*
X313000Y32500D02*
X320500D01*
X304543Y27457D02*
X304878Y27122D01*
X305475D02*
X316776Y15821D01*
Y15224D02*
Y15821D01*
X304878Y27122D02*
X305475D01*
X316776Y15224D02*
X317705Y14295D01*
X284473Y27457D02*
X304543D01*
X317705Y6894D02*
Y14295D01*
X186261Y46261D02*
X188097D01*
X165000Y25000D02*
X186261Y46261D01*
X189000Y130829D02*
Y130878D01*
X187082Y132796D02*
X189000Y130878D01*
X186514Y132796D02*
X187082D01*
X186288Y133022D02*
X186514Y132796D01*
X206971Y164849D02*
Y168971D01*
Y164849D02*
X207500Y164320D01*
Y164000D02*
Y164320D01*
X206941Y169000D02*
X206971Y168971D01*
X150000Y122000D02*
Y133000D01*
X148500Y120500D02*
X150000Y122000D01*
X114829Y34500D02*
X119500D01*
X268048Y128496D02*
X268111Y128560D01*
X265835Y128496D02*
X268048D01*
X264173Y138040D02*
Y141827D01*
X262000Y135866D02*
X264173Y138040D01*
X239154Y165917D02*
X244993Y160079D01*
X238000Y165917D02*
X239154D01*
X244993Y160079D02*
X245921D01*
X264173Y141827D01*
X262000Y132331D02*
X265835Y128496D01*
X262000Y132331D02*
Y135866D01*
X196000Y120500D02*
Y123171D01*
X166971Y121171D02*
X167000Y121201D01*
X167191Y117306D02*
X167214Y117283D01*
X164500Y121171D02*
X166971D01*
X164500Y117329D02*
Y121171D01*
X164523Y117306D02*
X167191D01*
X164500Y117329D02*
X164523Y117306D01*
X108078Y144472D02*
Y147641D01*
X128937Y168500D02*
X198500D01*
X108078Y147641D02*
X128937Y168500D01*
X187255Y135438D02*
Y138203D01*
X186513Y134695D02*
X187255Y135438D01*
X185595Y134695D02*
X186513D01*
X182997Y142462D02*
X187255Y138203D01*
X182307Y131407D02*
X185595Y134695D01*
X160173Y115173D02*
Y125341D01*
X160024Y125490D02*
X160173Y125341D01*
X159500Y114500D02*
X160173Y115173D01*
X160024Y125490D02*
Y132524D01*
X160000Y46500D02*
X160102Y46398D01*
Y6992D02*
Y46398D01*
Y6992D02*
X160205Y6890D01*
X147500Y142000D02*
X147662Y142162D01*
Y143162D01*
X161000Y156500D01*
X141000Y116500D02*
X147500Y123000D01*
X141000Y114500D02*
Y116500D01*
X147500Y123000D02*
Y130500D01*
X192761Y41011D02*
Y41261D01*
X185000Y33250D02*
X192761Y41011D01*
X185000Y33000D02*
Y33250D01*
X158197Y129761D02*
X158349Y129609D01*
Y119151D02*
X158500Y119000D01*
X158349Y119151D02*
Y129609D01*
X189774Y89774D02*
X190000Y90000D01*
X184165Y85000D02*
X188939Y89774D01*
X189774D01*
X178665Y83165D02*
X180500Y85000D01*
X184165D01*
X162603Y83165D02*
X178665D01*
X124000Y44562D02*
X162603Y83165D01*
X124000Y22500D02*
Y44562D01*
X162173Y39673D02*
X175542Y53042D01*
X162173Y6890D02*
Y39673D01*
X103197Y144465D02*
Y148261D01*
X145500Y39000D02*
Y51000D01*
Y39000D02*
X152500Y32000D01*
X154000Y115500D02*
X156524Y118024D01*
Y132087D01*
X156697Y132261D01*
X267000Y131000D02*
Y131320D01*
X268000Y132320D02*
Y144000D01*
X267000Y131320D02*
X268000Y132320D01*
X246766Y164367D02*
Y165234D01*
X245500Y166500D02*
X246766Y165234D01*
X247807Y163327D02*
X248673D01*
X246766Y164367D02*
X247807Y163327D01*
X248673D02*
X268000Y144000D01*
X229887Y161000D02*
X240500D01*
X144599Y16767D02*
X145500Y15866D01*
X144457Y6890D02*
X144850Y7283D01*
Y12944D01*
X144949Y13043D01*
Y13318D01*
X145500Y13870D01*
Y15866D01*
X144599Y16767D02*
Y17900D01*
X144504Y17996D02*
X144599Y17900D01*
X192500Y87500D02*
Y114117D01*
X163051Y82083D02*
X187083D01*
X192500Y87500D01*
X130917Y49948D02*
X163051Y82083D01*
X133552Y20417D02*
X142083D01*
X130917Y23052D02*
Y49948D01*
Y23052D02*
X133552Y20417D01*
X142083D02*
X144457Y18043D01*
X177748Y84248D02*
X179583Y86083D01*
X183716D01*
X189000Y91366D01*
Y94000D01*
X121500Y28000D02*
X122500Y29000D01*
Y44593D02*
X162155Y84248D01*
X122500Y29000D02*
Y44593D01*
X115500Y28000D02*
X121500D01*
X162155Y84248D02*
X177748D01*
X243500Y170500D02*
X245469D01*
X275000Y140969D01*
Y137500D02*
Y140969D01*
X359043Y6894D02*
Y13957D01*
X357000Y16000D02*
X359043Y13957D01*
X352000Y16000D02*
X357000D01*
X313000Y55000D02*
X352000Y16000D01*
X210000Y164000D02*
X212469D01*
X151500Y118500D02*
X152697Y119697D01*
Y132761D01*
X232000Y154000D02*
X246180D01*
X246680Y154500D01*
X247000D01*
X251500Y174000D02*
X253485Y175985D01*
Y182340D01*
X253000Y182826D02*
X253485Y182340D01*
X253000Y182826D02*
Y189500D01*
X177398Y164898D02*
X192102D01*
X195000Y162000D01*
X160500Y148000D02*
X177398Y164898D01*
X144500Y142500D02*
X161274Y159274D01*
X132933Y119392D02*
X144082Y130541D01*
X132711Y119392D02*
X132933D01*
X132320Y119000D02*
X132711Y119392D01*
X132000Y119000D02*
X132320D01*
X114829Y32000D02*
X117500D01*
X98197Y144465D02*
X98224Y144491D01*
Y148279D01*
X305500Y7287D02*
X305894Y6894D01*
X238000Y62000D02*
Y114500D01*
Y62000D02*
X278961Y21039D01*
X305500Y7287D02*
Y14500D01*
X278961Y21039D02*
X298961D01*
X305500Y14500D01*
X88680Y40000D02*
X89000D01*
X83352Y34671D02*
X88680Y40000D01*
X77671Y34671D02*
X83352D01*
X82000Y25000D02*
X87309Y30309D01*
Y32887D01*
X87083Y33112D02*
X87309Y32887D01*
X82000Y21846D02*
Y25000D01*
Y21846D02*
X83346Y20500D01*
X93000D01*
X83500Y29000D02*
Y33000D01*
X79917Y25417D02*
X83500Y29000D01*
X79917Y20583D02*
Y25417D01*
Y20583D02*
X81500Y19000D01*
X89415D01*
X90915Y17500D01*
X97331D01*
X100165Y20335D01*
X51541Y95459D02*
X55256D01*
X51697Y87803D02*
X55256D01*
X152249Y93414D02*
Y96749D01*
X112171Y34500D02*
X112213Y34541D01*
Y37574D01*
X112254Y37615D01*
X112171Y32000D02*
Y34500D01*
X277826Y120174D02*
X282352Y115648D01*
X277735Y120265D02*
X277826Y120174D01*
X277000Y126340D02*
X277218Y121121D01*
X277000Y126340D02*
Y134500D01*
X279500Y121000D02*
Y135000D01*
X282352Y103493D02*
Y115648D01*
D48*
X211554Y135968D02*
Y136128D01*
X212000Y136574D01*
Y139201D01*
X212236Y143213D02*
X214471Y145448D01*
X212236Y142035D02*
Y143213D01*
X212000Y141799D02*
X212236Y142035D01*
X205213Y154897D02*
Y154974D01*
X207081Y156842D01*
Y156919D01*
X208172Y151753D02*
Y151913D01*
X208974Y152716D01*
Y155026D01*
X208919Y155081D02*
X208974Y155026D01*
X208663Y158500D02*
X214921D01*
X207081Y156919D02*
X208663Y158500D01*
X207081Y156919D02*
X207081D01*
X214921Y158500D02*
X217620Y161199D01*
X217734Y161312D01*
X214273Y123626D02*
X214433D01*
X212988Y124910D02*
X214273Y123626D01*
X211392Y124910D02*
X212988D01*
X210866Y124384D02*
X211392Y124910D01*
X210532Y124384D02*
X210866D01*
X210476Y124440D02*
X210532Y124384D01*
X208366Y145479D02*
Y145639D01*
Y145479D02*
X209419Y144427D01*
Y143864D02*
Y144427D01*
Y143864D02*
X209474Y143808D01*
Y143474D02*
Y143808D01*
X209419Y143419D02*
X209474Y143474D01*
X223807Y161312D02*
X223920Y161199D01*
X223807Y161312D02*
Y162071D01*
X222378Y163500D02*
X223807Y162071D01*
X222299Y163500D02*
X222378D01*
X217734Y161312D02*
Y161611D01*
X219622Y163500D01*
X219701D01*
X223760Y161199D02*
X223920D01*
X223035Y160474D02*
X223760Y161199D01*
X220474Y160474D02*
X223035D01*
X220419Y160419D02*
X220474Y160474D01*
X218581Y158247D02*
Y158581D01*
X217702Y157368D02*
X218581Y158247D01*
X217702Y155201D02*
Y157368D01*
Y155201D02*
X217815Y155088D01*
X219334Y155201D02*
X220623Y156490D01*
X217928Y155201D02*
X219334D01*
X217815Y155088D02*
X217928Y155201D01*
X223807Y161086D02*
X223920Y161199D01*
X223807Y159674D02*
Y161086D01*
X222795Y158662D02*
X223807Y159674D01*
X222795Y158328D02*
Y158662D01*
X214509Y126736D02*
Y128509D01*
X215201Y129201D01*
X218000D01*
X221000D01*
X214657Y133086D02*
X215944Y131799D01*
X218000D01*
X221000D01*
X195895Y110641D02*
Y114722D01*
Y110641D02*
X198020Y108516D01*
X198764D01*
X199000Y108280D01*
Y108201D02*
Y108280D01*
X202000Y108201D02*
X205000D01*
X208500D01*
X199000D02*
X202000D01*
X198730Y117334D02*
X202000Y114064D01*
Y110799D02*
Y114064D01*
Y110799D02*
X205000D01*
X199000D02*
X202000D01*
X208182Y113986D02*
Y114146D01*
Y113986D02*
X208500Y113668D01*
Y110799D02*
Y113668D01*
X205187Y126579D02*
Y126690D01*
X202378Y129500D02*
X205187Y126690D01*
X202299Y129500D02*
X202378D01*
X199465Y129264D02*
X199701Y129500D01*
X197924Y129264D02*
X199465D01*
X197160Y128500D02*
X197924Y129264D01*
X197000Y128500D02*
X197160D01*
X197000D02*
Y128524D01*
X195500Y130024D02*
X197000Y128524D01*
X195500Y130024D02*
Y132701D01*
X194005Y139908D02*
X195592D01*
X198764Y135535D02*
X199000Y135299D01*
X198764Y135535D02*
Y136736D01*
X195592Y139908D02*
X198764Y136736D01*
X198921Y135299D02*
X199000Y135378D01*
X195500Y135299D02*
X198921D01*
X193892Y140021D02*
X194005Y139908D01*
X199000Y135299D02*
X202000D01*
X205100Y132600D02*
X205201Y132500D01*
X199100Y132600D02*
X205100D01*
X199000Y132701D02*
X199100Y132600D01*
X167000Y123721D02*
X167100Y123821D01*
Y131669D01*
X167201Y131770D01*
X169799Y126205D02*
Y131770D01*
X170609Y123588D02*
Y123748D01*
X170114Y124243D02*
X170609Y123748D01*
X170114Y124243D02*
Y125969D01*
X169878Y126205D02*
X170114Y125969D01*
X87000Y62500D02*
Y67047D01*
X68000Y88000D02*
X72095D01*
X68086Y95414D02*
X71745D01*
X96359Y62641D02*
Y66961D01*
X107197Y62697D02*
Y66961D01*
X99245Y99367D02*
X102197Y96414D01*
X99245Y99367D02*
Y109898D01*
X115000Y62000D02*
Y63000D01*
X116010Y64010D01*
Y67316D01*
X122946Y64054D02*
X124000Y63000D01*
X122946Y64054D02*
Y67146D01*
X136500Y64500D02*
Y69244D01*
X131729Y75792D02*
Y77465D01*
X130253Y78941D02*
X131729Y77465D01*
X130253Y78941D02*
Y83705D01*
X131047Y84500D01*
X136500Y69244D02*
X137142Y69886D01*
X131729Y75792D02*
X137142Y70378D01*
X136650Y93414D02*
X136736Y93500D01*
X136701Y102941D02*
X136760Y103000D01*
X137142Y69886D02*
X137256Y70000D01*
X137142Y69886D02*
Y70378D01*
X137256Y70000D02*
X142000D01*
X136736Y93500D02*
X140500D01*
X136760Y103000D02*
X140500D01*
X136760D02*
X136800Y103040D01*
Y113441D01*
X167395Y108193D02*
X167631Y107957D01*
X167395Y108193D02*
Y108222D01*
X170571Y107844D02*
X170583Y107831D01*
X170458Y107957D02*
X170571Y107844D01*
X167631Y107957D02*
X170458D01*
X170447Y114240D02*
X170503Y114184D01*
X170530D02*
X173720Y110993D01*
X170503Y114184D02*
X170530D01*
X170057D02*
X170113Y114240D01*
X170447D01*
X170583Y105534D02*
Y107831D01*
Y105534D02*
X170596Y105521D01*
X173720Y110993D02*
Y110995D01*
X175854Y113129D01*
X178314Y105603D02*
Y105603D01*
X179907Y107196D01*
Y107731D01*
X180020Y107844D01*
X175854Y113129D02*
Y113130D01*
X176831Y120957D02*
X176869Y120996D01*
X176497Y120957D02*
X176831D01*
X180020Y120442D02*
X180179D01*
X176869Y120996D02*
X179306D01*
X179860Y120442D02*
X180020D01*
X179306Y120996D02*
X179860Y120442D01*
X88133Y126367D02*
X92197D01*
X100197Y125867D02*
Y132197D01*
X110697Y126367D02*
Y130697D01*
X112000Y132000D01*
X166985Y123814D02*
X167000Y123799D01*
X164500Y123829D02*
X164515Y123814D01*
X166985D01*
X175732Y121722D02*
X176497Y120957D01*
X173395Y121722D02*
X175732D01*
X180020Y123592D02*
X180107Y123679D01*
Y126434D01*
X180105Y133110D02*
Y135910D01*
X180107Y126434D02*
X180194Y126521D01*
X180105Y133110D02*
X180194Y133021D01*
X180016Y135999D02*
X180105Y135910D01*
X180129Y142758D02*
Y145335D01*
X180016Y145448D02*
X180129Y145335D01*
X182194Y111521D02*
X182273D01*
X182509Y111758D01*
Y111836D01*
X180179Y120442D02*
X180883Y119738D01*
X182360D01*
X182415Y119794D01*
X182509Y111836D02*
X183056Y112383D01*
Y114030D01*
X183169Y114143D01*
X183329D01*
X183593Y114407D01*
X185659D01*
Y114418D01*
X186131Y114891D01*
X186257Y126804D02*
X186319Y126741D01*
X186131Y114891D02*
X188493D01*
X180366Y142521D02*
X180395D01*
X180129Y142758D02*
X180366Y142521D01*
X180016Y135999D02*
X183264D01*
X183500Y136235D01*
Y136279D01*
X183163Y145409D02*
X183276Y145296D01*
X184742D01*
X186319Y126741D02*
X186432Y126854D01*
X186257Y126804D02*
Y129459D01*
X184742Y145296D02*
X187017Y143021D01*
X186194Y129521D02*
X186257Y129459D01*
X186174Y129541D02*
X186194Y129521D01*
X187017Y143021D02*
X187096D01*
X186472Y151747D02*
X186986Y151233D01*
X186312Y151747D02*
X186472D01*
X186986Y151233D02*
X189289D01*
X213374Y6894D02*
Y16214D01*
X219280Y6894D02*
Y16214D01*
X213374D02*
X214296Y17136D01*
X219280Y16214D02*
X220201Y17136D01*
X214296D02*
Y17296D01*
X220201Y17136D02*
Y17296D01*
X190177Y116240D02*
X190232Y116184D01*
X188493Y114891D02*
X189842Y116240D01*
X190177D01*
X198032Y114722D02*
X198570Y114185D01*
X198730D01*
X195895Y114722D02*
X198032D01*
X205369Y116547D02*
X207270D01*
X189469Y123592D02*
X189628D01*
X190156Y124120D01*
X192395D01*
X205314Y116603D02*
X205369Y116547D01*
X206299Y123500D02*
Y125467D01*
X207270Y116547D02*
X208018Y117296D01*
X208178D02*
X208191Y117308D01*
X208018Y117296D02*
X208178D01*
X210882Y117308D02*
X210895Y117321D01*
X208191Y117308D02*
X210882D01*
X214433Y123626D02*
Y126264D01*
X189000Y128122D02*
Y128171D01*
X205187Y126579D02*
X206299Y125467D01*
X193892Y140021D02*
X194005Y140134D01*
Y141383D01*
X196122Y143500D01*
X196201D01*
X205013Y142480D02*
X205172D01*
X208224Y129849D02*
Y132075D01*
X208114Y132185D02*
X208224Y132075D01*
X208114Y132185D02*
Y132264D01*
X207878Y132500D02*
X208114Y132264D01*
X208224Y129849D02*
X208337Y129736D01*
X207799Y132500D02*
X207878D01*
X197136Y150581D02*
X197192Y150526D01*
X197526D02*
X197581Y150581D01*
X197192Y150526D02*
X197526D01*
X195733Y151941D02*
X197093Y150581D01*
X197136D01*
X202000Y144020D02*
X202236Y143783D01*
X202000Y144020D02*
Y144098D01*
X200026Y146474D02*
Y149026D01*
X200081Y149081D01*
X195573Y151941D02*
X195733D01*
X202064Y154897D02*
X202177Y155010D01*
X202236Y143783D02*
X203709D01*
X205013Y142480D01*
X206281Y149446D02*
X206336Y149391D01*
X207222D02*
X208012Y148601D01*
X206336Y149391D02*
X207222D01*
X208012Y148601D02*
X208172D01*
X205891Y149391D02*
X205946Y149446D01*
X206281D01*
X219781Y142258D02*
Y143288D01*
Y142258D02*
X220017Y142021D01*
X214549Y154784D02*
X214662Y154897D01*
X217620Y145448D02*
X219781Y143288D01*
X217620Y145448D02*
Y145499D01*
X220622Y148500D01*
X220017Y142021D02*
X220096D01*
X173194Y105521D02*
X173273D01*
X173509Y105758D01*
Y105836D01*
X173607Y105935D01*
Y107731D01*
X167395Y110821D02*
X167481Y110907D01*
X170484D02*
X170571Y110993D01*
X167481Y110907D02*
X170484D01*
X173607Y107731D02*
X173720Y107844D01*
X176420Y107496D02*
X176476Y107440D01*
X176420Y107496D02*
Y110384D01*
X176870Y110834D01*
Y110993D01*
X173720Y114143D02*
Y114169D01*
X179596Y111521D02*
X179670D01*
X179907Y111758D01*
X171895Y115995D02*
X173720Y114169D01*
X171895Y115995D02*
Y116021D01*
X176983Y116122D02*
Y117180D01*
X176870Y117292D02*
X176983Y117180D01*
X174976Y119103D02*
X175018D01*
X176828Y117292D02*
X176870D01*
X175018Y119103D02*
X176828Y117292D01*
X170609Y123588D02*
X170769D01*
X171186Y124006D01*
X173159D01*
X173395Y124242D01*
Y124321D01*
X176867Y135839D02*
Y135999D01*
X176983Y116122D02*
X177747Y115357D01*
X176870Y123592D02*
X176983Y123705D01*
X177747Y115023D02*
Y115357D01*
X177691Y114968D02*
X177747Y115023D01*
X176983Y123705D02*
Y125909D01*
X177281Y126206D01*
X176867Y135839D02*
X177596Y135110D01*
X177281Y126206D02*
Y126285D01*
X177517Y126521D02*
X177596D01*
X177281Y126285D02*
X177517Y126521D01*
X177596Y133021D02*
Y135110D01*
X179907Y111758D02*
Y114030D01*
X180020Y114143D01*
X188395Y118021D02*
Y118021D01*
X184253Y121631D02*
X184308Y121687D01*
X186508Y119908D02*
Y120408D01*
Y119908D02*
X188395Y118021D01*
X186395Y120521D02*
X186508Y120408D01*
X189628Y120442D02*
X190393Y121206D01*
X189469Y120442D02*
X189628D01*
X190393Y121206D02*
X192159D01*
X192395Y121443D02*
Y121521D01*
X192159Y121206D02*
X192395Y121443D01*
X183169Y126741D02*
Y126901D01*
X183596Y127328D01*
X184253Y122077D02*
Y122349D01*
X184308Y121687D02*
Y122021D01*
X184253Y122077D02*
X184308Y122021D01*
X183169Y123432D02*
Y123592D01*
Y123432D02*
X184253Y122349D01*
X183596Y127328D02*
Y129521D01*
X199114Y141122D02*
Y143264D01*
X198878Y143500D02*
X199114Y143264D01*
Y141122D02*
X200972Y139265D01*
X201760D02*
X201872Y139152D01*
X200972Y139265D02*
X201760D01*
X198799Y143500D02*
X198878D01*
X201919Y151041D02*
X201985Y150974D01*
X204086D01*
X204862Y151750D01*
X205022D01*
X183169Y117296D02*
X183171Y117297D01*
X185498D01*
X185500Y117299D01*
X180016Y139149D02*
X183151D01*
X183185Y139114D01*
X183264D01*
X183500Y138878D01*
Y138799D02*
Y138878D01*
X177796Y142521D02*
Y144483D01*
X176867Y145413D02*
X177796Y144483D01*
X176867Y145413D02*
Y145448D01*
X113024Y79587D02*
Y82930D01*
X116010Y73222D02*
X116463Y72769D01*
X116010Y73222D02*
Y76601D01*
X113024Y79587D02*
X116010Y76601D01*
X91371Y80895D02*
Y82930D01*
X86843Y76368D02*
X91371Y80895D01*
X86843Y73965D02*
Y76368D01*
X86197Y73319D02*
X86843Y73965D01*
X82197Y87914D02*
X85776Y91493D01*
X88713D01*
X78086Y87914D02*
X82197D01*
X78000Y88000D02*
X78086Y87914D01*
X223807Y145338D02*
X223920Y145451D01*
X223009Y142336D02*
X223807Y143134D01*
Y145338D01*
X223009Y142258D02*
Y142336D01*
X222773Y142021D02*
X223009Y142258D01*
X222694Y142021D02*
X222773D01*
X217469Y123739D02*
Y125830D01*
X217114Y126185D02*
X217469Y125830D01*
Y123739D02*
X217582Y123626D01*
X216766Y126533D02*
X216845D01*
X217114Y126264D01*
Y126185D02*
Y126264D01*
X212369Y122213D02*
Y122547D01*
X212314Y122157D02*
X212369Y122213D01*
X212314Y122603D02*
X212369Y122547D01*
X212314Y121629D02*
Y122157D01*
X211328Y120484D02*
Y120644D01*
X212314Y121629D01*
X198723Y117327D02*
X198730Y117334D01*
X195902Y117327D02*
X198723D01*
X195895Y117321D02*
X195902Y117327D01*
X223220Y148500D02*
X223299D01*
X222984Y148264D02*
X223220Y148500D01*
X222984Y147520D02*
Y148264D01*
X220912Y145448D02*
X222984Y147520D01*
X220770Y145448D02*
X220912D01*
X205194Y129743D02*
Y132493D01*
X205201Y132500D01*
X205187Y129736D02*
X205194Y129743D01*
X203998Y147164D02*
X204053Y147108D01*
X203998Y147498D02*
X204053Y147554D01*
Y146580D02*
Y147108D01*
X205022Y145451D02*
Y145611D01*
X204053Y146580D02*
X205022Y145611D01*
X203998Y147164D02*
Y147498D01*
X189575Y143141D02*
Y145296D01*
X189462Y145409D02*
X189575Y145296D01*
Y143141D02*
X189694Y143021D01*
X205012Y139407D02*
X205172D01*
X203234Y141185D02*
X205012Y139407D01*
X203622Y123500D02*
X203701D01*
X202000Y141421D02*
X202236Y141185D01*
X202000Y141421D02*
Y141500D01*
X202236Y141185D02*
X203234D01*
X202151Y124971D02*
Y126466D01*
Y124971D02*
X203622Y123500D01*
X202038Y126579D02*
X202151Y126466D01*
X210895Y114643D02*
Y114722D01*
X210659Y114407D02*
X210895Y114643D01*
X208602Y114407D02*
X210659D01*
X208341Y114146D02*
X208602Y114407D01*
X208182Y114146D02*
X208341D01*
X187381Y153832D02*
X189289D01*
X186316Y154897D02*
X187381Y153832D01*
X205029Y120285D02*
Y120445D01*
X203476Y118440D02*
Y118733D01*
X205029Y120285D01*
X198435Y152957D02*
X199029Y152363D01*
X197707Y152957D02*
X198435D01*
X195768Y154897D02*
X197707Y152957D01*
X199029Y152363D02*
X199363D01*
X199419Y152419D01*
X109087Y114304D02*
X110697Y115914D01*
X116972Y132868D02*
Y133028D01*
X116197Y132094D02*
X116972Y132868D01*
X116197Y126465D02*
Y132094D01*
X112894Y144472D02*
X116972D01*
X116099Y126465D02*
X116197D01*
X115016Y125382D02*
X116099Y126465D01*
X115016Y124878D02*
Y125382D01*
X110697Y120560D02*
X115016Y124878D01*
X110697Y120461D02*
Y120560D01*
X115682Y101335D02*
X124675D01*
X125340Y102000D01*
X125660D01*
X126574Y102914D01*
X130796D01*
X119087Y103304D02*
X123784Y108000D01*
X130710D02*
X130796Y107914D01*
X123784Y108000D02*
X130710D01*
X85539Y120461D02*
X92197D01*
X77044Y118414D02*
Y125456D01*
X110697Y115914D02*
Y120461D01*
X109087Y109898D02*
Y114304D01*
X115682Y103304D02*
X119087D01*
X97197Y82851D02*
X97276Y82930D01*
X77150Y105914D02*
Y111308D01*
X77044Y111414D02*
X77150Y111308D01*
X77044Y111414D02*
Y118414D01*
X107119Y72945D02*
X107197Y72867D01*
X107119Y72945D02*
Y82930D01*
X96197Y73367D02*
Y76914D01*
X97197Y77914D01*
Y82851D01*
X92197Y114914D02*
Y120461D01*
Y114914D02*
X93339Y113772D01*
Y109898D02*
Y113772D01*
X81339Y105272D02*
X88713D01*
X77666Y95430D02*
X88713D01*
X77150Y105914D02*
X80697D01*
X81339Y105272D01*
X77650Y95414D02*
X77666Y95430D01*
X101213Y109898D02*
Y114898D01*
X100197Y115914D02*
X101213Y114898D01*
X100197Y115914D02*
Y119961D01*
X116666Y93414D02*
X130745D01*
D49*
X80197Y98761D02*
X81560Y97398D01*
X88713D01*
X54697Y98761D02*
X80197D01*
D50*
X278639Y36166D02*
X286309Y28496D01*
X278639Y36166D02*
Y36166D01*
X286309Y28496D02*
X305516D01*
X280143Y36789D02*
X286932Y30000D01*
X306194D01*
X271798Y45134D02*
X280143Y36789D01*
X249000Y65805D02*
Y119697D01*
X271175Y43630D02*
X271175D01*
X249000Y65805D02*
X271175Y43630D01*
X250504Y66428D02*
X271798Y45134D01*
X250504Y66428D02*
Y119074D01*
X281139Y37202D02*
Y37202D01*
Y37202D02*
X286844Y31496D01*
X309572D01*
X287468Y33000D02*
X310195D01*
X282643Y37825D02*
X287468Y33000D01*
X272834Y47634D02*
X282643Y37825D01*
X252000Y66341D02*
Y118627D01*
Y66341D02*
X272211Y46130D01*
X272211D01*
X253504Y66963D02*
Y118004D01*
Y66963D02*
X272834Y47634D01*
X110500Y62500D02*
Y74455D01*
X109306Y61306D02*
X110500Y62500D01*
X108425Y60425D02*
X109306Y61306D01*
X108425Y27699D02*
Y60425D01*
X109319Y75635D02*
X110500Y74455D01*
X109319Y75635D02*
Y82697D01*
X108270Y26230D02*
X110500Y24000D01*
X108270Y27544D02*
X108425Y27699D01*
X108270Y26230D02*
Y27544D01*
X109087Y82930D02*
X109319Y82697D01*
X104918Y82697D02*
X105150Y82930D01*
X104918Y75478D02*
Y82697D01*
X104502Y75062D02*
X104918Y75478D01*
X105000Y24000D02*
Y24343D01*
X104502Y24841D02*
Y75062D01*
Y24841D02*
X105000Y24343D01*
X97045Y28898D02*
X101024Y32877D01*
Y82689D01*
Y82741D02*
X101024Y82741D01*
X101075D01*
X97045Y24798D02*
Y28898D01*
Y24798D02*
X97500Y24343D01*
Y24000D02*
Y24343D01*
X101024Y82689D02*
X101075Y82741D01*
X102500Y24000D02*
Y24343D01*
X102998Y75685D02*
X103414Y76101D01*
Y82697D01*
X102998Y24841D02*
Y75685D01*
X103182Y82930D02*
X103414Y82697D01*
X102500Y24343D02*
X102998Y24841D01*
X95455Y29556D02*
X99434Y33535D01*
Y82689D01*
X99383Y82741D02*
X99434D01*
X95000Y24000D02*
Y24343D01*
X95455Y24798D01*
X99383Y82741D02*
X99434Y82689D01*
X95455Y24798D02*
Y29556D01*
X95119Y82741D02*
X95170D01*
X95119Y82741D02*
X95119Y82741D01*
X95119Y77933D02*
Y82689D01*
X95170Y82741D01*
X92235Y31204D02*
Y75049D01*
X95119Y77933D01*
X89087Y24756D02*
X89500Y24343D01*
Y24000D02*
Y24343D01*
X89087Y24756D02*
Y28056D01*
X92235Y31204D01*
X93477Y82741D02*
X93528D01*
X90732Y75795D02*
X93528Y78591D01*
Y82689D01*
X93477Y82741D02*
X93528Y82689D01*
X90732Y31827D02*
Y75795D01*
X87000Y24343D02*
X87583Y24926D01*
Y28679D01*
X87000Y24000D02*
Y24343D01*
X87583Y28679D02*
X90732Y31827D01*
X109929Y27414D02*
Y59802D01*
X109929D01*
X112004Y61877D02*
Y75078D01*
X109929Y59802D02*
X112004Y61877D01*
X110823Y76258D02*
X112004Y75078D01*
X109929Y27414D02*
X113000Y24343D01*
X110823Y76258D02*
Y82697D01*
X111056Y82930D01*
X113000Y24000D02*
Y24343D01*
X214500Y120416D02*
X219344Y115572D01*
Y99436D02*
Y115572D01*
X192413Y72504D02*
X219344Y99436D01*
X214500Y96000D02*
Y114117D01*
X158000Y73500D02*
X192000D01*
X214500Y96000D01*
X135500Y51000D02*
X158000Y73500D01*
X135500Y24000D02*
Y51000D01*
X139500Y24000D02*
Y53500D01*
X158504Y72504D01*
X192413D01*
X301743Y7108D02*
X301957Y6894D01*
X234500Y60873D02*
Y119500D01*
Y60873D02*
X276877Y18496D01*
X297877Y18496D02*
Y18496D01*
X276877D02*
X297877D01*
Y18496D02*
X301743Y14630D01*
Y7108D02*
Y14630D01*
X272211Y46130D02*
X281139Y37202D01*
X309572Y31496D02*
X310855Y30213D01*
Y29213D02*
Y30213D01*
Y29213D02*
X313202Y26866D01*
X316507D01*
X325365Y7572D02*
X325579Y7786D01*
X316507Y26866D02*
X325579Y17794D01*
Y7786D02*
Y17794D01*
X223610Y136890D02*
X252610D01*
X258496Y131004D01*
X222706Y137794D02*
X223610Y136890D01*
X217751Y137794D02*
X222706D01*
X215323Y140222D02*
X217751Y137794D01*
X258496Y125123D02*
Y131004D01*
X252000Y118627D02*
X258496Y125123D01*
X258496D01*
X325579Y6894D02*
X325811Y7126D01*
X325365Y7572D02*
X325811Y7126D01*
X215323Y140222D02*
Y141398D01*
X214500Y142221D02*
X215323Y141398D01*
X214500Y142221D02*
Y142327D01*
X282044Y23583D02*
X300417D01*
X308271Y15729D02*
X309407Y14593D01*
X300417Y23583D02*
X308271Y15729D01*
X309407Y7317D02*
Y14593D01*
X241502Y118659D02*
X242000Y119157D01*
Y119500D01*
X309407Y7317D02*
X309831Y6894D01*
X241502Y64125D02*
Y118659D01*
Y64125D02*
X282044Y23583D01*
X299794Y22079D02*
X307648Y14225D01*
Y7108D02*
Y14225D01*
X281421Y22079D02*
X299794D01*
X239500Y119157D02*
X239998Y118659D01*
X239500Y119157D02*
Y119500D01*
X307648Y7108D02*
X307862Y6894D01*
X239998Y63502D02*
X281421Y22079D01*
X239998Y63502D02*
Y118659D01*
X321642Y6894D02*
Y14552D01*
X306194Y30000D02*
X321642Y14552D01*
X218524Y135893D02*
X251233D01*
X256253Y130874D01*
X218495Y135922D02*
X218524Y135893D01*
X217892Y135922D02*
X218495D01*
X217650Y136164D02*
X217892Y135922D01*
X257134Y125704D02*
Y129993D01*
X256253Y130874D02*
X257134Y129993D01*
X250504Y119074D02*
X257134Y125704D01*
X283080Y26083D02*
X305044D01*
X246634Y98202D02*
Y100798D01*
X246502Y62660D02*
X283080Y26083D01*
X246502Y100930D02*
Y118659D01*
Y98070D02*
X246634Y98202D01*
X246502Y100930D02*
X246634Y100798D01*
X246502Y62660D02*
Y98070D01*
X314391Y16736D02*
X315736Y15391D01*
X305925Y25202D02*
X314391Y16736D01*
X305044Y26083D02*
X305925Y25202D01*
X315736Y7740D02*
Y15391D01*
X315313Y7317D02*
X315736Y7740D01*
X246502Y118659D02*
X247000Y119157D01*
Y119500D01*
X315313Y7317D02*
X315736Y6894D01*
X271175Y43630D02*
X278639Y36166D01*
X319905Y7126D02*
Y14161D01*
X305516Y28496D02*
X305850Y28161D01*
X319673Y6894D02*
X319905Y7126D01*
X305905Y28161D02*
X319905Y14161D01*
X305850Y28161D02*
X305905D01*
X217957Y134389D02*
X250610D01*
X255630Y129370D01*
X214500Y136164D02*
X216303Y134361D01*
X217929D01*
X217957Y134389D01*
X255630Y126327D02*
Y129370D01*
X255630D02*
X255630D01*
X249000Y119697D02*
X255630Y126327D01*
X244998Y100307D02*
Y118659D01*
Y98693D02*
X245130Y98825D01*
X244998Y100307D02*
X245130Y100175D01*
X282457Y24579D02*
X304421D01*
X245130Y98825D02*
Y100175D01*
X244998Y62037D02*
Y98693D01*
Y62037D02*
X282457Y24579D01*
X304421Y24579D02*
X313768Y15232D01*
Y7322D02*
Y15232D01*
X304421Y24579D02*
Y24579D01*
X313554Y7108D02*
X313768Y7322D01*
X244500Y119157D02*
X244998Y118659D01*
X244500Y119157D02*
Y119500D01*
X313554Y7108D02*
X313768Y6894D01*
X236004Y118161D02*
X237000Y119157D01*
Y119500D01*
X303502Y7317D02*
X303925Y6894D01*
X236004Y61496D02*
Y118161D01*
Y61496D02*
X277500Y20000D01*
X303502Y7317D02*
Y14998D01*
X277500Y20000D02*
X298500D01*
X302365Y16135D02*
X303502Y14998D01*
X299381Y19119D02*
X302365Y16135D01*
X298500Y20000D02*
X299381Y19119D01*
X327547Y12744D02*
Y17953D01*
X310195Y33000D02*
X312359Y30836D01*
X327124Y12744D02*
X327547D01*
X312359Y29836D02*
X313825Y28370D01*
X317130D01*
X312359Y29836D02*
Y30836D01*
X317130Y28370D02*
X327547Y17953D01*
X327315Y7126D02*
Y12553D01*
X327124Y12744D02*
X327315Y12553D01*
Y7126D02*
X327547Y6894D01*
X224233Y138393D02*
X253233D01*
X260000Y131627D01*
X223329Y139298D02*
X224233Y138393D01*
X218374Y139298D02*
X223329D01*
X216827Y140845D02*
X218374Y139298D01*
X260000Y124500D02*
Y131627D01*
X259119Y123619D02*
X260000Y124500D01*
X253504Y118004D02*
X259119Y123619D01*
X217650Y142221D02*
Y142327D01*
X216827Y141398D02*
X217650Y142221D01*
X216827Y140845D02*
Y141398D01*
D51*
X205213Y154897D02*
D03*
X208172Y151753D02*
D03*
X226500Y155500D02*
D03*
X208556Y139008D02*
D03*
X217620Y161199D02*
D03*
X305500Y117500D02*
D03*
X186500Y158000D02*
D03*
X180000D02*
D03*
X186500Y172500D02*
D03*
X295500Y107500D02*
D03*
X154500Y126500D02*
D03*
X238000Y114500D02*
D03*
X55000Y17500D02*
D03*
X68500Y17000D02*
D03*
X74464Y17224D02*
D03*
X80500Y17000D02*
D03*
X86386Y16886D02*
D03*
X84610Y23977D02*
D03*
X92241Y24005D02*
D03*
X81000Y40000D02*
D03*
X87000Y62500D02*
D03*
X107868Y23968D02*
D03*
X100000Y24000D02*
D03*
X94000Y42000D02*
D03*
X69000Y70000D02*
D03*
X68231Y88050D02*
D03*
X52197Y98761D02*
D03*
X55197Y102261D02*
D03*
X68317Y95464D02*
D03*
X57197Y104261D02*
D03*
X96359Y62641D02*
D03*
X107197Y62697D02*
D03*
X114000Y17000D02*
D03*
X125736Y17101D02*
D03*
X143500Y15500D02*
D03*
X150000Y16000D02*
D03*
X115000Y62000D02*
D03*
X116000Y24000D02*
D03*
X124231Y63050D02*
D03*
X152461Y39039D02*
D03*
X166000Y18500D02*
D03*
X184000D02*
D03*
X174500D02*
D03*
X140500Y93500D02*
D03*
Y103000D02*
D03*
X188000Y76000D02*
D03*
X60000Y108000D02*
D03*
X170571Y107844D02*
D03*
X82697Y109761D02*
D03*
X173720Y110993D02*
D03*
X88133Y126367D02*
D03*
X100197Y132197D02*
D03*
X112000Y132000D02*
D03*
X98197Y150761D02*
D03*
X93197D02*
D03*
X103197D02*
D03*
X119500Y147000D02*
D03*
X179000Y189000D02*
D03*
X180020Y107844D02*
D03*
X180021Y117292D02*
D03*
X180020Y120442D02*
D03*
Y123592D02*
D03*
X183169Y107844D02*
D03*
X183169Y114143D02*
D03*
X180016Y135999D02*
D03*
X180016Y145448D02*
D03*
X183163Y145409D02*
D03*
X183059Y148789D02*
D03*
X186319Y126741D02*
D03*
X186312Y151747D02*
D03*
X214296Y17296D02*
D03*
X192000Y18500D02*
D03*
X210500Y95500D02*
D03*
X220201Y17296D02*
D03*
X232013D02*
D03*
X226107D02*
D03*
X237918D02*
D03*
X198730Y114185D02*
D03*
X189469Y123592D02*
D03*
X208178Y117296D02*
D03*
X217715Y114084D02*
D03*
X214433Y123626D02*
D03*
X243824Y17296D02*
D03*
X295000Y16000D02*
D03*
X333500Y17000D02*
D03*
X366917Y17083D02*
D03*
X249729Y17296D02*
D03*
X261540D02*
D03*
X255634D02*
D03*
X243500Y99500D02*
D03*
X307000Y19500D02*
D03*
X322000Y18000D02*
D03*
X191392Y134021D02*
D03*
X205187Y126579D02*
D03*
X191392Y137521D02*
D03*
X193892Y140021D02*
D03*
X205172Y142480D02*
D03*
X208337Y129736D02*
D03*
X211554Y135968D02*
D03*
X200060Y146332D02*
D03*
X195573Y151941D02*
D03*
X195500Y189500D02*
D03*
X202064Y154897D02*
D03*
X198000Y189500D02*
D03*
X208172Y148601D02*
D03*
X205000Y189000D02*
D03*
X212000D02*
D03*
X214662Y154897D02*
D03*
X217620Y145448D02*
D03*
X223920Y161199D02*
D03*
X226000Y189000D02*
D03*
X219000D02*
D03*
X233000D02*
D03*
X259000Y185500D02*
D03*
X244500Y194500D02*
D03*
X173623Y158143D02*
D03*
X170571Y110993D02*
D03*
X173720Y107844D02*
D03*
X176870Y110993D02*
D03*
X173720Y114143D02*
D03*
X180020D02*
D03*
X170609Y123588D02*
D03*
X176870Y117292D02*
D03*
X176870Y123592D02*
D03*
X176867Y135999D02*
D03*
X180016Y139149D02*
D03*
X186395Y120521D02*
D03*
X189469Y120442D02*
D03*
X183169Y123592D02*
D03*
X183169Y126741D02*
D03*
X201872Y139152D02*
D03*
X205022Y151750D02*
D03*
X183169Y117296D02*
D03*
X311000Y185500D02*
D03*
X246500Y180500D02*
D03*
X238500Y163500D02*
D03*
X228413Y162587D02*
D03*
X260000Y142000D02*
D03*
X227271Y140945D02*
D03*
X155000Y64500D02*
D03*
X258984Y182484D02*
D03*
X236000Y169000D02*
D03*
X233000D02*
D03*
X217815Y155088D02*
D03*
X214471Y145448D02*
D03*
X214657Y133086D02*
D03*
X187000Y189500D02*
D03*
X183500D02*
D03*
X190500D02*
D03*
X176867Y145448D02*
D03*
X206000Y100000D02*
D03*
X113024Y79587D02*
D03*
X90500Y80000D02*
D03*
X89000Y37500D02*
D03*
X183500Y170500D02*
D03*
X54697Y98761D02*
D03*
X110500Y24000D02*
D03*
X105000D02*
D03*
X103000Y134000D02*
D03*
X97500Y24000D02*
D03*
X57197Y100761D02*
D03*
X102500Y24000D02*
D03*
X98197Y133914D02*
D03*
X139197Y128261D02*
D03*
X161499Y135892D02*
D03*
X59197Y102761D02*
D03*
X95000Y24000D02*
D03*
X155697Y139261D02*
D03*
X89500Y24000D02*
D03*
X93000Y134000D02*
D03*
X83500Y44000D02*
D03*
X137697Y130261D02*
D03*
X176697Y148761D02*
D03*
X61697Y106261D02*
D03*
X114633Y116124D02*
D03*
X87000Y24000D02*
D03*
X83197Y107261D02*
D03*
X180000Y155000D02*
D03*
X113000Y24000D02*
D03*
X198888Y154926D02*
D03*
X107750Y134570D02*
D03*
X87000Y44000D02*
D03*
X82197Y87914D02*
D03*
X214500Y114117D02*
D03*
X135500Y24000D02*
D03*
X139500D02*
D03*
X214500Y120416D02*
D03*
X157500Y49000D02*
D03*
X157364Y23934D02*
D03*
X190500Y81000D02*
D03*
X146625Y19883D02*
D03*
X209500Y37000D02*
D03*
X232500Y111000D02*
D03*
X314500Y30000D02*
D03*
X195602Y148763D02*
D03*
X179500Y163000D02*
D03*
X182000Y173000D02*
D03*
X298500Y119500D02*
D03*
X231000Y156500D02*
D03*
X245000D02*
D03*
X234500Y119500D02*
D03*
X170697Y145261D02*
D03*
X176697Y139170D02*
D03*
X93197Y148261D02*
D03*
X231136Y140136D02*
D03*
X262500Y139000D02*
D03*
X232500Y108500D02*
D03*
X211500Y42000D02*
D03*
X193000Y174000D02*
D03*
X265000Y133000D02*
D03*
X204500Y164000D02*
D03*
X264000Y135500D02*
D03*
X227000Y143500D02*
D03*
X249000Y152500D02*
D03*
X214500Y142327D02*
D03*
X248500Y165000D02*
D03*
X230500Y159000D02*
D03*
X242634Y159077D02*
D03*
X270000Y133500D02*
D03*
X242000Y119500D02*
D03*
X189500Y174000D02*
D03*
X233000Y145000D02*
D03*
X245500Y131000D02*
D03*
X214636Y148626D02*
D03*
X168500Y18500D02*
D03*
X161697Y131761D02*
D03*
X313000Y32500D02*
D03*
X230500Y145000D02*
D03*
X243000Y131000D02*
D03*
X217650Y148763D02*
D03*
X171000Y18500D02*
D03*
X270500Y42000D02*
D03*
X188097Y46261D02*
D03*
X165000Y25000D02*
D03*
X186288Y133022D02*
D03*
X179500Y174000D02*
D03*
X302000Y105500D02*
D03*
X207500Y164000D02*
D03*
X206941Y169000D02*
D03*
X239500Y119500D02*
D03*
X150000Y133000D02*
D03*
X148500Y120500D02*
D03*
X119500Y34500D02*
D03*
X217650Y136164D02*
D03*
X268111Y128560D02*
D03*
X211487Y145613D02*
D03*
X196000Y120500D02*
D03*
X167214Y117283D02*
D03*
X201902Y158075D02*
D03*
X247000Y119500D02*
D03*
X182997Y142462D02*
D03*
X159500Y114500D02*
D03*
X160000Y46500D02*
D03*
X147500Y130500D02*
D03*
Y142000D02*
D03*
X141000Y114500D02*
D03*
X161000Y156500D02*
D03*
X192761Y41261D02*
D03*
X185000Y33000D02*
D03*
X158197Y129761D02*
D03*
X158500Y119000D02*
D03*
X190000Y90000D02*
D03*
X124000Y22500D02*
D03*
X176000Y53500D02*
D03*
X103197Y148261D02*
D03*
X152500Y32000D02*
D03*
X145500Y51000D02*
D03*
X154000Y115500D02*
D03*
X156697Y132261D02*
D03*
X267000Y131000D02*
D03*
X245500Y166500D02*
D03*
X240500Y161000D02*
D03*
X214500Y136164D02*
D03*
X243312Y116643D02*
D03*
X223920Y145451D02*
D03*
X217582Y123626D02*
D03*
X211328Y120484D02*
D03*
X198730Y117334D02*
D03*
X192589Y114117D02*
D03*
X144504Y17996D02*
D03*
X115500Y28000D02*
D03*
X189000Y94000D02*
D03*
X239500Y170500D02*
D03*
X243500D02*
D03*
X312779Y54961D02*
D03*
X275000Y137500D02*
D03*
X210000Y164000D02*
D03*
X151500Y118500D02*
D03*
X152697Y132761D02*
D03*
X244500Y119500D02*
D03*
X211350Y132878D02*
D03*
X237000Y119500D02*
D03*
X216000Y174000D02*
D03*
X220000D02*
D03*
X212000D02*
D03*
X220770Y145448D02*
D03*
X208366Y145639D02*
D03*
X205022Y145451D02*
D03*
X189462Y145409D02*
D03*
X205172Y139407D02*
D03*
X205187Y129736D02*
D03*
X202038Y126579D02*
D03*
X232000Y154000D02*
D03*
X247000Y154500D02*
D03*
X251500Y174000D02*
D03*
X253000Y189500D02*
D03*
X160500Y148000D02*
D03*
X195000Y162000D02*
D03*
X195739Y158075D02*
D03*
X144500Y142500D02*
D03*
X144082Y130541D02*
D03*
X132000Y119000D02*
D03*
X117500Y32000D02*
D03*
X217650Y142327D02*
D03*
X208182Y114146D02*
D03*
X195768Y154897D02*
D03*
X168000Y174500D02*
D03*
X171500D02*
D03*
X175000D02*
D03*
X186316Y154897D02*
D03*
X205029Y120445D02*
D03*
X197000Y128500D02*
D03*
X98224Y148279D02*
D03*
X147000Y31000D02*
D03*
X77671Y34671D02*
D03*
X89000Y40000D02*
D03*
X87083Y33112D02*
D03*
X83500Y33000D02*
D03*
X100165Y20335D02*
D03*
X93000Y20500D02*
D03*
X51541Y95459D02*
D03*
X51697Y87803D02*
D03*
X246500Y127500D02*
D03*
X178500Y18500D02*
D03*
X254000Y128000D02*
D03*
X189000Y18500D02*
D03*
X251500Y128000D02*
D03*
X186500Y18500D02*
D03*
X249000Y127500D02*
D03*
X181000Y18500D02*
D03*
X152249Y96749D02*
D03*
X112254Y37615D02*
D03*
X137500Y34500D02*
D03*
X142898Y40102D02*
D03*
X116972Y133028D02*
D03*
Y144472D02*
D03*
X110000Y115000D02*
D03*
X324500Y127000D02*
D03*
X327500D02*
D03*
X310000D02*
D03*
X313000D02*
D03*
X324000Y98000D02*
D03*
X327000D02*
D03*
X313000D02*
D03*
X310000D02*
D03*
X277000Y134500D02*
D03*
X279500Y135000D02*
D03*
X286352Y102993D02*
D03*
X282352Y103493D02*
D03*
X125500Y102000D02*
D03*
X123705Y93414D02*
D03*
X126500Y108000D02*
D03*
X107119Y77938D02*
D03*
X97197Y77914D02*
D03*
X81500Y95500D02*
D03*
X85584Y120626D02*
D03*
X101213Y114898D02*
D03*
D52*
X207081Y156919D02*
D03*
X208919Y155081D02*
D03*
X178314Y105603D02*
D03*
X190232Y116184D02*
D03*
X205314Y116603D02*
D03*
X210476Y124440D02*
D03*
X176476Y107440D02*
D03*
X188395Y118021D02*
D03*
X212314Y122603D02*
D03*
X203476Y118440D02*
D03*
D53*
X207060Y136940D02*
D03*
X208940Y135060D02*
D03*
D54*
X199000Y108201D02*
D03*
X202000D02*
D03*
X205000D02*
D03*
X202000Y135299D02*
D03*
X199000D02*
D03*
X195500D02*
D03*
X208500Y108201D02*
D03*
X221000Y129201D02*
D03*
X167395Y108222D02*
D03*
X167000Y123799D02*
D03*
X173395Y121722D02*
D03*
X185500Y114701D02*
D03*
X183500Y136201D02*
D03*
X195895Y114722D02*
D03*
X192395Y124120D02*
D03*
X210895Y117321D02*
D03*
X202000Y144098D02*
D03*
X189289Y151233D02*
D03*
X212000Y139201D02*
D03*
X218000Y129201D02*
D03*
X167395Y110821D02*
D03*
X173395Y124321D02*
D03*
X185500Y117299D02*
D03*
X192395Y121521D02*
D03*
X183500Y138799D02*
D03*
X208500Y110799D02*
D03*
X202000D02*
D03*
X199000D02*
D03*
X221000Y131799D02*
D03*
X195500Y132701D02*
D03*
X199000D02*
D03*
X205000Y110799D02*
D03*
X202000Y132701D02*
D03*
X218000Y131799D02*
D03*
X212000Y141799D02*
D03*
X167000Y121201D02*
D03*
X195895Y117321D02*
D03*
X202000Y141500D02*
D03*
X210895Y114722D02*
D03*
X189289Y153832D02*
D03*
D55*
X222795Y158328D02*
D03*
X170057Y114184D02*
D03*
X175854Y113130D02*
D03*
X176814Y120940D02*
D03*
X182415Y119794D02*
D03*
X207581Y141581D02*
D03*
X197581Y150581D02*
D03*
X200081Y149081D02*
D03*
X205891Y149391D02*
D03*
X220419Y160419D02*
D03*
X171895Y116021D02*
D03*
X174976Y119103D02*
D03*
X177691Y114968D02*
D03*
X184253Y121631D02*
D03*
X201919Y150919D02*
D03*
X220957Y156490D02*
D03*
X218581Y158581D02*
D03*
X209419Y143419D02*
D03*
X204053Y147554D02*
D03*
X199419Y152419D02*
D03*
D56*
X137142Y69886D02*
D03*
X130253Y78941D02*
D03*
X137142D02*
D03*
X130253Y69886D02*
D03*
D57*
X102197Y96414D02*
D03*
D58*
X99245Y109898D02*
D03*
X113024Y82930D02*
D03*
X91371D02*
D03*
X101213Y109898D02*
D03*
X93339D02*
D03*
X97276Y82930D02*
D03*
X107119D02*
D03*
X105150Y109898D02*
D03*
X97276D02*
D03*
X95308D02*
D03*
X105150Y82930D02*
D03*
X95308D02*
D03*
X93339D02*
D03*
X111056D02*
D03*
X99245D02*
D03*
X103182Y82930D02*
D03*
X101213D02*
D03*
X109087Y82930D02*
D03*
X103182Y109898D02*
D03*
X109087Y109898D02*
D03*
X111056Y109898D02*
D03*
X113024Y109898D02*
D03*
X91371D02*
D03*
X107119D02*
D03*
D59*
X115682Y85587D02*
D03*
Y87556D02*
D03*
Y89524D02*
D03*
Y91493D02*
D03*
Y93461D02*
D03*
X115682Y95430D02*
D03*
Y97398D02*
D03*
X115682Y99367D02*
D03*
X115682Y103304D02*
D03*
Y105272D02*
D03*
X88713D02*
D03*
Y95430D02*
D03*
X88713Y93461D02*
D03*
Y89524D02*
D03*
Y87556D02*
D03*
Y85587D02*
D03*
Y91493D02*
D03*
X115682Y101335D02*
D03*
X115682Y107241D02*
D03*
X88713Y103304D02*
D03*
X88713Y101335D02*
D03*
Y99367D02*
D03*
X88713Y97398D02*
D03*
X88713Y107241D02*
D03*
D60*
X114829Y34500D02*
D03*
Y32000D02*
D03*
X112171Y34500D02*
D03*
Y32000D02*
D03*
M02*
