G04*
G04 #@! TF.GenerationSoftware,Altium Limited,Altium Designer,26.9.1 (10)*
G04*
G04 Layer_Color=16711935*
G04 Board_Origin=0|0*
%FSLAX25Y25*%
%MOIN*%
G70*
G04*
G04 #@! TF.SameCoordinates,25E4A3D9-96F7-4678-A4EC-3D76F423F696*
G04*
G04*
G04 #@! TF.FilePolarity,Negative*
G04*
G01*
G75*
%ADD19R,0.03543X0.03347*%
%ADD21R,0.03347X0.03543*%
%ADD23R,0.01811X0.01654*%
%ADD24R,0.03937X0.03740*%
%ADD25R,0.04724X0.05512*%
%ADD28R,0.03740X0.03937*%
%ADD37R,0.01378X0.12205*%
G04:AMPARAMS|DCode=39|XSize=14.76mil|YSize=13.78mil|CornerRadius=1.72mil|HoleSize=0mil|Usage=FLASHONLY|Rotation=90.000|XOffset=0mil|YOffset=0mil|HoleType=Round|Shape=RoundedRectangle|*
%AMROUNDEDRECTD39*
21,1,0.01476,0.01034,0,0,90.0*
21,1,0.01132,0.01378,0,0,90.0*
1,1,0.00345,0.00517,0.00566*
1,1,0.00345,0.00517,-0.00566*
1,1,0.00345,-0.00517,-0.00566*
1,1,0.00345,-0.00517,0.00566*
%
%ADD39ROUNDEDRECTD39*%
%ADD40R,3.23000X0.13500*%
%ADD42C,0.23622*%
%ADD43C,0.01968*%
%ADD44C,0.03150*%
G04:AMPARAMS|DCode=52|XSize=16.54mil|YSize=18.11mil|CornerRadius=0mil|HoleSize=0mil|Usage=FLASHONLY|Rotation=45.000|XOffset=0mil|YOffset=0mil|HoleType=Round|Shape=Rectangle|*
%AMROTATEDRECTD52*
4,1,4,0.00056,-0.01225,-0.01225,0.00056,-0.00056,0.01225,0.01225,-0.00056,0.00056,-0.01225,0.0*
%
%ADD52ROTATEDRECTD52*%

G04:AMPARAMS|DCode=53|XSize=14.76mil|YSize=13.78mil|CornerRadius=1.72mil|HoleSize=0mil|Usage=FLASHONLY|Rotation=135.000|XOffset=0mil|YOffset=0mil|HoleType=Round|Shape=RoundedRectangle|*
%AMROUNDEDRECTD53*
21,1,0.01476,0.01034,0,0,135.0*
21,1,0.01132,0.01378,0,0,135.0*
1,1,0.00345,-0.00035,0.00766*
1,1,0.00345,0.00766,-0.00035*
1,1,0.00345,0.00035,-0.00766*
1,1,0.00345,-0.00766,0.00035*
%
%ADD53ROUNDEDRECTD53*%
%ADD54R,0.01654X0.01811*%
G04:AMPARAMS|DCode=55|XSize=16.54mil|YSize=18.11mil|CornerRadius=0mil|HoleSize=0mil|Usage=FLASHONLY|Rotation=135.000|XOffset=0mil|YOffset=0mil|HoleType=Round|Shape=Rectangle|*
%AMROTATEDRECTD55*
4,1,4,0.01225,0.00056,-0.00056,-0.01225,-0.01225,-0.00056,0.00056,0.01225,0.01225,0.00056,0.0*
%
%ADD55ROTATEDRECTD55*%

%ADD56R,0.04134X0.05118*%
%ADD57R,0.20079X0.20079*%
%ADD58R,0.00984X0.03150*%
%ADD59R,0.03150X0.00984*%
G04:AMPARAMS|DCode=60|XSize=14.76mil|YSize=13.78mil|CornerRadius=1.72mil|HoleSize=0mil|Usage=FLASHONLY|Rotation=180.000|XOffset=0mil|YOffset=0mil|HoleType=Round|Shape=RoundedRectangle|*
%AMROUNDEDRECTD60*
21,1,0.01476,0.01034,0,0,180.0*
21,1,0.01132,0.01378,0,0,180.0*
1,1,0.00345,-0.00566,0.00517*
1,1,0.00345,0.00566,0.00517*
1,1,0.00345,0.00566,-0.00517*
1,1,0.00345,-0.00566,-0.00517*
%
%ADD60ROUNDEDRECTD60*%
D19*
X122946Y67146D02*
D03*
X103197Y138363D02*
D03*
X98197D02*
D03*
X93197D02*
D03*
X116197Y120363D02*
D03*
X112894Y138370D02*
D03*
X108078D02*
D03*
X122946Y73248D02*
D03*
X93197Y144465D02*
D03*
X108078Y144472D02*
D03*
X103197Y144465D02*
D03*
X98197D02*
D03*
X112894Y144472D02*
D03*
X116197Y126465D02*
D03*
D21*
X136800Y113441D02*
D03*
X146107Y102994D02*
D03*
X61359Y95459D02*
D03*
X130698Y113441D02*
D03*
X146146Y93414D02*
D03*
X61359Y87803D02*
D03*
X152209Y102994D02*
D03*
X152249Y93414D02*
D03*
X55256Y95459D02*
D03*
Y87803D02*
D03*
D23*
X219701Y163500D02*
D03*
X222299D02*
D03*
X167201Y126205D02*
D03*
Y131770D02*
D03*
Y129000D02*
D03*
X202299Y129500D02*
D03*
X170596Y105521D02*
D03*
X182194Y111521D02*
D03*
X180194Y126521D02*
D03*
Y133021D02*
D03*
X180395Y142521D02*
D03*
X186194Y129521D02*
D03*
X187096Y143021D02*
D03*
X206299Y123500D02*
D03*
X196201Y143500D02*
D03*
X207799Y132500D02*
D03*
X214201Y126500D02*
D03*
X220096Y142021D02*
D03*
X220701Y148500D02*
D03*
X169799Y126205D02*
D03*
Y131770D02*
D03*
Y129000D02*
D03*
X173194Y105521D02*
D03*
X179596Y111521D02*
D03*
X177596Y126521D02*
D03*
Y133021D02*
D03*
X183596Y129521D02*
D03*
X198799Y143500D02*
D03*
X199701Y129500D02*
D03*
X177796Y142521D02*
D03*
X222694Y142021D02*
D03*
X216799Y126500D02*
D03*
X223299Y148500D02*
D03*
X189694Y143021D02*
D03*
X205201Y132500D02*
D03*
X203701Y123500D02*
D03*
D24*
X72095Y88000D02*
D03*
X71745Y95414D02*
D03*
X71245Y105914D02*
D03*
X136500Y64500D02*
D03*
X131047Y84500D02*
D03*
X136650Y93414D02*
D03*
X136701Y102941D02*
D03*
Y107941D02*
D03*
X136953Y84500D02*
D03*
X130595Y64500D02*
D03*
X78000Y88000D02*
D03*
X130796Y102941D02*
D03*
X130745Y93414D02*
D03*
X130796Y107941D02*
D03*
X77150Y105914D02*
D03*
X77650Y95414D02*
D03*
D25*
X70351Y118414D02*
D03*
Y111414D02*
D03*
X77044Y118414D02*
D03*
Y111414D02*
D03*
D28*
X87000Y67047D02*
D03*
X96359Y66961D02*
D03*
X107197Y66961D02*
D03*
X116010Y67316D02*
D03*
X92197Y126367D02*
D03*
X100197Y125867D02*
D03*
X110697Y126367D02*
D03*
X116010Y73222D02*
D03*
X87000Y72953D02*
D03*
X110697Y120461D02*
D03*
X100197Y119961D02*
D03*
X107197Y72867D02*
D03*
X96359Y72867D02*
D03*
X92197Y120461D02*
D03*
D37*
X213374Y6894D02*
D03*
X219280D02*
D03*
X225185D02*
D03*
X231090D02*
D03*
X236996D02*
D03*
X254713D02*
D03*
X272429D02*
D03*
X290146D02*
D03*
X299988D02*
D03*
X311799D02*
D03*
X323610D02*
D03*
X337390D02*
D03*
X366917D02*
D03*
X55874Y6890D02*
D03*
X69653D02*
D03*
X81465D02*
D03*
X99181D02*
D03*
X116898D02*
D03*
X142488D02*
D03*
X170047D02*
D03*
X175953D02*
D03*
X181858D02*
D03*
X187764D02*
D03*
X193669D02*
D03*
X197606D02*
D03*
X195638D02*
D03*
X191701D02*
D03*
X189732D02*
D03*
X185795D02*
D03*
X183827D02*
D03*
X179890D02*
D03*
X177921D02*
D03*
X173984D02*
D03*
X172016D02*
D03*
X168079D02*
D03*
X166110D02*
D03*
X164142D02*
D03*
X162173D02*
D03*
X160205D02*
D03*
X158236D02*
D03*
X156268D02*
D03*
X154299D02*
D03*
X152331D02*
D03*
X150362D02*
D03*
X148394D02*
D03*
X146425D02*
D03*
X144457D02*
D03*
X140520D02*
D03*
X138551D02*
D03*
X136583D02*
D03*
X134614D02*
D03*
X132646D02*
D03*
X130677D02*
D03*
X128709D02*
D03*
X126740D02*
D03*
X124772D02*
D03*
X122803D02*
D03*
X120835D02*
D03*
X118866D02*
D03*
X114929D02*
D03*
X112961D02*
D03*
X110992D02*
D03*
X109024D02*
D03*
X107055D02*
D03*
X105087D02*
D03*
X103118D02*
D03*
X101150D02*
D03*
X97213D02*
D03*
X95244D02*
D03*
X93276D02*
D03*
X91307D02*
D03*
X89339D02*
D03*
X87370D02*
D03*
X85402D02*
D03*
X83433D02*
D03*
X79496D02*
D03*
X77528D02*
D03*
X75559D02*
D03*
X73590D02*
D03*
X71622D02*
D03*
X67685D02*
D03*
X65716D02*
D03*
X63748D02*
D03*
X61779D02*
D03*
X59811D02*
D03*
X57842D02*
D03*
X53905D02*
D03*
X51937D02*
D03*
X364949Y6894D02*
D03*
X362980D02*
D03*
X361012D02*
D03*
X359043D02*
D03*
X357075D02*
D03*
X355106D02*
D03*
X353138D02*
D03*
X351169D02*
D03*
X349201D02*
D03*
X347232D02*
D03*
X345264D02*
D03*
X343295D02*
D03*
X341327D02*
D03*
X339358D02*
D03*
X335421D02*
D03*
X333453D02*
D03*
X331484D02*
D03*
X329516D02*
D03*
X327547D02*
D03*
X325579D02*
D03*
X321642D02*
D03*
X319673D02*
D03*
X317705D02*
D03*
X315736D02*
D03*
X313768D02*
D03*
X309831D02*
D03*
X307862D02*
D03*
X305894D02*
D03*
X303925D02*
D03*
X301957D02*
D03*
X298020D02*
D03*
X296051D02*
D03*
X294083D02*
D03*
X292114D02*
D03*
X288177D02*
D03*
X286209D02*
D03*
X284240D02*
D03*
X282272D02*
D03*
X280303D02*
D03*
X278335D02*
D03*
X276366D02*
D03*
X274398D02*
D03*
X270461D02*
D03*
X268492D02*
D03*
X266524D02*
D03*
X264555D02*
D03*
X262587D02*
D03*
X260618D02*
D03*
X258650D02*
D03*
X256681D02*
D03*
X252744D02*
D03*
X250776D02*
D03*
X248807D02*
D03*
X246839D02*
D03*
X244870D02*
D03*
X242902D02*
D03*
X240933D02*
D03*
X238965D02*
D03*
X235028D02*
D03*
X233059D02*
D03*
X229122D02*
D03*
X227153D02*
D03*
X223217D02*
D03*
X221248D02*
D03*
X217311D02*
D03*
X215342D02*
D03*
X211405D02*
D03*
X209437D02*
D03*
X207469D02*
D03*
X205500D02*
D03*
D39*
X164500Y123829D02*
D03*
X196000Y125829D02*
D03*
X189000Y128171D02*
D03*
X212000Y127671D02*
D03*
X164500Y114671D02*
D03*
X189000Y130829D02*
D03*
X196000Y123171D02*
D03*
X164500Y121171D02*
D03*
Y117329D02*
D03*
X212000Y130329D02*
D03*
D40*
X209500Y7144D02*
D03*
D42*
X64000Y47894D02*
D03*
Y181894D02*
D03*
X355500D02*
D03*
Y47894D02*
D03*
D43*
X93536Y87752D02*
D03*
Y92083D02*
D03*
Y105075D02*
D03*
Y96414D02*
D03*
X93536Y100745D02*
D03*
X97867Y92083D02*
D03*
X102197Y87752D02*
D03*
X97867Y87752D02*
D03*
X106528D02*
D03*
Y92083D02*
D03*
X110859Y87752D02*
D03*
X110859Y92083D02*
D03*
X97867Y96414D02*
D03*
X102197Y100745D02*
D03*
X97867Y100745D02*
D03*
Y105075D02*
D03*
X102197Y105075D02*
D03*
Y96414D02*
D03*
Y92083D02*
D03*
X106528Y96414D02*
D03*
X106528Y100745D02*
D03*
X106528Y105075D02*
D03*
X110859Y100745D02*
D03*
X110859Y105075D02*
D03*
Y96414D02*
D03*
X314169Y116831D02*
D03*
Y112500D02*
D03*
Y108169D02*
D03*
X318500D02*
D03*
Y116831D02*
D03*
Y112500D02*
D03*
X322831Y108169D02*
D03*
Y112500D02*
D03*
Y116831D02*
D03*
D44*
X64000Y56394D02*
D03*
X72500Y47894D02*
D03*
X64000Y39394D02*
D03*
X55500Y47894D02*
D03*
X58000Y53894D02*
D03*
X70000Y53394D02*
D03*
Y41894D02*
D03*
X58000D02*
D03*
X64000Y190394D02*
D03*
X72500Y181894D02*
D03*
X64000Y173394D02*
D03*
X55500Y181894D02*
D03*
X58000Y187894D02*
D03*
X70000Y187394D02*
D03*
Y175894D02*
D03*
X58000D02*
D03*
X355500Y190394D02*
D03*
X364000Y181894D02*
D03*
X355500Y173394D02*
D03*
X347000Y181894D02*
D03*
X349500Y187894D02*
D03*
X361500Y187394D02*
D03*
Y175894D02*
D03*
X349500D02*
D03*
X355500Y56394D02*
D03*
X364000Y47894D02*
D03*
X355500Y39394D02*
D03*
X347000Y47894D02*
D03*
X349500Y53894D02*
D03*
X361500Y53394D02*
D03*
Y41894D02*
D03*
X349500D02*
D03*
D52*
X207081Y156919D02*
D03*
X208919Y155081D02*
D03*
X178314Y105603D02*
D03*
X190232Y116184D02*
D03*
X205314Y116603D02*
D03*
X210476Y124440D02*
D03*
X176476Y107440D02*
D03*
X188395Y118021D02*
D03*
X212314Y122603D02*
D03*
X203476Y118440D02*
D03*
D53*
X207060Y136940D02*
D03*
X208940Y135060D02*
D03*
D54*
X199000Y108201D02*
D03*
X202000D02*
D03*
X205000D02*
D03*
X202000Y135299D02*
D03*
X199000D02*
D03*
X195500D02*
D03*
X208500Y108201D02*
D03*
X221000Y129201D02*
D03*
X167395Y108222D02*
D03*
X167000Y123799D02*
D03*
X173395Y121722D02*
D03*
X185500Y114701D02*
D03*
X183500Y136201D02*
D03*
X195895Y114722D02*
D03*
X192395Y124120D02*
D03*
X210895Y117321D02*
D03*
X202000Y144098D02*
D03*
X189289Y151233D02*
D03*
X212000Y139201D02*
D03*
X218000Y129201D02*
D03*
X167395Y110821D02*
D03*
X173395Y124321D02*
D03*
X185500Y117299D02*
D03*
X192395Y121521D02*
D03*
X183500Y138799D02*
D03*
X208500Y110799D02*
D03*
X202000D02*
D03*
X199000D02*
D03*
X221000Y131799D02*
D03*
X195500Y132701D02*
D03*
X199000D02*
D03*
X205000Y110799D02*
D03*
X202000Y132701D02*
D03*
X218000Y131799D02*
D03*
X212000Y141799D02*
D03*
X167000Y121201D02*
D03*
X195895Y117321D02*
D03*
X202000Y141500D02*
D03*
X210895Y114722D02*
D03*
X189289Y153832D02*
D03*
D55*
X222795Y158328D02*
D03*
X170057Y114184D02*
D03*
X175854Y113130D02*
D03*
X176814Y120940D02*
D03*
X182415Y119794D02*
D03*
X207581Y141581D02*
D03*
X197581Y150581D02*
D03*
X200081Y149081D02*
D03*
X205891Y149391D02*
D03*
X220419Y160419D02*
D03*
X171895Y116021D02*
D03*
X174976Y119103D02*
D03*
X177691Y114968D02*
D03*
X184253Y121631D02*
D03*
X201919Y150919D02*
D03*
X220957Y156490D02*
D03*
X218581Y158581D02*
D03*
X209419Y143419D02*
D03*
X204053Y147554D02*
D03*
X199419Y152419D02*
D03*
D56*
X137142Y69886D02*
D03*
X130253Y78941D02*
D03*
X137142D02*
D03*
X130253Y69886D02*
D03*
D57*
X102197Y96414D02*
D03*
D58*
X99245Y109898D02*
D03*
X113024Y82930D02*
D03*
X91371D02*
D03*
X101213Y109898D02*
D03*
X93339D02*
D03*
X97276Y82930D02*
D03*
X107119D02*
D03*
X105150Y109898D02*
D03*
X97276D02*
D03*
X95308D02*
D03*
X105150Y82930D02*
D03*
X95308D02*
D03*
X93339D02*
D03*
X111056D02*
D03*
X99245D02*
D03*
X103182Y82930D02*
D03*
X101213D02*
D03*
X109087Y82930D02*
D03*
X103182Y109898D02*
D03*
X109087Y109898D02*
D03*
X111056Y109898D02*
D03*
X113024Y109898D02*
D03*
X91371D02*
D03*
X107119D02*
D03*
D59*
X115682Y85587D02*
D03*
Y87556D02*
D03*
Y89524D02*
D03*
Y91493D02*
D03*
Y93461D02*
D03*
X115682Y95430D02*
D03*
Y97398D02*
D03*
X115682Y99367D02*
D03*
X115682Y103304D02*
D03*
Y105272D02*
D03*
X88713D02*
D03*
Y95430D02*
D03*
X88713Y93461D02*
D03*
Y89524D02*
D03*
Y87556D02*
D03*
Y85587D02*
D03*
Y91493D02*
D03*
X115682Y101335D02*
D03*
X115682Y107241D02*
D03*
X88713Y103304D02*
D03*
X88713Y101335D02*
D03*
Y99367D02*
D03*
X88713Y97398D02*
D03*
X88713Y107241D02*
D03*
D60*
X114829Y34500D02*
D03*
Y32000D02*
D03*
X112171Y34500D02*
D03*
Y32000D02*
D03*
M02*
